{
.appVersion = "1272";
date = "2019-10-25 21:28:01 +0000";
disablesAutomaticAlignment = 1;
familyName = NerdfontsPL;
fontMaster = (
{
ascender = 1568;
capHeight = 1420;
custom = Book;
customParameters = (
{
name = typoAscender;
value = 1568;
},
{
name = typoDescender;
value = -480;
},
{
name = typoLineGap;
value = 410;
},
{
name = winAscent;
value = 1978;
},
{
name = winDescent;
value = 480;
},
{
name = hheaAscender;
value = 1978;
},
{
name = hheaDescender;
value = -480;
},
{
name = strikeoutPosition;
value = 636;
},
{
name = strikeoutSize;
value = 50;
}
);
descender = -480;
id = "F8C3375C-B372-4BAE-A3FB-5A8DC7FA7AB9";
weightValue = 400;
widthValue = 5;
xHeight = 1060;
}
);
glyphs = (
{
color = 2;
glyphname = uniE0A0;
lastChange = "2019-11-04 21:29:28 +0000";
layers = (
{
layerId = "F8C3375C-B372-4BAE-A3FB-5A8DC7FA7AB9";
paths = (
{
closed = 1;
nodes = (
"129 1906 LINE",
"129 598 LINE",
"405 776 LINE",
"405 1906 LINE",
"129 1906 LINE"
);
},
{
closed = 1;
nodes = (
"129 74 LINE",
"129 -408 LINE",
"405 -408 LINE",
"405 74 LINE SMOOTH",
"405 157 OFFCURVE",
"419 222 OFFCURVE",
"446 270 CURVE SMOOTH",
"467 309 OFFCURVE",
"509 349 OFFCURVE",
"573 392 CURVE SMOOTH",
"649 444 LINE SMOOTH",
"720 489 OFFCURVE",
"773 547 OFFCURVE",
"808 616 CURVE SMOOTH",
"844 685 OFFCURVE",
"862 783 OFFCURVE",
"862 910 CURVE SMOOTH",
"862 1296 LINE",
"1071 1296 LINE",
"780 1638 LINE",
"487 1296 LINE",
"696 1296 LINE",
"696 966 LINE SMOOTH",
"696 878 OFFCURVE",
"683 809 OFFCURVE",
"657 758 CURVE SMOOTH",
"629 702 OFFCURVE",
"587 655 OFFCURVE",
"530 618 CURVE SMOOTH",
"376 520 LINE SMOOTH",
"302 472 OFFCURVE",
"246 421 OFFCURVE",
"208 366 CURVE SMOOTH",
"155 291 OFFCURVE",
"129 194 OFFCURVE",
"129 74 CURVE"
);
}
);
width = 1200;
}
);
note = uniE0A0;
unicode = E0A0;
},
{
color = 2;
glyphname = uniE0A1;
lastChange = "2019-11-04 21:29:28 +0000";
layers = (
{
layerId = "F8C3375C-B372-4BAE-A3FB-5A8DC7FA7AB9";
paths = (
{
closed = 1;
nodes = (
"266 1690 LINE",
"266 790 LINE",
"770 790 LINE",
"770 922 LINE",
"418 922 LINE",
"418 1690 LINE",
"266 1690 LINE"
);
},
{
closed = 1;
nodes = (
"386 708 LINE",
"386 -192 LINE",
"542 -192 LINE",
"542 4 LINE",
"524 392 LINE",
"768 -192 LINE",
"934 -192 LINE",
"934 708 LINE",
"778 708 LINE",
"778 550 LINE",
"798 122 LINE",
"550 708 LINE",
"386 708 LINE"
);
}
);
width = 1200;
}
);
note = uniE0A1;
unicode = E0A1;
},
{
color = 2;
glyphname = uniE0A2;
lastChange = "2019-11-04 21:29:28 +0000";
layers = (
{
layerId = "F8C3375C-B372-4BAE-A3FB-5A8DC7FA7AB9";
paths = (
{
closed = 1;
nodes = (
"334 -52 LINE",
"864 -52 LINE SMOOTH",
"959 -52 OFFCURVE",
"1006 -5 OFFCURVE",
"1006 89 CURVE SMOOTH",
"1006 777 LINE SMOOTH",
"1006 878 OFFCURVE",
"965 929 OFFCURVE",
"884 929 CURVE",
"884 1234 LINE SMOOTH",
"884 1325 OFFCURVE",
"856 1402 OFFCURVE",
"800 1464 CURVE SMOOTH",
"747 1521 OFFCURVE",
"680 1550 OFFCURVE",
"600 1550 CURVE SMOOTH",
"520 1550 OFFCURVE",
"453 1521 OFFCURVE",
"400 1464 CURVE SMOOTH",
"344 1402 OFFCURVE",
"316 1325 OFFCURVE",
"316 1234 CURVE SMOOTH",
"316 929 LINE",
"235 929 OFFCURVE",
"194 878 OFFCURVE",
"194 777 CURVE SMOOTH",
"194 89 LINE SMOOTH",
"194 -5 OFFCURVE",
"241 -52 OFFCURVE",
"334 -52 CURVE"
);
},
{
closed = 1;
nodes = (
"748 929 LINE",
"452 929 LINE",
"452 1234 LINE SMOOTH",
"452 1292 OFFCURVE",
"465 1337 OFFCURVE",
"492 1369 CURVE SMOOTH",
"520 1404 OFFCURVE",
"556 1421 OFFCURVE",
"600 1421 CURVE SMOOTH",
"643 1421 OFFCURVE",
"678 1404 OFFCURVE",
"706 1369 CURVE SMOOTH",
"734 1336 OFFCURVE",
"748 1291 OFFCURVE",
"748 1234 CURVE SMOOTH",
"748 929 LINE"
);
},
{
closed = 1;
nodes = (
"656 184 LINE",
"542 184 LINE",
"542 507 LINE",
"498 530 OFFCURVE",
"476 567 OFFCURVE",
"476 618 CURVE SMOOTH",
"476 653 OFFCURVE",
"488 682 OFFCURVE",
"512 706 CURVE SMOOTH",
"536 731 OFFCURVE",
"565 743 OFFCURVE",
"599 743 CURVE SMOOTH",
"633 743 OFFCURVE",
"663 731 OFFCURVE",
"688 706 CURVE SMOOTH",
"711 683 OFFCURVE",
"722 653 OFFCURVE",
"722 618 CURVE SMOOTH",
"722 567 OFFCURVE",
"700 530 OFFCURVE",
"656 507 CURVE",
"656 184 LINE"
);
}
);
width = 1200;
}
);
note = uniE0A2;
unicode = E0A2;
},
{
color = 2;
glyphname = uniE0A3;
lastChange = "2019-11-20 01:42:46 +0000";
layers = (
{
layerId = "F8C3375C-B372-4BAE-A3FB-5A8DC7FA7AB9";
paths = (
{
closed = 1;
nodes = (
"177 1765 LINE",
"177 788 LINE",
"797 788 LINE",
"797 930 LINE",
"370 930 LINE",
"367 1605 LINE",
"797 1605 LINE",
"797 1765 LINE",
"177 1765 LINE"
);
},
{
closed = 1;
nodes = (
"330 701 LINE",
"330 -267 LINE",
"528 -267 LINE",
"528 -57 LINE",
"504 362 LINE",
"812 -267 LINE",
"1023 -267 LINE",
"1023 701 LINE",
"822 701 LINE",
"822 531 LINE",
"849 70 LINE",
"538 701 LINE",
"330 701 LINE"
);
}
);
width = 1200;
}
);
note = uniE0A3;
unicode = E0A3;
},
{
color = 2;
glyphname = uniE0B0;
lastChange = "2019-11-04 21:29:28 +0000";
layers = (
{
layerId = "F8C3375C-B372-4BAE-A3FB-5A8DC7FA7AB9";
paths = (
{
closed = 1;
nodes = (
"0 2003 LINE",
"0 -505 LINE",
"1200 750 LINE",
"0 2003 LINE"
);
}
);
width = 1200;
}
);
note = uniE0B0;
unicode = E0B0;
},
{
color = 2;
glyphname = uniE0B1;
lastChange = "2019-11-04 21:29:28 +0000";
layers = (
{
layerId = "F8C3375C-B372-4BAE-A3FB-5A8DC7FA7AB9";
paths = (
{
closed = 1;
nodes = (
"0 -397 LINE",
"103 -505 LINE",
"1200 750 LINE",
"103 2003 LINE",
"0 1896 LINE",
"1000 750 LINE",
"0 -397 LINE"
);
}
);
width = 1200;
}
);
note = uniE0B1;
unicode = E0B1;
},
{
color = 2;
glyphname = uniE0B2;
lastChange = "2019-11-04 21:29:28 +0000";
layers = (
{
layerId = "F8C3375C-B372-4BAE-A3FB-5A8DC7FA7AB9";
paths = (
{
closed = 1;
nodes = (
"0 750 LINE",
"1200 -505 LINE",
"1200 2003 LINE",
"0 750 LINE"
);
}
);
width = 1200;
}
);
note = uniE0B2;
unicode = E0B2;
},
{
color = 2;
glyphname = uniE0B3;
lastChange = "2019-11-04 21:29:28 +0000";
layers = (
{
layerId = "F8C3375C-B372-4BAE-A3FB-5A8DC7FA7AB9";
paths = (
{
closed = 1;
nodes = (
"0 750 LINE",
"1098 -505 LINE",
"1200 -397 LINE",
"197 750 LINE",
"1200 1896 LINE",
"1098 2003 LINE",
"0 750 LINE"
);
}
);
width = 1200;
}
);
note = uniE0B3;
unicode = E0B3;
},
{
color = 2;
glyphname = uniE0B4;
lastChange = "2019-11-20 01:42:46 +0000";
layers = (
{
layerId = "F8C3375C-B372-4BAE-A3FB-5A8DC7FA7AB9";
paths = (
{
closed = 1;
nodes = (
"0 1990 LINE",
"0 -492 LINE",
"197 -492 OFFCURVE",
"396 -432 OFFCURVE",
"598 -311 CURVE SMOOTH",
"999 -77 OFFCURVE",
"1200 276 OFFCURVE",
"1200 749 CURVE SMOOTH",
"1200 1222 OFFCURVE",
"999 1576 OFFCURVE",
"598 1813 CURVE SMOOTH",
"396 1931 OFFCURVE",
"197 1990 OFFCURVE",
"0 1990 CURVE"
);
}
);
width = 1200;
}
);
note = uniE0B4;
unicode = E0B4;
},
{
color = 2;
glyphname = uniE0B5;
lastChange = "2019-11-20 01:42:46 +0000";
layers = (
{
background = {
paths = (
{
closed = 1;
nodes = (
"238 -492 LINE",
"490 -401 OFFCURVE",
"706 -256 OFFCURVE",
"856 -91 CURVE SMOOTH",
"1005 74 OFFCURVE",
"1113 268 OFFCURVE",
"1163 460 CURVE SMOOTH",
"1187 556 OFFCURVE",
"1200 652 OFFCURVE",
"1200 747 CURVE SMOOTH",
"1200 842 OFFCURVE",
"1187 938 OFFCURVE",
"1163 1035 CURVE SMOOTH",
"1113 1227 OFFCURVE",
"1057 1386 OFFCURVE",
"697 1692 CURVE",
"727 1705 OFFCURVE",
"575 1804 OFFCURVE",
"238 1990 CURVE",
"0 1990 LINE",
"249 1898 OFFCURVE",
"465 1753 OFFCURVE",
"616 1587 CURVE SMOOTH",
"690 1504 OFFCURVE",
"756 1415 OFFCURVE",
"808 1321 CURVE SMOOTH",
"913 1132 OFFCURVE",
"962 938 OFFCURVE",
"962 747 CURVE SMOOTH",
"962 508 OFFCURVE",
"878 262 OFFCURVE",
"721 41 CURVE SMOOTH",
"563 -180 OFFCURVE",
"310 -377 OFFCURVE",
"0 -492 CURVE"
);
}
);
};
layerId = "F8C3375C-B372-4BAE-A3FB-5A8DC7FA7AB9";
paths = (
{
closed = 1;
nodes = (
"238 1986 LINE",
"0 1986 LINE",
"551 1782 OFFCURVE",
"962 1296 OFFCURVE",
"962 747 CURVE SMOOTH",
"962 198 OFFCURVE",
"551 -288 OFFCURVE",
"0 -492 CURVE",
"238 -492 LINE",
"794 -291 OFFCURVE",
"1200 189 OFFCURVE",
"1200 747 CURVE SMOOTH",
"1200 1305 OFFCURVE",
"794 1785 OFFCURVE",
"238 1986 CURVE"
);
}
);
width = 1200;
}
);
note = uniE0B5;
unicode = E0B5;
},
{
color = 2;
glyphname = uniE0B6;
lastChange = "2019-11-20 01:42:46 +0000";
layers = (
{
layerId = "F8C3375C-B372-4BAE-A3FB-5A8DC7FA7AB9";
paths = (
{
closed = 1;
nodes = (
"1200 -492 LINE",
"1200 1990 LINE",
"1003 1990 OFFCURVE",
"804 1931 OFFCURVE",
"602 1813 CURVE SMOOTH",
"200 1578 OFFCURVE",
"0 1222 OFFCURVE",
"0 749 CURVE SMOOTH",
"0 276 OFFCURVE",
"201 -76 OFFCURVE",
"602 -311 CURVE SMOOTH",
"805 -430 OFFCURVE",
"1003 -492 OFFCURVE",
"1200 -492 CURVE"
);
}
);
width = 1200;
}
);
note = uniE0B6;
unicode = E0B6;
},
{
color = 2;
glyphname = uniE0B7;
lastChange = "2019-11-20 01:42:46 +0000";
layers = (
{
layerId = "F8C3375C-B372-4BAE-A3FB-5A8DC7FA7AB9";
paths = (
{
closed = 1;
nodes = (
"962 1986 LINE",
"406 1785 OFFCURVE",
"0 1305 OFFCURVE",
"0 747 CURVE SMOOTH",
"0 189 OFFCURVE",
"406 -291 OFFCURVE",
"962 -492 CURVE",
"1200 -492 LINE",
"649 -288 OFFCURVE",
"238 198 OFFCURVE",
"238 747 CURVE SMOOTH",
"238 1296 OFFCURVE",
"649 1782 OFFCURVE",
"1200 1986 CURVE",
"962 1986 LINE"
);
}
);
width = 1200;
}
);
note = uniE0B7;
unicode = E0B7;
},
{
color = 2;
glyphname = uniE0B8;
lastChange = "2019-11-20 01:42:46 +0000";
layers = (
{
layerId = "F8C3375C-B372-4BAE-A3FB-5A8DC7FA7AB9";
paths = (
{
closed = 1;
nodes = (
"0 2003 LINE",
"0 -505 LINE",
"1200 -505 LINE",
"0 2003 LINE"
);
}
);
width = 1200;
}
);
note = uniE0B8;
unicode = E0B8;
},
{
color = 2;
glyphname = uniE0B9;
lastChange = "2019-11-20 01:42:46 +0000";
layers = (
{
layerId = "F8C3375C-B372-4BAE-A3FB-5A8DC7FA7AB9";
paths = (
{
closed = 1;
nodes = (
"0 2003 LINE",
"1144 -505 LINE",
"1200 -505 LINE",
"56 2003 LINE",
"0 2003 LINE"
);
}
);
width = 1200;
}
);
note = uniE0B9;
unicode = E0B9;
},
{
color = 2;
glyphname = uniE0BA;
lastChange = "2019-11-20 01:42:46 +0000";
layers = (
{
layerId = "F8C3375C-B372-4BAE-A3FB-5A8DC7FA7AB9";
paths = (
{
closed = 1;
nodes = (
"1200 2003 LINE",
"0 -505 LINE",
"1200 -505 LINE",
"1200 2003 LINE"
);
}
);
width = 1200;
}
);
note = uniE0BA;
unicode = E0BA;
},
{
color = 2;
glyphname = uniE0BB;
lastChange = "2019-11-20 01:42:46 +0000";
layers = (
{
layerId = "F8C3375C-B372-4BAE-A3FB-5A8DC7FA7AB9";
paths = (
{
closed = 1;
nodes = (
"1144 2003 LINE",
"0 -505 LINE",
"56 -505 LINE",
"1200 2003 LINE",
"1144 2003 LINE"
);
}
);
width = 1200;
}
);
note = uniE0BB;
unicode = E0BB;
},
{
color = 2;
glyphname = uniE0BC;
lastChange = "2019-11-20 01:42:46 +0000";
layers = (
{
layerId = "F8C3375C-B372-4BAE-A3FB-5A8DC7FA7AB9";
paths = (
{
closed = 1;
nodes = (
"0 2003 LINE",
"0 -505 LINE",
"1200 2003 LINE",
"0 2003 LINE"
);
}
);
width = 1200;
}
);
note = uniE0BC;
unicode = E0BC;
},
{
color = 2;
glyphname = uniE0BD;
lastChange = "2019-11-20 01:42:46 +0000";
layers = (
{
layerId = "F8C3375C-B372-4BAE-A3FB-5A8DC7FA7AB9";
paths = (
{
closed = 1;
nodes = (
"1144 2003 LINE",
"0 -505 LINE",
"56 -505 LINE",
"1200 2003 LINE",
"1144 2003 LINE"
);
}
);
width = 1200;
}
);
note = uniE0BD;
unicode = E0BD;
},
{
color = 2;
glyphname = uniE0BE;
lastChange = "2019-11-20 01:42:46 +0000";
layers = (
{
layerId = "F8C3375C-B372-4BAE-A3FB-5A8DC7FA7AB9";
paths = (
{
closed = 1;
nodes = (
"0 2003 LINE",
"1200 -505 LINE",
"1200 2003 LINE",
"0 2003 LINE"
);
}
);
width = 1200;
}
);
note = uniE0BE;
unicode = E0BE;
},
{
color = 2;
glyphname = uniE0BF;
lastChange = "2019-11-20 01:42:46 +0000";
layers = (
{
layerId = "F8C3375C-B372-4BAE-A3FB-5A8DC7FA7AB9";
paths = (
{
closed = 1;
nodes = (
"0 2003 LINE",
"1144 -505 LINE",
"1200 -505 LINE",
"56 2003 LINE",
"0 2003 LINE"
);
}
);
width = 1200;
}
);
note = uniE0BF;
unicode = E0BF;
},
{
color = 2;
glyphname = uniE0C0;
lastChange = "2019-11-20 01:42:46 +0000";
layers = (
{
layerId = "F8C3375C-B372-4BAE-A3FB-5A8DC7FA7AB9";
paths = (
{
closed = 1;
nodes = (
"10 -492 LINE",
"31 -492 OFFCURVE",
"56 -459 OFFCURVE",
"80 -417 CURVE SMOOTH",
"93 -392 OFFCURVE",
"106 -368 OFFCURVE",
"119 -344 CURVE SMOOTH",
"141 -304 OFFCURVE",
"166 -274 OFFCURVE",
"187 -274 CURVE SMOOTH",
"191 -274 OFFCURVE",
"195 -275 OFFCURVE",
"199 -277 CURVE SMOOTH",
"209 -284 OFFCURVE",
"221 -287 OFFCURVE",
"231 -287 CURVE SMOOTH",
"240 -287 OFFCURVE",
"248 -285 OFFCURVE",
"256 -282 CURVE SMOOTH",
"265 -278 OFFCURVE",
"275 -273 OFFCURVE",
"285 -267 CURVE SMOOTH",
"300 -257 OFFCURVE",
"327 -236 OFFCURVE",
"342 -227 CURVE SMOOTH",
"353 -220 OFFCURVE",
"363 -214 OFFCURVE",
"371 -210 CURVE",
"354 -200 OFFCURVE",
"322 -190 OFFCURVE",
"299 -175 CURVE SMOOTH",
"288 -167 OFFCURVE",
"277 -156 OFFCURVE",
"268 -143 CURVE SMOOTH",
"243 -108 OFFCURVE",
"226 -91 OFFCURVE",
"207 -91 CURVE SMOOTH",
"203 -91 OFFCURVE",
"198 -92 OFFCURVE",
"194 -94 CURVE SMOOTH",
"181 -99 OFFCURVE",
"167 -111 OFFCURVE",
"152 -132 CURVE",
"152 -113 LINE SMOOTH",
"149 -2 OFFCURVE",
"189 96 OFFCURVE",
"225 132 CURVE SMOOTH",
"236 144 OFFCURVE",
"249 149 OFFCURVE",
"261 149 CURVE SMOOTH",
"274 149 OFFCURVE",
"288 143 OFFCURVE",
"300 134 CURVE SMOOTH",
"312 125 OFFCURVE",
"324 114 OFFCURVE",
"337 101 CURVE SMOOTH",
"357 81 OFFCURVE",
"391 43 OFFCURVE",
"410 30 CURVE SMOOTH",
"424 19 OFFCURVE",
"437 15 OFFCURVE",
"448 15 CURVE SMOOTH",
"508 15 OFFCURVE",
"578 45 OFFCURVE",
"625 115 CURVE",
"597 94 OFFCURVE",
"571 83 OFFCURVE",
"547 83 CURVE SMOOTH",
"536 83 OFFCURVE",
"526 86 OFFCURVE",
"516 90 CURVE SMOOTH",
"491 101 OFFCURVE",
"471 134 OFFCURVE",
"461 166 CURVE SMOOTH",
"451 197 OFFCURVE",
"434 250 OFFCURVE",
"421 278 CURVE SMOOTH",
"414 292 LINE",
"435 310 OFFCURVE",
"448 326 OFFCURVE",
"462 352 CURVE SMOOTH",
"464 356 OFFCURVE",
"469 366 OFFCURVE",
"476 381 CURVE SMOOTH",
"483 396 OFFCURVE",
"488 407 OFFCURVE",
"491 414 CURVE SMOOTH",
"497 425 OFFCURVE",
"503 429 OFFCURVE",
"512 429 CURVE SMOOTH",
"527 429 OFFCURVE",
"545 415 OFFCURVE",
"562 398 CURVE SMOOTH",
"577 382 OFFCURVE",
"607 348 OFFCURVE",
"624 330 CURVE SMOOTH",
"636 317 OFFCURVE",
"646 306 OFFCURVE",
"655 299 CURVE SMOOTH",
"672 284 OFFCURVE",
"690 278 OFFCURVE",
"705 278 CURVE SMOOTH",
"713 278 OFFCURVE",
"738 284 OFFCURVE",
"747 284 CURVE SMOOTH",
"769 284 OFFCURVE",
"812 326 OFFCURVE",
"842 358 CURVE SMOOTH",
"859 374 OFFCURVE",
"890 410 OFFCURVE",
"906 428 CURVE SMOOTH",
"925 450 OFFCURVE",
"952 481 OFFCURVE",
"969 501 CURVE",
"895 457 OFFCURVE",
"824 425 OFFCURVE",
"784 425 CURVE SMOOTH",
"774 425 OFFCURVE",
"766 427 OFFCURVE",
"760 431 CURVE",
"760 432 OFFCURVE",
"694 483 OFFCURVE",
"683 500 CURVE SMOOTH",
"656 539 OFFCURVE",
"620 608 OFFCURVE",
"590 647 CURVE SMOOTH",
"580 659 OFFCURVE",
"571 665 OFFCURVE",
"564 665 CURVE SMOOTH",
"563 665 OFFCURVE",
"562 665 OFFCURVE",
"560 664 CURVE SMOOTH",
"547 659 LINE",
"556 684 LINE SMOOTH",
"584 763 OFFCURVE",
"616 800 OFFCURVE",
"648 809 CURVE SMOOTH",
"667 814 OFFCURVE",
"675 816 OFFCURVE",
"699 818 CURVE SMOOTH",
"710 819 OFFCURVE",
"719 819 OFFCURVE",
"725 820 CURVE SMOOTH",
"769 827 OFFCURVE",
"802 854 OFFCURVE",
"847 909 CURVE",
"835 903 OFFCURVE",
"824 901 OFFCURVE",
"812 901 CURVE SMOOTH",
"802 901 OFFCURVE",
"792 903 OFFCURVE",
"783 908 CURVE SMOOTH",
"754 924 OFFCURVE",
"742 921 OFFCURVE",
"712 941 CURVE SMOOTH",
"694 952 OFFCURVE",
"679 970 OFFCURVE",
"667 995 CURVE SMOOTH",
"661 1010 LINE",
"680 1023 OFFCURVE",
"706 1047 OFFCURVE",
"730 1086 CURVE SMOOTH",
"736 1095 OFFCURVE",
"775 1163 OFFCURVE",
"777 1165 CURVE",
"809 1221 OFFCURVE",
"849 1250 OFFCURVE",
"884 1253 CURVE SMOOTH",
"890 1253 OFFCURVE",
"895 1254 OFFCURVE",
"901 1254 CURVE SMOOTH",
"932 1254 OFFCURVE",
"965 1248 OFFCURVE",
"994 1238 CURVE SMOOTH",
"1016 1230 OFFCURVE",
"1039 1226 OFFCURVE",
"1062 1226 CURVE SMOOTH",
"1076 1226 OFFCURVE",
"1089 1227 OFFCURVE",
"1102 1230 CURVE SMOOTH",
"1135 1238 OFFCURVE",
"1171 1276 OFFCURVE",
"1200 1343 CURVE",
"1174 1307 OFFCURVE",
"1146 1293 OFFCURVE",
"1121 1293 CURVE SMOOTH",
"1105 1293 OFFCURVE",
"1086 1300 OFFCURVE",
"1065 1318 CURVE SMOOTH",
"1032 1345 OFFCURVE",
"1009 1372 OFFCURVE",
"972 1421 CURVE SMOOTH",
"915 1498 OFFCURVE",
"858 1536 OFFCURVE",
"803 1536 CURVE SMOOTH",
"772 1536 OFFCURVE",
"741 1525 OFFCURVE",
"711 1501 CURVE SMOOTH",
"679 1475 OFFCURVE",
"636 1412 OFFCURVE",
"605 1370 CURVE SMOOTH",
"578 1334 OFFCURVE",
"545 1304 OFFCURVE",
"513 1304 CURVE SMOOTH",
"505 1304 OFFCURVE",
"497 1306 OFFCURVE",
"489 1310 CURVE SMOOTH",
"445 1331 OFFCURVE",
"418 1395 OFFCURVE",
"418 1469 CURVE SMOOTH",
"418 1533 OFFCURVE",
"437 1590 OFFCURVE",
"474 1623 CURVE SMOOTH",
"493 1642 OFFCURVE",
"521 1664 OFFCURVE",
"540 1683 CURVE SMOOTH",
"548 1690 OFFCURVE",
"557 1700 OFFCURVE",
"567 1712 CURVE SMOOTH",
"588 1736 OFFCURVE",
"605 1766 OFFCURVE",
"622 1806 CURVE",
"591 1759 OFFCURVE",
"562 1729 OFFCURVE",
"531 1729 CURVE SMOOTH",
"512 1729 OFFCURVE",
"493 1740 OFFCURVE",
"471 1765 CURVE SMOOTH",
"448 1791 OFFCURVE",
"427 1803 OFFCURVE",
"407 1803 CURVE SMOOTH",
"391 1803 OFFCURVE",
"377 1796 OFFCURVE",
"363 1782 CURVE SMOOTH",
"347 1766 OFFCURVE",
"328 1740 OFFCURVE",
"308 1703 CURVE SMOOTH",
"297 1683 OFFCURVE",
"277 1646 OFFCURVE",
"259 1617 CURVE SMOOTH",
"250 1602 OFFCURVE",
"243 1591 OFFCURVE",
"237 1584 CURVE SMOOTH",
"230 1577 OFFCURVE",
"222 1568 OFFCURVE",
"214 1558 CURVE SMOOTH",
"201 1543 OFFCURVE",
"188 1535 OFFCURVE",
"176 1535 CURVE SMOOTH",
"159 1535 OFFCURVE",
"144 1551 OFFCURVE",
"134 1586 CURVE SMOOTH",
"130 1597 OFFCURVE",
"129 1607 OFFCURVE",
"129 1618 CURVE SMOOTH",
"129 1636 OFFCURVE",
"134 1654 OFFCURVE",
"143 1671 CURVE SMOOTH",
"150 1684 OFFCURVE",
"163 1702 OFFCURVE",
"182 1725 CURVE SMOOTH",
"201 1748 OFFCURVE",
"213 1766 OFFCURVE",
"216 1777 CURVE SMOOTH",
"224 1803 OFFCURVE",
"252 1889 OFFCURVE",
"263 1909 CURVE SMOOTH",
"279 1941 OFFCURVE",
"294 1959 OFFCURVE",
"321 1956 CURVE",
"303 1979 OFFCURVE",
"285 1991 OFFCURVE",
"267 1991 CURVE SMOOTH",
"241 1991 OFFCURVE",
"216 1970 OFFCURVE",
"190 1928 CURVE SMOOTH",
"172 1899 OFFCURVE",
"160 1882 OFFCURVE",
"142 1862 CURVE SMOOTH",
"132 1851 OFFCURVE",
"124 1844 OFFCURVE",
"116 1841 CURVE SMOOTH",
"110 1838 OFFCURVE",
"104 1837 OFFCURVE",
"98 1837 CURVE SMOOTH",
"78 1837 OFFCURVE",
"60 1854 OFFCURVE",
"43 1900 CURVE SMOOTH",
"32 1929 OFFCURVE",
"29 1948 OFFCURVE",
"20 1964 CURVE SMOOTH",
"14 1973 OFFCURVE",
"10 1973 OFFCURVE",
"1 1974 CURVE",
"1 1952 OFFCURVE",
"0 1926 OFFCURVE",
"0 1897 CURVE SMOOTH",
"0 1840 OFFCURVE",
"1 1770 OFFCURVE",
"2 1689 CURVE SMOOTH",
"3 1566 OFFCURVE",
"3 1486 OFFCURVE",
"4 1451 CURVE SMOOTH",
"4 1014 OFFCURVE",
"2 -289 OFFCURVE",
"1 -490 CURVE",
"4 -492 OFFCURVE",
"7 -492 OFFCURVE",
"10 -492 CURVE"
);
}
);
width = 1200;
}
);
note = uniE0C0;
unicode = E0C0;
},
{
color = 2;
glyphname = uniE0C1;
lastChange = "2019-11-20 01:42:46 +0000";
layers = (
{
background = {
paths = (
{
closed = 1;
nodes = (
"40 -492 OFFCURVE",
"66 -463 OFFCURVE",
"88 -423 CURVE SMOOTH",
"101 -400 OFFCURVE",
"114 -376 OFFCURVE",
"126 -353 CURVE SMOOTH",
"147 -312 OFFCURVE",
"169 -283 OFFCURVE",
"187 -283 CURVE SMOOTH",
"189 -283 OFFCURVE",
"192 -284 OFFCURVE",
"195 -285 CURVE SMOOTH",
"205 -292 OFFCURVE",
"216 -295 OFFCURVE",
"227 -295 CURVE SMOOTH",
"235 -295 OFFCURVE",
"244 -293 OFFCURVE",
"251 -290 CURVE SMOOTH",
"260 -287 OFFCURVE",
"269 -282 OFFCURVE",
"279 -277 CURVE SMOOTH",
"294 -268 OFFCURVE",
"319 -248 OFFCURVE",
"334 -239 CURVE SMOOTH",
"344 -232 OFFCURVE",
"353 -227 OFFCURVE",
"360 -223 CURVE SMOOTH",
"361 -222 OFFCURVE",
"363 -222 OFFCURVE",
"364 -222 CURVE",
"399 -110 LINE",
"382 -101 OFFCURVE",
"352 -90 OFFCURVE",
"330 -76 CURVE SMOOTH",
"319 -69 OFFCURVE",
"309 -59 OFFCURVE",
"301 -47 CURVE SMOOTH",
"276 -13 OFFCURVE",
"260 4 OFFCURVE",
"240 4 CURVE SMOOTH",
"225 4 OFFCURVE",
"209 -5 OFFCURVE",
"191 -26 CURVE",
"190 21 OFFCURVE",
"195 56 OFFCURVE",
"207 79 CURVE SMOOTH",
"213 91 OFFCURVE",
"219 100 OFFCURVE",
"226 107 CURVE SMOOTH",
"236 115 OFFCURVE",
"245 119 OFFCURVE",
"255 119 CURVE SMOOTH",
"270 119 OFFCURVE",
"286 109 OFFCURVE",
"305 92 CURVE SMOOTH",
"320 79 OFFCURVE",
"335 65 OFFCURVE",
"348 51 CURVE SMOOTH",
"374 22 OFFCURVE",
"408 -6 OFFCURVE",
"432 -7 CURVE SMOOTH",
"503 -9 OFFCURVE",
"562 23 OFFCURVE",
"610 88 CURVE SMOOTH",
"612 91 OFFCURVE",
"615 94 OFFCURVE",
"617 97 CURVE SMOOTH",
"629 114 OFFCURVE",
"635 145 OFFCURVE",
"638 171 CURVE",
"638 180 OFFCURVE",
"639 196 OFFCURVE",
"639 199 CURVE",
"612 180 OFFCURVE",
"588 171 OFFCURVE",
"566 171 CURVE SMOOTH",
"556 171 OFFCURVE",
"547 172 OFFCURVE",
"538 176 CURVE SMOOTH",
"514 187 OFFCURVE",
"499 213 OFFCURVE",
"486 250 CURVE SMOOTH",
"483 259 OFFCURVE",
"479 272 OFFCURVE",
"474 287 CURVE SMOOTH",
"461 325 LINE",
"464 331 OFFCURVE",
"475 352 OFFCURVE",
"491 387 CURVE",
"493 388 OFFCURVE",
"494 388 OFFCURVE",
"496 388 CURVE SMOOTH",
"514 388 OFFCURVE",
"549 353 OFFCURVE",
"582 317 CURVE SMOOTH",
"605 292 OFFCURVE",
"622 275 OFFCURVE",
"633 264 CURVE SMOOTH",
"650 250 OFFCURVE",
"667 244 OFFCURVE",
"685 244 CURVE SMOOTH",
"691 244 OFFCURVE",
"697 245 OFFCURVE",
"704 246 CURVE SMOOTH",
"717 249 OFFCURVE",
"724 250 OFFCURVE",
"724 250 CURVE SMOOTH",
"738 250 OFFCURVE",
"763 266 OFFCURVE",
"783 284 CURVE SMOOTH",
"797 296 OFFCURVE",
"818 318 OFFCURVE",
"834 335 CURVE SMOOTH",
"849 351 OFFCURVE",
"873 379 OFFCURVE",
"888 396 CURVE SMOOTH",
"904 415 OFFCURVE",
"927 441 OFFCURVE",
"941 458 CURVE SMOOTH",
"944 461 LINE",
"951 488 LINE SMOOTH",
"955 506 OFFCURVE",
"960 524 OFFCURVE",
"964 542 CURVE SMOOTH",
"971 568 LINE",
"902 527 OFFCURVE",
"832 497 OFFCURVE",
"795 497 CURVE SMOOTH",
"786 497 OFFCURVE",
"779 498 OFFCURVE",
"774 502 CURVE",
"763 516 OFFCURVE",
"718 540 OFFCURVE",
"700 566 CURVE SMOOTH",
"679 597 OFFCURVE",
"646 656 OFFCURVE",
"621 692 CURVE SMOOTH",
"610 708 OFFCURVE",
"600 718 OFFCURVE",
"592 723 CURVE",
"608 745 OFFCURVE",
"629 750 OFFCURVE",
"651 755 CURVE SMOOTH",
"656 756 OFFCURVE",
"665 757 OFFCURVE",
"678 758 CURVE SMOOTH",
"690 759 OFFCURVE",
"699 760 OFFCURVE",
"704 761 CURVE SMOOTH",
"747 768 OFFCURVE",
"783 798 OFFCURVE",
"828 851 CURVE SMOOTH",
"838 863 OFFCURVE",
"846 903 OFFCURVE",
"850 927 CURVE SMOOTH",
"852 938 OFFCURVE",
"853 945 OFFCURVE",
"854 949 CURVE SMOOTH",
"854 953 OFFCURVE",
"854 956 OFFCURVE",
"854 958 CURVE",
"853 957 OFFCURVE",
"852 957 OFFCURVE",
"851 957 CURVE SMOOTH",
"841 953 OFFCURVE",
"831 951 OFFCURVE",
"822 951 CURVE SMOOTH",
"813 951 OFFCURVE",
"804 953 OFFCURVE",
"796 957 CURVE SMOOTH",
"782 964 OFFCURVE",
"755 972 OFFCURVE",
"734 984 CURVE SMOOTH",
"724 989 OFFCURVE",
"714 997 OFFCURVE",
"706 1006 CURVE",
"715 1019 OFFCURVE",
"735 1052 OFFCURVE",
"766 1104 CURVE SMOOTH",
"789 1142 OFFCURVE",
"819 1161 OFFCURVE",
"849 1161 CURVE SMOOTH",
"881 1161 OFFCURVE",
"922 1153 OFFCURVE",
"959 1142 CURVE SMOOTH",
"972 1138 OFFCURVE",
"987 1136 OFFCURVE",
"1001 1136 CURVE SMOOTH",
"1025 1136 OFFCURVE",
"1049 1141 OFFCURVE",
"1071 1151 CURVE SMOOTH",
"1107 1166 OFFCURVE",
"1148 1213 OFFCURVE",
"1182 1288 CURVE SMOOTH",
"1194 1315 OFFCURVE",
"1200 1336 OFFCURVE",
"1200 1349 CURVE SMOOTH",
"1200 1355 OFFCURVE",
"1200 1360 OFFCURVE",
"1196 1363 CURVE",
"1191 1364 OFFCURVE",
"1188 1365 OFFCURVE",
"1188 1365 CURVE",
"1168 1339 OFFCURVE",
"1147 1326 OFFCURVE",
"1125 1326 CURVE SMOOTH",
"1113 1326 OFFCURVE",
"1101 1329 OFFCURVE",
"1089 1336 CURVE SMOOTH",
"1053 1356 OFFCURVE",
"1021 1389 OFFCURVE",
"979 1446 CURVE SMOOTH",
"924 1518 OFFCURVE",
"870 1555 OFFCURVE",
"817 1557 CURVE SMOOTH",
"785 1558 OFFCURVE",
"753 1546 OFFCURVE",
"722 1522 CURVE SMOOTH",
"700 1506 OFFCURVE",
"676 1477 OFFCURVE",
"658 1453 CURVE SMOOTH",
"641 1428 OFFCURVE",
"618 1397 OFFCURVE",
"602 1377 CURVE SMOOTH",
"583 1355 OFFCURVE",
"557 1336 OFFCURVE",
"538 1336 CURVE SMOOTH",
"530 1336 OFFCURVE",
"522 1337 OFFCURVE",
"512 1341 CURVE SMOOTH",
"483 1354 OFFCURVE",
"461 1394 OFFCURVE",
"452 1436 CURVE SMOOTH",
"448 1451 OFFCURVE",
"446 1466 OFFCURVE",
"446 1482 CURVE SMOOTH",
"446 1487 OFFCURVE",
"447 1492 OFFCURVE",
"447 1497 CURVE SMOOTH",
"448 1502 OFFCURVE",
"448 1506 OFFCURVE",
"449 1510 CURVE",
"453 1517 OFFCURVE",
"459 1524 OFFCURVE",
"466 1530 CURVE SMOOTH",
"483 1546 OFFCURVE",
"510 1567 OFFCURVE",
"529 1585 CURVE SMOOTH",
"537 1592 OFFCURVE",
"547 1603 OFFCURVE",
"559 1616 CURVE SMOOTH",
"582 1643 OFFCURVE",
"604 1682 OFFCURVE",
"626 1735 CURVE SMOOTH",
"638 1763 OFFCURVE",
"643 1782 OFFCURVE",
"643 1794 CURVE SMOOTH",
"643 1800 OFFCURVE",
"642 1804 OFFCURVE",
"638 1806 CURVE",
"632 1805 OFFCURVE",
"629 1805 OFFCURVE",
"629 1805 CURVE",
"628 1804 OFFCURVE",
"627 1802 OFFCURVE",
"626 1800 CURVE SMOOTH",
"601 1764 OFFCURVE",
"577 1740 OFFCURVE",
"551 1740 CURVE SMOOTH",
"534 1740 OFFCURVE",
"516 1750 OFFCURVE",
"496 1774 CURVE SMOOTH",
"473 1799 OFFCURVE",
"453 1811 OFFCURVE",
"433 1811 CURVE SMOOTH",
"417 1811 OFFCURVE",
"401 1803 OFFCURVE",
"384 1788 CURVE SMOOTH",
"366 1770 OFFCURVE",
"345 1741 OFFCURVE",
"323 1701 CURVE SMOOTH",
"301 1665 OFFCURVE",
"276 1611 OFFCURVE",
"249 1582 CURVE SMOOTH",
"236 1567 OFFCURVE",
"222 1555 OFFCURVE",
"208 1555 CURVE SMOOTH",
"195 1555 OFFCURVE",
"182 1567 OFFCURVE",
"172 1601 CURVE SMOOTH",
"171 1604 OFFCURVE",
"170 1606 OFFCURVE",
"170 1609 CURVE",
"196 1636 OFFCURVE",
"219 1658 OFFCURVE",
"242 1726 CURVE SMOOTH",
"254 1761 OFFCURVE",
"269 1811 OFFCURVE",
"274 1826 CURVE SMOOTH",
"282 1844 OFFCURVE",
"293 1845 OFFCURVE",
"310 1845 CURVE SMOOTH",
"314 1845 LINE",
"352 1956 LINE",
"334 1979 OFFCURVE",
"316 1990 OFFCURVE",
"296 1990 CURVE SMOOTH",
"269 1990 OFFCURVE",
"241 1966 OFFCURVE",
"211 1919 CURVE SMOOTH",
"197 1896 OFFCURVE",
"168 1852 OFFCURVE",
"149 1846 CURVE SMOOTH",
"144 1844 OFFCURVE",
"139 1843 OFFCURVE",
"134 1843 CURVE SMOOTH",
"116 1843 OFFCURVE",
"101 1857 OFFCURVE",
"84 1901 CURVE SMOOTH",
"75 1927 OFFCURVE",
"70 1948 OFFCURVE",
"61 1963 CURVE SMOOTH",
"55 1974 OFFCURVE",
"51 1974 OFFCURVE",
"41 1975 CURVE SMOOTH",
"33 1975 OFFCURVE",
"18 1945 OFFCURVE",
"10 1920 CURVE SMOOTH",
"7 1911 OFFCURVE",
"5 1903 OFFCURVE",
"4 1896 CURVE SMOOTH",
"2 1886 OFFCURVE",
"0 1878 OFFCURVE",
"0 1872 CURVE SMOOTH",
"0 1866 OFFCURVE",
"2 1862 OFFCURVE",
"5 1862 CURVE SMOOTH",
"15 1862 OFFCURVE",
"21 1860 OFFCURVE",
"26 1845 CURVE SMOOTH",
"27 1840 OFFCURVE",
"36 1814 OFFCURVE",
"42 1795 CURVE",
"59 1751 OFFCURVE",
"80 1731 OFFCURVE",
"99 1731 CURVE SMOOTH",
"110 1731 OFFCURVE",
"122 1737 OFFCURVE",
"135 1749 CURVE SMOOTH",
"159 1770 OFFCURVE",
"176 1793 OFFCURVE",
"199 1830 CURVE SMOOTH",
"220 1862 OFFCURVE",
"240 1878 OFFCURVE",
"262 1878 CURVE SMOOTH",
"264 1878 OFFCURVE",
"266 1877 OFFCURVE",
"269 1877 CURVE",
"253 1842 OFFCURVE",
"234 1778 OFFCURVE",
"224 1753 CURVE",
"204 1722 OFFCURVE",
"186 1712 OFFCURVE",
"163 1668 CURVE SMOOTH",
"158 1659 OFFCURVE",
"153 1650 OFFCURVE",
"149 1639 CURVE SMOOTH",
"133 1599 OFFCURVE",
"125 1564 OFFCURVE",
"125 1534 CURVE SMOOTH",
"125 1520 OFFCURVE",
"126 1508 OFFCURVE",
"130 1496 CURVE SMOOTH",
"140 1459 OFFCURVE",
"155 1446 OFFCURVE",
"171 1446 CURVE SMOOTH",
"182 1446 OFFCURVE",
"194 1452 OFFCURVE",
"206 1461 CURVE SMOOTH",
"219 1471 OFFCURVE",
"239 1496 OFFCURVE",
"251 1512 CURVE SMOOTH",
"262 1527 OFFCURVE",
"279 1554 OFFCURVE",
"299 1591 CURVE SMOOTH",
"315 1619 LINE SMOOTH",
"344 1670 OFFCURVE",
"369 1700 OFFCURVE",
"397 1700 CURVE SMOOTH",
"415 1700 OFFCURVE",
"434 1689 OFFCURVE",
"456 1664 CURVE SMOOTH",
"467 1651 OFFCURVE",
"478 1641 OFFCURVE",
"489 1635 CURVE",
"476 1622 OFFCURVE",
"464 1606 OFFCURVE",
"453 1586 CURVE SMOOTH",
"444 1569 OFFCURVE",
"435 1549 OFFCURVE",
"427 1527 CURVE SMOOTH",
"410 1479 OFFCURVE",
"402 1434 OFFCURVE",
"402 1390 CURVE SMOOTH",
"402 1310 OFFCURVE",
"430 1249 OFFCURVE",
"475 1229 CURVE SMOOTH",
"482 1225 OFFCURVE",
"490 1223 OFFCURVE",
"498 1223 CURVE SMOOTH",
"518 1223 OFFCURVE",
"539 1235 OFFCURVE",
"556 1249 CURVE SMOOTH",
"568 1259 OFFCURVE",
"580 1272 OFFCURVE",
"594 1289 CURVE SMOOTH",
"614 1313 OFFCURVE",
"646 1360 OFFCURVE",
"663 1381 CURVE SMOOTH",
"675 1396 OFFCURVE",
"685 1406 OFFCURVE",
"693 1413 CURVE SMOOTH",
"721 1434 OFFCURVE",
"749 1445 OFFCURVE",
"778 1445 CURVE SMOOTH",
"830 1445 OFFCURVE",
"884 1409 OFFCURVE",
"939 1336 CURVE SMOOTH",
"959 1310 OFFCURVE",
"975 1289 OFFCURVE",
"989 1274 CURVE",
"986 1276 OFFCURVE",
"979 1277 OFFCURVE",
"976 1278 CURVE SMOOTH",
"948 1286 OFFCURVE",
"940 1287 OFFCURVE",
"913 1290 CURVE SMOOTH",
"900 1291 OFFCURVE",
"889 1290 OFFCURVE",
"879 1287 CURVE SMOOTH",
"861 1280 OFFCURVE",
"834 1268 OFFCURVE",
"811 1240 CURVE SMOOTH",
"799 1226 OFFCURVE",
"787 1209 OFFCURVE",
"776 1189 CURVE SMOOTH",
"765 1172 OFFCURVE",
"750 1144 OFFCURVE",
"740 1128 CURVE SMOOTH",
"726 1107 LINE SMOOTH",
"713 1088 OFFCURVE",
"692 1066 OFFCURVE",
"673 1054 CURVE",
"662 1032 LINE SMOOTH",
"655 1018 OFFCURVE",
"648 1002 OFFCURVE",
"642 984 CURVE SMOOTH",
"638 972 OFFCURVE",
"636 962 OFFCURVE",
"636 955 CURVE SMOOTH",
"636 951 OFFCURVE",
"637 948 OFFCURVE",
"638 945 CURVE SMOOTH",
"644 931 LINE SMOOTH",
"657 904 OFFCURVE",
"675 883 OFFCURVE",
"700 870 CURVE",
"688 869 OFFCURVE",
"665 867 OFFCURVE",
"655 861 CURVE SMOOTH",
"640 852 LINE SMOOTH",
"632 848 OFFCURVE",
"627 843 OFFCURVE",
"623 838 CURVE SMOOTH",
"591 798 OFFCURVE",
"577 778 OFFCURVE",
"549 700 CURVE SMOOTH",
"540 676 LINE SMOOTH",
"534 660 OFFCURVE",
"529 646 OFFCURVE",
"526 633 CURVE SMOOTH",
"525 626 OFFCURVE",
"524 620 OFFCURVE",
"524 616 CURVE SMOOTH",
"524 610 OFFCURVE",
"525 607 OFFCURVE",
"529 607 CURVE SMOOTH",
"530 607 OFFCURVE",
"531 607 OFFCURVE",
"532 608 CURVE SMOOTH",
"546 613 LINE SMOOTH",
"557 617 OFFCURVE",
"585 575 OFFCURVE",
"616 525 CURVE SMOOTH",
"637 492 OFFCURVE",
"651 470 OFFCURVE",
"660 457 CURVE SMOOTH",
"675 435 OFFCURVE",
"697 415 OFFCURVE",
"711 407 CURVE SMOOTH",
"725 398 LINE SMOOTH",
"730 395 OFFCURVE",
"733 392 OFFCURVE",
"735 391 CURVE SMOOTH",
"742 387 OFFCURVE",
"750 384 OFFCURVE",
"760 384 CURVE SMOOTH",
"774 384 OFFCURVE",
"791 388 OFFCURVE",
"812 395 CURVE",
"788 373 OFFCURVE",
"770 362 OFFCURVE",
"759 362 CURVE SMOOTH",
"743 362 OFFCURVE",
"730 357 OFFCURVE",
"715 357 CURVE SMOOTH",
"703 357 OFFCURVE",
"689 361 OFFCURVE",
"673 375 CURVE SMOOTH",
"657 388 OFFCURVE",
"634 417 OFFCURVE",
"617 439 CURVE SMOOTH",
"608 450 OFFCURVE",
"599 460 OFFCURVE",
"589 471 CURVE SMOOTH",
"572 489 OFFCURVE",
"555 503 OFFCURVE",
"538 503 CURVE SMOOTH",
"529 503 OFFCURVE",
"519 498 OFFCURVE",
"510 487 CURVE SMOOTH",
"505 481 OFFCURVE",
"500 473 OFFCURVE",
"495 462 CURVE SMOOTH",
"485 441 OFFCURVE",
"471 407 OFFCURVE",
"462 394 CURVE SMOOTH",
"458 389 OFFCURVE",
"455 385 OFFCURVE",
"452 382 CURVE SMOOTH",
"448 379 OFFCURVE",
"443 375 OFFCURVE",
"435 368 CURVE",
"423 347 LINE SMOOTH",
"416 332 OFFCURVE",
"409 316 OFFCURVE",
"403 298 CURVE SMOOTH",
"400 287 OFFCURVE",
"398 278 OFFCURVE",
"398 271 CURVE SMOOTH",
"398 267 OFFCURVE",
"399 263 OFFCURVE",
"400 260 CURVE SMOOTH",
"407 247 LINE SMOOTH",
"413 232 OFFCURVE",
"422 209 OFFCURVE",
"433 176 CURVE SMOOTH",
"444 143 OFFCURVE",
"453 120 OFFCURVE",
"460 106 CURVE",
"442 111 OFFCURVE",
"417 134 OFFCURVE",
"397 159 CURVE SMOOTH",
"387 171 OFFCURVE",
"375 183 OFFCURVE",
"363 195 CURVE SMOOTH",
"339 217 OFFCURVE",
"320 234 OFFCURVE",
"295 234 CURVE SMOOTH",
"280 234 OFFCURVE",
"265 227 OFFCURVE",
"252 214 CURVE SMOOTH",
"236 199 OFFCURVE",
"221 176 OFFCURVE",
"206 144 CURVE SMOOTH",
"166 63 OFFCURVE",
"145 -38 OFFCURVE",
"147 -119 CURVE SMOOTH",
"147 -137 LINE SMOOTH",
"147 -144 OFFCURVE",
"149 -147 OFFCURVE",
"152 -147 CURVE SMOOTH",
"154 -147 OFFCURVE",
"157 -145 OFFCURVE",
"160 -140 CURVE SMOOTH",
"175 -119 OFFCURVE",
"189 -109 OFFCURVE",
"202 -109 CURVE SMOOTH",
"219 -109 OFFCURVE",
"237 -124 OFFCURVE",
"260 -156 CURVE SMOOTH",
"266 -165 OFFCURVE",
"273 -173 OFFCURVE",
"281 -179 CURVE",
"274 -181 OFFCURVE",
"268 -182 OFFCURVE",
"262 -182 CURVE SMOOTH",
"251 -182 OFFCURVE",
"242 -179 OFFCURVE",
"233 -174 CURVE SMOOTH",
"228 -171 OFFCURVE",
"223 -170 OFFCURVE",
"218 -170 CURVE SMOOTH",
"195 -170 OFFCURVE",
"169 -196 OFFCURVE",
"148 -233 CURVE SMOOTH",
"135 -256 OFFCURVE",
"122 -279 OFFCURVE",
"110 -303 CURVE SMOOTH",
"87 -345 OFFCURVE",
"64 -378 OFFCURVE",
"47 -378 CURVE SMOOTH",
"45 -378 OFFCURVE",
"43 -378 OFFCURVE",
"42 -377 CURVE SMOOTH",
"36 -374 OFFCURVE",
"22 -397 OFFCURVE",
"11 -428 CURVE SMOOTH",
"9 -435 OFFCURVE",
"7 -443 OFFCURVE",
"5 -451 CURVE SMOOTH",
"2 -463 OFFCURVE",
"0 -472 OFFCURVE",
"0 -478 CURVE SMOOTH",
"0 -484 OFFCURVE",
"2 -488 OFFCURVE",
"4 -489 CURVE SMOOTH",
"8 -491 OFFCURVE",
"12 -492 OFFCURVE",
"16 -492 CURVE SMOOTH"
);
}
);
};
layerId = "F8C3375C-B372-4BAE-A3FB-5A8DC7FA7AB9";
paths = (
{
closed = 1;
nodes = (
"16 -492 LINE",
"84 -492 OFFCURVE",
"135 -283 OFFCURVE",
"187 -283 CURVE SMOOTH",
"196 -283 OFFCURVE",
"207 -295 OFFCURVE",
"227 -295 CURVE SMOOTH",
"276 -295 OFFCURVE",
"339 -225 OFFCURVE",
"364 -222 CURVE",
"399 -110 LINE",
"360 -90 OFFCURVE",
"328 -85 OFFCURVE",
"301 -47 CURVE SMOOTH",
"288 -29 OFFCURVE",
"265 4 OFFCURVE",
"240 4 CURVE SMOOTH",
"220 4 OFFCURVE",
"203 -12 OFFCURVE",
"191 -26 CURVE",
"191 -15 LINE SMOOTH",
"191 24 OFFCURVE",
"200 119 OFFCURVE",
"255 119 CURVE SMOOTH",
"310 119 OFFCURVE",
"372 -7 OFFCURVE",
"438 -7 CURVE SMOOTH",
"516 -7 OFFCURVE",
"573 35 OFFCURVE",
"617 97 CURVE SMOOTH",
"636 124 OFFCURVE",
"637 168 OFFCURVE",
"639 199 CURVE",
"618 184 OFFCURVE",
"593 171 OFFCURVE",
"566 171 CURVE SMOOTH",
"495 171 OFFCURVE",
"479 273 OFFCURVE",
"461 325 CURVE",
"471 346 OFFCURVE",
"481 366 OFFCURVE",
"491 387 CURVE",
"493 387 OFFCURVE",
"494 388 OFFCURVE",
"496 388 CURVE SMOOTH",
"544 388 OFFCURVE",
"613 244 OFFCURVE",
"685 244 CURVE SMOOTH",
"796 244 OFFCURVE",
"871 394 OFFCURVE",
"944 461 CURVE",
"953 497 OFFCURVE",
"961 533 OFFCURVE",
"971 568 CURVE",
"930 544 OFFCURVE",
"843 497 OFFCURVE",
"795 497 CURVE SMOOTH",
"788 497 OFFCURVE",
"780 497 OFFCURVE",
"774 502 CURVE SMOOTH",
"750 521 OFFCURVE",
"717 541 OFFCURVE",
"700 566 CURVE SMOOTH",
"675 601 OFFCURVE",
"623 704 OFFCURVE",
"592 723 CURVE",
"619 760 OFFCURVE",
"665 754 OFFCURVE",
"704 761 CURVE SMOOTH",
"755 770 OFFCURVE",
"796 812 OFFCURVE",
"828 851 CURVE SMOOTH",
"839 865 OFFCURVE",
"855 939 OFFCURVE",
"854 958 CURVE",
"843 955 OFFCURVE",
"834 951 OFFCURVE",
"822 951 CURVE SMOOTH",
"795 951 OFFCURVE",
"724 986 OFFCURVE",
"706 1006 CURVE",
"741 1056 OFFCURVE",
"779 1161 OFFCURVE",
"849 1161 CURVE SMOOTH",
"902 1161 OFFCURVE",
"950 1136 OFFCURVE",
"1001 1136 CURVE SMOOTH",
"1097 1136 OFFCURVE",
"1146 1208 OFFCURVE",
"1182 1288 CURVE SMOOTH",
"1190 1305 OFFCURVE",
"1200 1330 OFFCURVE",
"1200 1349 CURVE SMOOTH",
"1200 1354 OFFCURVE",
"1200 1360 OFFCURVE",
"1196 1363 CURVE",
"1188 1365 LINE",
"1173 1345 OFFCURVE",
"1152 1326 OFFCURVE",
"1125 1326 CURVE SMOOTH",
"1019 1326 OFFCURVE",
"955 1557 OFFCURVE",
"813 1557 CURVE SMOOTH",
"673 1557 OFFCURVE",
"620 1336 OFFCURVE",
"538 1336 CURVE SMOOTH",
"473 1336 OFFCURVE",
"446 1430 OFFCURVE",
"446 1482 CURVE SMOOTH",
"446 1487 OFFCURVE",
"447 1506 OFFCURVE",
"449 1510 CURVE SMOOTH",
"455 1524 OFFCURVE",
"540 1595 OFFCURVE",
"559 1616 CURVE SMOOTH",
"588 1648 OFFCURVE",
"609 1696 OFFCURVE",
"626 1735 CURVE SMOOTH",
"633 1752 OFFCURVE",
"643 1775 OFFCURVE",
"643 1794 CURVE SMOOTH",
"643 1798 OFFCURVE",
"643 1804 OFFCURVE",
"638 1806 CURVE",
"629 1805 LINE",
"616 1781 OFFCURVE",
"582 1740 OFFCURVE",
"551 1740 CURVE SMOOTH",
"504 1740 OFFCURVE",
"486 1811 OFFCURVE",
"433 1811 CURVE SMOOTH",
"341 1811 OFFCURVE",
"279 1555 OFFCURVE",
"208 1555 CURVE SMOOTH",
"186 1555 OFFCURVE",
"173 1592 OFFCURVE",
"170 1609 CURVE",
"208 1649 OFFCURVE",
"224 1673 OFFCURVE",
"242 1726 CURVE SMOOTH",
"253 1758 OFFCURVE",
"260 1796 OFFCURVE",
"274 1826 CURVE SMOOTH",
"283 1845 OFFCURVE",
"295 1845 OFFCURVE",
"314 1845 CURVE",
"352 1956 LINE",
"338 1974 OFFCURVE",
"320 1990 OFFCURVE",
"296 1990 CURVE SMOOTH",
"224 1990 OFFCURVE",
"192 1843 OFFCURVE",
"134 1843 CURVE SMOOTH",
"77 1843 OFFCURVE",
"83 1975 OFFCURVE",
"41 1975 CURVE SMOOTH",
"23 1975 OFFCURVE",
"0 1889 OFFCURVE",
"0 1872 CURVE SMOOTH",
"0 1868 OFFCURVE",
"2 1864 OFFCURVE",
"5 1862 CURVE",
"40 1863 OFFCURVE",
"39 1731 OFFCURVE",
"99 1731 CURVE SMOOTH",
"162 1731 OFFCURVE",
"200 1878 OFFCURVE",
"262 1878 CURVE SMOOTH",
"264 1878 OFFCURVE",
"267 1877 OFFCURVE",
"269 1877 CURVE",
"251 1838 OFFCURVE",
"243 1789 OFFCURVE",
"224 1753 CURVE SMOOTH",
"208 1723 OFFCURVE",
"180 1699 OFFCURVE",
"163 1668 CURVE SMOOTH",
"142 1629 OFFCURVE",
"125 1579 OFFCURVE",
"125 1534 CURVE SMOOTH",
"125 1508 OFFCURVE",
"136 1446 OFFCURVE",
"171 1446 CURVE SMOOTH",
"256 1446 OFFCURVE",
"322 1700 OFFCURVE",
"397 1700 CURVE SMOOTH",
"437 1700 OFFCURVE",
"457 1652 OFFCURVE",
"489 1635 CURVE",
"433 1579 OFFCURVE",
"402 1467 OFFCURVE",
"402 1390 CURVE SMOOTH",
"402 1336 OFFCURVE",
"426 1223 OFFCURVE",
"498 1223 CURVE SMOOTH",
"603 1223 OFFCURVE",
"643 1445 OFFCURVE",
"778 1445 CURVE SMOOTH",
"876 1445 OFFCURVE",
"931 1336 OFFCURVE",
"989 1274 CURVE",
"973 1282 OFFCURVE",
"923 1290 OFFCURVE",
"904 1290 CURVE SMOOTH",
"791 1290 OFFCURVE",
"759 1108 OFFCURVE",
"673 1054 CURVE",
"661 1029 OFFCURVE",
"636 982 OFFCURVE",
"636 955 CURVE SMOOTH",
"636 926 OFFCURVE",
"675 883 OFFCURVE",
"700 870 CURVE",
"608 862 OFFCURVE",
"578 777 OFFCURVE",
"549 700 CURVE SMOOTH",
"541 678 OFFCURVE",
"524 639 OFFCURVE",
"524 616 CURVE SMOOTH",
"524 613 OFFCURVE",
"524 607 OFFCURVE",
"529 607 CURVE SMOOTH",
"535 607 OFFCURVE",
"541 613 OFFCURVE",
"547 613 CURVE SMOOTH",
"566 613 OFFCURVE",
"643 481 OFFCURVE",
"660 457 CURVE SMOOTH",
"679 430 OFFCURVE",
"698 415 OFFCURVE",
"725 398 CURVE SMOOTH",
"737 390 OFFCURVE",
"744 384 OFFCURVE",
"760 384 CURVE SMOOTH",
"778 384 OFFCURVE",
"795 389 OFFCURVE",
"812 395 CURVE",
"781 366 OFFCURVE",
"758 357 OFFCURVE",
"715 357 CURVE SMOOTH",
"650 357 OFFCURVE",
"595 503 OFFCURVE",
"538 503 CURVE SMOOTH",
"499 503 OFFCURVE",
"482 420 OFFCURVE",
"462 394 CURVE SMOOTH",
"455 384 OFFCURVE",
"441 377 OFFCURVE",
"435 368 CURVE SMOOTH",
"421 347 OFFCURVE",
"398 296 OFFCURVE",
"398 271 CURVE SMOOTH",
"398 267 OFFCURVE",
"455 117 OFFCURVE",
"460 106 CURVE",
"404 122 OFFCURVE",
"360 234 OFFCURVE",
"295 234 CURVE SMOOTH",
"252 234 OFFCURVE",
"222 177 OFFCURVE",
"206 144 CURVE SMOOTH",
"169 67 OFFCURVE",
"147 -22 OFFCURVE",
"147 -108 CURVE SMOOTH",
"147 -117 OFFCURVE",
"145 -143 OFFCURVE",
"152 -147 CURVE",
"162 -143 OFFCURVE",
"176 -109 OFFCURVE",
"202 -109 CURVE SMOOTH",
"236 -109 OFFCURVE",
"257 -161 OFFCURVE",
"281 -179 CURVE",
"275 -181 OFFCURVE",
"268 -182 OFFCURVE",
"262 -182 CURVE SMOOTH",
"243 -182 OFFCURVE",
"232 -170 OFFCURVE",
"218 -170 CURVE SMOOTH",
"143 -170 OFFCURVE",
"107 -377 OFFCURVE",
"41 -377 CURVE SMOOTH",
"24 -377 OFFCURVE",
"0 -462 OFFCURVE",
"0 -478 CURVE SMOOTH",
"0 -482 OFFCURVE",
"2 -486 OFFCURVE",
"4 -489 CURVE",
"8 -491 OFFCURVE",
"12 -492 OFFCURVE",
"16 -492 CURVE"
);
}
);
width = 1200;
}
);
note = uniE0C1;
unicode = E0C1;
},
{
color = 2;
glyphname = uniE0C2;
lastChange = "2019-11-20 01:42:46 +0000";
layers = (
{
layerId = "F8C3375C-B372-4BAE-A3FB-5A8DC7FA7AB9";
paths = (
{
closed = 1;
nodes = (
"1199 1689 LINE",
"1200 1774 OFFCURVE",
"1200 1845 OFFCURVE",
"1200 1904 CURVE SMOOTH",
"1200 1930 OFFCURVE",
"1200 1953 OFFCURVE",
"1200 1974 CURVE",
"1189 1972 OFFCURVE",
"1182 1970 OFFCURVE",
"1178 1959 CURVE SMOOTH",
"1174 1949 OFFCURVE",
"1164 1920 OFFCURVE",
"1158 1900 CURVE",
"1140 1854 OFFCURVE",
"1122 1837 OFFCURVE",
"1102 1837 CURVE SMOOTH",
"1096 1837 OFFCURVE",
"1091 1838 OFFCURVE",
"1085 1841 CURVE SMOOTH",
"1068 1848 OFFCURVE",
"1048 1872 OFFCURVE",
"1034 1892 CURVE SMOOTH",
"1027 1901 OFFCURVE",
"1019 1913 OFFCURVE",
"1010 1928 CURVE SMOOTH",
"984 1970 OFFCURVE",
"959 1991 OFFCURVE",
"934 1991 CURVE SMOOTH",
"915 1991 OFFCURVE",
"897 1979 OFFCURVE",
"879 1956 CURVE",
"899 1959 OFFCURVE",
"915 1946 OFFCURVE",
"929 1927 CURVE SMOOTH",
"942 1908 OFFCURVE",
"959 1854 OFFCURVE",
"970 1821 CURVE",
"970 1823 OFFCURVE",
"974 1808 OFFCURVE",
"984 1777 CURVE SMOOTH",
"988 1766 OFFCURVE",
"999 1748 OFFCURVE",
"1018 1725 CURVE SMOOTH",
"1038 1702 OFFCURVE",
"1051 1684 OFFCURVE",
"1057 1671 CURVE SMOOTH",
"1066 1654 OFFCURVE",
"1071 1636 OFFCURVE",
"1071 1617 CURVE SMOOTH",
"1071 1607 OFFCURVE",
"1070 1597 OFFCURVE",
"1067 1586 CURVE SMOOTH",
"1055 1548 OFFCURVE",
"1042 1536 OFFCURVE",
"1026 1536 CURVE SMOOTH",
"1021 1536 OFFCURVE",
"1016 1538 OFFCURVE",
"1010 1540 CURVE SMOOTH",
"1003 1542 OFFCURVE",
"995 1548 OFFCURVE",
"986 1558 CURVE SMOOTH",
"964 1584 LINE SMOOTH",
"946 1605 OFFCURVE",
"903 1684 OFFCURVE",
"892 1703 CURVE SMOOTH",
"854 1772 OFFCURVE",
"826 1803 OFFCURVE",
"793 1803 CURVE SMOOTH",
"773 1803 OFFCURVE",
"752 1791 OFFCURVE",
"730 1765 CURVE SMOOTH",
"708 1740 OFFCURVE",
"688 1729 OFFCURVE",
"669 1729 CURVE SMOOTH",
"638 1729 OFFCURVE",
"610 1759 OFFCURVE",
"578 1806 CURVE",
"595 1766 OFFCURVE",
"612 1736 OFFCURVE",
"633 1712 CURVE SMOOTH",
"643 1700 OFFCURVE",
"652 1690 OFFCURVE",
"660 1683 CURVE SMOOTH",
"668 1676 OFFCURVE",
"679 1666 OFFCURVE",
"693 1654 CURVE SMOOTH",
"707 1641 OFFCURVE",
"719 1631 OFFCURVE",
"726 1623 CURVE",
"763 1590 OFFCURVE",
"783 1533 OFFCURVE",
"783 1470 CURVE SMOOTH",
"783 1396 OFFCURVE",
"755 1331 OFFCURVE",
"711 1310 CURVE SMOOTH",
"703 1306 OFFCURVE",
"695 1304 OFFCURVE",
"687 1304 CURVE SMOOTH",
"656 1304 OFFCURVE",
"622 1334 OFFCURVE",
"596 1370 CURVE SMOOTH",
"564 1412 OFFCURVE",
"522 1475 OFFCURVE",
"489 1501 CURVE SMOOTH",
"459 1525 OFFCURVE",
"429 1536 OFFCURVE",
"398 1536 CURVE SMOOTH",
"342 1536 OFFCURVE",
"286 1498 OFFCURVE",
"228 1421 CURVE SMOOTH",
"191 1372 OFFCURVE",
"169 1345 OFFCURVE",
"136 1318 CURVE SMOOTH",
"115 1300 OFFCURVE",
"95 1293 OFFCURVE",
"79 1293 CURVE SMOOTH",
"54 1293 OFFCURVE",
"26 1307 OFFCURVE",
"0 1343 CURVE",
"34 1267 OFFCURVE",
"75 1230 OFFCURVE",
"115 1226 CURVE",
"119 1225 OFFCURVE",
"125 1225 OFFCURVE",
"130 1225 CURVE SMOOTH",
"165 1225 OFFCURVE",
"201 1236 OFFCURVE",
"238 1246 CURVE SMOOTH",
"259 1251 OFFCURVE",
"278 1255 OFFCURVE",
"297 1255 CURVE SMOOTH",
"319 1255 OFFCURVE",
"340 1250 OFFCURVE",
"364 1235 CURVE SMOOTH",
"385 1220 OFFCURVE",
"405 1197 OFFCURVE",
"423 1165 CURVE SMOOTH",
"434 1148 OFFCURVE",
"468 1088 OFFCURVE",
"479 1073 CURVE SMOOTH",
"499 1046 OFFCURVE",
"515 1026 OFFCURVE",
"539 1010 CURVE",
"533 995 LINE SMOOTH",
"516 957 OFFCURVE",
"488 938 OFFCURVE",
"464 927 CURVE SMOOTH",
"456 924 OFFCURVE",
"448 920 OFFCURVE",
"439 917 CURVE SMOOTH",
"429 914 OFFCURVE",
"422 911 OFFCURVE",
"418 908 CURVE",
"408 903 OFFCURVE",
"399 901 OFFCURVE",
"388 901 CURVE SMOOTH",
"377 901 OFFCURVE",
"365 903 OFFCURVE",
"353 909 CURVE",
"399 854 OFFCURVE",
"431 827 OFFCURVE",
"475 820 CURVE SMOOTH",
"491 818 OFFCURVE",
"514 817 OFFCURVE",
"529 815 CURVE SMOOTH",
"541 813 OFFCURVE",
"564 808 OFFCURVE",
"577 797 CURVE SMOOTH",
"590 785 OFFCURVE",
"607 768 OFFCURVE",
"622 738 CURVE SMOOTH",
"630 723 OFFCURVE",
"637 705 OFFCURVE",
"644 684 CURVE SMOOTH",
"654 659 LINE",
"640 664 LINE SMOOTH",
"624 671 OFFCURVE",
"595 628 OFFCURVE",
"562 572 CURVE SMOOTH",
"541 537 OFFCURVE",
"526 513 OFFCURVE",
"518 500 CURVE SMOOTH",
"510 489 OFFCURVE",
"442 435 OFFCURVE",
"440 431 CURVE",
"434 427 OFFCURVE",
"426 425 OFFCURVE",
"416 425 CURVE SMOOTH",
"376 425 OFFCURVE",
"305 457 OFFCURVE",
"232 501 CURVE",
"295 428 LINE SMOOTH",
"310 410 OFFCURVE",
"342 374 OFFCURVE",
"358 358 CURVE SMOOTH",
"388 326 OFFCURVE",
"431 284 OFFCURVE",
"454 284 CURVE SMOOTH",
"461 284 OFFCURVE",
"478 278 OFFCURVE",
"496 278 CURVE SMOOTH",
"501 278 OFFCURVE",
"506 279 OFFCURVE",
"512 280 CURVE SMOOTH",
"523 283 OFFCURVE",
"534 289 OFFCURVE",
"546 299 CURVE SMOOTH",
"563 314 OFFCURVE",
"589 344 OFFCURVE",
"609 366 CURVE SMOOTH",
"618 377 OFFCURVE",
"628 387 OFFCURVE",
"639 398 CURVE SMOOTH",
"656 414 OFFCURVE",
"674 429 OFFCURVE",
"689 429 CURVE SMOOTH",
"697 429 OFFCURVE",
"704 425 OFFCURVE",
"709 414 CURVE SMOOTH",
"725 380 OFFCURVE",
"735 356 OFFCURVE",
"750 332 CURVE SMOOTH",
"761 315 OFFCURVE",
"770 305 OFFCURVE",
"786 292 CURVE",
"780 278 LINE SMOOTH",
"766 250 OFFCURVE",
"749 197 OFFCURVE",
"739 166 CURVE SMOOTH",
"729 134 OFFCURVE",
"709 101 OFFCURVE",
"684 90 CURVE SMOOTH",
"674 86 OFFCURVE",
"664 83 OFFCURVE",
"653 83 CURVE SMOOTH",
"630 83 OFFCURVE",
"604 94 OFFCURVE",
"576 115 CURVE",
"622 45 OFFCURVE",
"692 15 OFFCURVE",
"752 15 CURVE SMOOTH",
"773 15 OFFCURVE",
"803 35 OFFCURVE",
"826 62 CURVE SMOOTH",
"837 75 OFFCURVE",
"850 88 OFFCURVE",
"863 101 CURVE SMOOTH",
"891 129 OFFCURVE",
"912 149 OFFCURVE",
"941 149 CURVE SMOOTH",
"953 149 OFFCURVE",
"965 143 OFFCURVE",
"975 132 CURVE SMOOTH",
"1012 96 OFFCURVE",
"1050 -2 OFFCURVE",
"1048 -113 CURVE SMOOTH",
"1048 -132 LINE",
"1027 -104 OFFCURVE",
"1010 -91 OFFCURVE",
"994 -91 CURVE SMOOTH",
"975 -91 OFFCURVE",
"956 -110 OFFCURVE",
"932 -143 CURVE SMOOTH",
"913 -170 OFFCURVE",
"892 -183 OFFCURVE",
"862 -195 CURVE SMOOTH",
"847 -201 OFFCURVE",
"836 -206 OFFCURVE",
"829 -210 CURVE",
"846 -218 OFFCURVE",
"870 -234 OFFCURVE",
"887 -247 CURVE SMOOTH",
"896 -254 OFFCURVE",
"905 -260 OFFCURVE",
"916 -267 CURVE SMOOTH",
"936 -279 OFFCURVE",
"951 -287 OFFCURVE",
"970 -287 CURVE SMOOTH",
"981 -287 OFFCURVE",
"992 -283 OFFCURVE",
"1001 -277 CURVE SMOOTH",
"1005 -275 OFFCURVE",
"1009 -274 OFFCURVE",
"1013 -274 CURVE SMOOTH",
"1034 -274 OFFCURVE",
"1059 -304 OFFCURVE",
"1081 -344 CURVE SMOOTH",
"1095 -368 OFFCURVE",
"1108 -392 OFFCURVE",
"1121 -417 CURVE SMOOTH",
"1144 -459 OFFCURVE",
"1169 -492 OFFCURVE",
"1190 -492 CURVE SMOOTH",
"1193 -492 OFFCURVE",
"1196 -492 OFFCURVE",
"1199 -490 CURVE",
"1198 -289 OFFCURVE",
"1197 1014 OFFCURVE",
"1197 1451 CURVE SMOOTH",
"1197 1486 OFFCURVE",
"1198 1566 OFFCURVE",
"1199 1689 CURVE"
);
}
);
width = 1200;
}
);
note = uniE0C2;
unicode = E0C2;
},
{
color = 2;
glyphname = uniE0C3;
lastChange = "2019-11-20 01:42:46 +0000";
layers = (
{
layerId = "F8C3375C-B372-4BAE-A3FB-5A8DC7FA7AB9";
paths = (
{
closed = 1;
nodes = (
"1185 -492 LINE",
"1189 -492 OFFCURVE",
"1193 -491 OFFCURVE",
"1197 -489 CURVE",
"1199 -486 OFFCURVE",
"1200 -482 OFFCURVE",
"1200 -478 CURVE SMOOTH",
"1200 -454 OFFCURVE",
"1181 -378 OFFCURVE",
"1154 -378 CURVE SMOOTH",
"1106 -378 OFFCURVE",
"1052 -170 OFFCURVE",
"983 -170 CURVE SMOOTH",
"969 -170 OFFCURVE",
"957 -182 OFFCURVE",
"939 -182 CURVE SMOOTH",
"933 -182 OFFCURVE",
"926 -181 OFFCURVE",
"920 -179 CURVE",
"943 -162 OFFCURVE",
"966 -109 OFFCURVE",
"998 -109 CURVE SMOOTH",
"1024 -109 OFFCURVE",
"1039 -143 OFFCURVE",
"1049 -147 CURVE",
"1050 -147 LINE",
"1056 -142 OFFCURVE",
"1054 -126 OFFCURVE",
"1054 -119 CURVE SMOOTH",
"1054 -109 LINE SMOOTH",
"1054 -24 OFFCURVE",
"1031 67 OFFCURVE",
"995 144 CURVE SMOOTH",
"979 178 OFFCURVE",
"948 234 OFFCURVE",
"905 234 CURVE SMOOTH",
"845 234 OFFCURVE",
"796 124 OFFCURVE",
"741 106 CURVE",
"746 116 OFFCURVE",
"803 269 OFFCURVE",
"803 271 CURVE SMOOTH",
"803 299 OFFCURVE",
"780 344 OFFCURVE",
"766 368 CURVE",
"752 379 OFFCURVE",
"738 391 OFFCURVE",
"731 407 CURVE SMOOTH",
"719 434 OFFCURVE",
"696 503 OFFCURVE",
"662 503 CURVE SMOOTH",
"607 503 OFFCURVE",
"552 357 OFFCURVE",
"485 357 CURVE SMOOTH",
"443 357 OFFCURVE",
"420 367 OFFCURVE",
"389 395 CURVE",
"405 390 OFFCURVE",
"423 384 OFFCURVE",
"440 384 CURVE SMOOTH",
"531 384 OFFCURVE",
"620 613 OFFCURVE",
"653 613 CURVE SMOOTH",
"657 613 OFFCURVE",
"666 608 OFFCURVE",
"672 607 CURVE",
"675 609 OFFCURVE",
"677 613 OFFCURVE",
"677 616 CURVE SMOOTH",
"677 665 OFFCURVE",
"614 799 OFFCURVE",
"578 838 CURVE SMOOTH",
"558 860 OFFCURVE",
"530 867 OFFCURVE",
"501 870 CURVE",
"526 883 OFFCURVE",
"565 927 OFFCURVE",
"565 956 CURVE SMOOTH",
"565 982 OFFCURVE",
"540 1031 OFFCURVE",
"527 1054 CURVE",
"442 1111 OFFCURVE",
"411 1290 OFFCURVE",
"298 1290 CURVE SMOOTH",
"268 1290 OFFCURVE",
"240 1283 OFFCURVE",
"212 1274 CURVE",
"270 1336 OFFCURVE",
"325 1445 OFFCURVE",
"423 1445 CURVE SMOOTH",
"559 1445 OFFCURVE",
"598 1223 OFFCURVE",
"703 1223 CURVE SMOOTH",
"775 1223 OFFCURVE",
"799 1336 OFFCURVE",
"799 1390 CURVE SMOOTH",
"799 1464 OFFCURVE",
"767 1583 OFFCURVE",
"711 1635 CURVE",
"742 1652 OFFCURVE",
"765 1700 OFFCURVE",
"803 1700 CURVE SMOOTH",
"878 1700 OFFCURVE",
"947 1448 OFFCURVE",
"1023 1448 CURVE SMOOTH",
"1032 1448 OFFCURVE",
"1040 1453 OFFCURVE",
"1047 1459 CURVE",
"1047 1459 OFFCURVE",
"1047 1458 OFFCURVE",
"1048 1458 CURVE SMOOTH",
"1062 1458 OFFCURVE",
"1076 1520 OFFCURVE",
"1076 1534 CURVE SMOOTH",
"1076 1579 OFFCURVE",
"1059 1629 OFFCURVE",
"1038 1668 CURVE SMOOTH",
"1021 1700 OFFCURVE",
"993 1723 OFFCURVE",
"976 1753 CURVE SMOOTH",
"960 1782 OFFCURVE",
"948 1841 OFFCURVE",
"932 1877 CURVE",
"939 1878 LINE",
"1002 1878 OFFCURVE",
"1038 1731 OFFCURVE",
"1101 1731 CURVE SMOOTH",
"1153 1731 OFFCURVE",
"1160 1824 OFFCURVE",
"1180 1855 CURVE SMOOTH",
"1185 1862 OFFCURVE",
"1188 1862 OFFCURVE",
"1196 1862 CURVE",
"1199 1864 OFFCURVE",
"1200 1869 OFFCURVE",
"1200 1872 CURVE SMOOTH",
"1200 1890 OFFCURVE",
"1179 1975 OFFCURVE",
"1160 1975 CURVE SMOOTH",
"1117 1975 OFFCURVE",
"1124 1843 OFFCURVE",
"1067 1843 CURVE SMOOTH",
"1009 1843 OFFCURVE",
"976 1990 OFFCURVE",
"904 1990 CURVE SMOOTH",
"881 1990 OFFCURVE",
"862 1973 OFFCURVE",
"849 1956 CURVE",
"887 1845 LINE",
"906 1845 OFFCURVE",
"917 1846 OFFCURVE",
"926 1826 CURVE SMOOTH",
"965 1736 OFFCURVE",
"954 1689 OFFCURVE",
"1031 1609 CURVE",
"1026 1591 OFFCURVE",
"1018 1556 OFFCURVE",
"993 1556 CURVE SMOOTH",
"922 1556 OFFCURVE",
"859 1811 OFFCURVE",
"768 1811 CURVE SMOOTH",
"715 1811 OFFCURVE",
"696 1740 OFFCURVE",
"650 1740 CURVE SMOOTH",
"619 1740 OFFCURVE",
"586 1780 OFFCURVE",
"572 1805 CURVE",
"563 1806 LINE",
"558 1804 OFFCURVE",
"558 1798 OFFCURVE",
"558 1794 CURVE SMOOTH",
"558 1775 OFFCURVE",
"568 1752 OFFCURVE",
"575 1735 CURVE SMOOTH",
"593 1693 OFFCURVE",
"612 1651 OFFCURVE",
"642 1616 CURVE SMOOTH",
"662 1592 OFFCURVE",
"746 1526 OFFCURVE",
"752 1510 CURVE SMOOTH",
"754 1504 OFFCURVE",
"754 1489 OFFCURVE",
"754 1482 CURVE SMOOTH",
"754 1431 OFFCURVE",
"728 1336 OFFCURVE",
"664 1336 CURVE SMOOTH",
"580 1336 OFFCURVE",
"528 1557 OFFCURVE",
"388 1557 CURVE SMOOTH",
"246 1557 OFFCURVE",
"181 1327 OFFCURVE",
"78 1327 CURVE SMOOTH",
"51 1327 OFFCURVE",
"28 1344 OFFCURVE",
"13 1365 CURVE",
"5 1363 LINE",
"1 1359 OFFCURVE",
"0 1354 OFFCURVE",
"0 1349 CURVE SMOOTH",
"0 1331 OFFCURVE",
"12 1304 OFFCURVE",
"19 1288 CURVE SMOOTH",
"53 1211 OFFCURVE",
"102 1137 OFFCURVE",
"194 1137 CURVE SMOOTH",
"245 1137 OFFCURVE",
"293 1161 OFFCURVE",
"343 1161 CURVE SMOOTH",
"430 1161 OFFCURVE",
"451 1063 OFFCURVE",
"495 1006 CURVE",
"476 985 OFFCURVE",
"406 951 OFFCURVE",
"379 951 CURVE SMOOTH",
"367 951 OFFCURVE",
"357 956 OFFCURVE",
"346 958 CURVE",
"350 932 OFFCURVE",
"358 870 OFFCURVE",
"373 851 CURVE SMOOTH",
"492 707 OFFCURVE",
"558 790 OFFCURVE",
"609 723 CURVE",
"576 706 OFFCURVE",
"527 601 OFFCURVE",
"501 566 CURVE SMOOTH",
"483 542 OFFCURVE",
"451 521 OFFCURVE",
"427 502 CURVE SMOOTH",
"421 497 OFFCURVE",
"413 497 OFFCURVE",
"406 497 CURVE SMOOTH",
"358 497 OFFCURVE",
"271 544 OFFCURVE",
"230 568 CURVE",
"241 534 OFFCURVE",
"249 496 OFFCURVE",
"256 461 CURVE",
"261 458 OFFCURVE",
"320 389 OFFCURVE",
"329 378 CURVE SMOOTH",
"379 320 OFFCURVE",
"434 244 OFFCURVE",
"518 244 CURVE SMOOTH",
"584 244 OFFCURVE",
"659 388 OFFCURVE",
"704 388 CURVE SMOOTH",
"706 388 OFFCURVE",
"707 387 OFFCURVE",
"709 387 CURVE",
"719 367 OFFCURVE",
"728 344 OFFCURVE",
"740 325 CURVE",
"722 273 OFFCURVE",
"704 171 OFFCURVE",
"635 171 CURVE SMOOTH",
"608 171 OFFCURVE",
"583 184 OFFCURVE",
"562 199 CURVE",
"562 167 OFFCURVE",
"566 124 OFFCURVE",
"584 97 CURVE SMOOTH",
"627 36 OFFCURVE",
"686 -7 OFFCURVE",
"763 -7 CURVE SMOOTH",
"831 -7 OFFCURVE",
"888 119 OFFCURVE",
"948 119 CURVE SMOOTH",
"1001 119 OFFCURVE",
"1010 21 OFFCURVE",
"1010 -16 CURVE SMOOTH",
"1010 -26 LINE",
"998 -12 OFFCURVE",
"981 4 OFFCURVE",
"961 4 CURVE SMOOTH",
"936 4 OFFCURVE",
"913 -29 OFFCURVE",
"900 -47 CURVE SMOOTH",
"872 -85 OFFCURVE",
"841 -90 OFFCURVE",
"801 -110 CURVE",
"837 -222 LINE",
"864 -226 OFFCURVE",
"923 -295 OFFCURVE",
"975 -295 CURVE SMOOTH",
"993 -295 OFFCURVE",
"1005 -283 OFFCURVE",
"1014 -283 CURVE SMOOTH",
"1066 -283 OFFCURVE",
"1117 -492 OFFCURVE",
"1185 -492 CURVE"
);
}
);
width = 1200;
}
);
note = uniE0C3;
unicode = E0C3;
},
{
color = 2;
glyphname = uniE0C4;
lastChange = "2019-11-20 01:42:46 +0000";
layers = (
{
layerId = "F8C3375C-B372-4BAE-A3FB-5A8DC7FA7AB9";
paths = (
{
closed = 1;
nodes = (
"485 1757 LINE",
"593 1757 LINE SMOOTH",
"597 1757 OFFCURVE",
"602 1764 OFFCURVE",
"602 1772 CURVE SMOOTH",
"602 1963 LINE SMOOTH",
"602 1970 OFFCURVE",
"598 1978 OFFCURVE",
"593 1978 CURVE SMOOTH",
"485 1978 LINE SMOOTH",
"481 1978 OFFCURVE",
"476 1971 OFFCURVE",
"476 1963 CURVE SMOOTH",
"476 1772 LINE SMOOTH",
"476 1765 OFFCURVE",
"480 1757 OFFCURVE",
"485 1757 CURVE"
);
},
{
closed = 1;
nodes = (
"1197 1968 LINE",
"1089 1968 LINE SMOOTH",
"1087 1968 OFFCURVE",
"1086 1966 OFFCURVE",
"1086 1963 CURVE SMOOTH",
"1086 1772 LINE SMOOTH",
"1086 1769 OFFCURVE",
"1087 1767 OFFCURVE",
"1089 1767 CURVE SMOOTH",
"1197 1767 LINE SMOOTH",
"1199 1767 OFFCURVE",
"1200 1769 OFFCURVE",
"1200 1772 CURVE SMOOTH",
"1200 1963 LINE SMOOTH",
"1200 1966 OFFCURVE",
"1199 1968 OFFCURVE",
"1197 1968 CURVE"
);
},
{
closed = 1;
nodes = (
"0 1963 LINE",
"0 1772 LINE",
"108 1772 LINE",
"108 1963 LINE",
"0 1963 LINE"
);
},
{
closed = 1;
nodes = (
"165 1963 LINE",
"165 1772 LINE",
"273 1772 LINE",
"273 1963 LINE",
"165 1963 LINE"
);
},
{
closed = 1;
nodes = (
"323 1963 LINE",
"323 1772 LINE",
"431 1772 LINE",
"431 1963 LINE",
"323 1963 LINE"
);
},
{
closed = 1;
nodes = (
"745 1772 LINE",
"745 1963 LINE",
"637 1963 LINE",
"637 1772 LINE",
"745 1772 LINE"
);
},
{
closed = 1;
nodes = (
"900 1772 LINE",
"900 1963 LINE",
"792 1963 LINE",
"792 1772 LINE",
"900 1772 LINE"
);
},
{
closed = 1;
nodes = (
"1194 1957 LINE",
"1194 1777 LINE",
"1092 1777 LINE",
"1092 1957 LINE",
"1194 1957 LINE"
);
},
{
closed = 1;
nodes = (
"494 1787 LINE",
"494 1947 LINE",
"585 1947 LINE",
"585 1787 LINE",
"494 1787 LINE"
);
},
{
closed = 1;
nodes = (
"1197 1704 LINE",
"1089 1704 LINE SMOOTH",
"1087 1704 OFFCURVE",
"1086 1702 OFFCURVE",
"1086 1699 CURVE SMOOTH",
"1086 1509 LINE SMOOTH",
"1086 1505 OFFCURVE",
"1087 1503 OFFCURVE",
"1089 1503 CURVE SMOOTH",
"1197 1503 LINE SMOOTH",
"1199 1503 OFFCURVE",
"1200 1505 OFFCURVE",
"1200 1509 CURVE SMOOTH",
"1200 1699 LINE SMOOTH",
"1200 1702 OFFCURVE",
"1199 1704 OFFCURVE",
"1197 1704 CURVE"
);
},
{
closed = 1;
nodes = (
"0 1699 LINE",
"0 1509 LINE",
"108 1509 LINE",
"108 1699 LINE",
"0 1699 LINE"
);
},
{
closed = 1;
nodes = (
"165 1699 LINE",
"165 1509 LINE",
"273 1509 LINE",
"273 1699 LINE",
"165 1699 LINE"
);
},
{
closed = 1;
nodes = (
"323 1699 LINE",
"323 1509 LINE",
"431 1509 LINE",
"431 1699 LINE",
"323 1699 LINE"
);
},
{
closed = 1;
nodes = (
"596 1509 LINE",
"596 1699 LINE",
"487 1699 LINE",
"487 1509 LINE",
"596 1509 LINE"
);
},
{
closed = 1;
nodes = (
"900 1509 LINE",
"900 1699 LINE",
"792 1699 LINE",
"792 1509 LINE",
"900 1509 LINE"
);
},
{
closed = 1;
nodes = (
"1194 1694 LINE",
"1194 1514 LINE",
"1092 1514 LINE",
"1092 1694 LINE",
"1194 1694 LINE"
);
},
{
closed = 1;
nodes = (
"745 1471 LINE",
"637 1471 LINE SMOOTH",
"632 1471 OFFCURVE",
"625 1462 OFFCURVE",
"625 1451 CURVE SMOOTH",
"625 1260 LINE SMOOTH",
"625 1251 OFFCURVE",
"630 1240 OFFCURVE",
"637 1240 CURVE SMOOTH",
"745 1240 LINE SMOOTH",
"751 1240 OFFCURVE",
"757 1248 OFFCURVE",
"757 1260 CURVE SMOOTH",
"757 1451 LINE SMOOTH",
"757 1460 OFFCURVE",
"752 1471 OFFCURVE",
"745 1471 CURVE"
);
},
{
closed = 1;
nodes = (
"0 1451 LINE",
"0 1260 LINE",
"108 1260 LINE",
"108 1451 LINE",
"0 1451 LINE"
);
},
{
closed = 1;
nodes = (
"165 1451 LINE",
"165 1260 LINE",
"273 1260 LINE",
"273 1451 LINE",
"165 1451 LINE"
);
},
{
closed = 1;
nodes = (
"323 1451 LINE",
"323 1260 LINE",
"431 1260 LINE",
"431 1451 LINE",
"323 1451 LINE"
);
},
{
closed = 1;
nodes = (
"487 1451 LINE",
"487 1260 LINE",
"596 1260 LINE",
"596 1451 LINE",
"487 1451 LINE"
);
},
{
closed = 1;
nodes = (
"734 1430 LINE",
"734 1281 LINE",
"649 1281 LINE",
"649 1430 LINE",
"734 1430 LINE"
);
},
{
closed = 1;
nodes = (
"745 1237 LINE",
"637 1237 LINE SMOOTH",
"632 1237 OFFCURVE",
"625 1228 OFFCURVE",
"625 1216 CURVE SMOOTH",
"625 1025 LINE SMOOTH",
"625 1016 OFFCURVE",
"630 1005 OFFCURVE",
"637 1005 CURVE SMOOTH",
"745 1005 LINE SMOOTH",
"751 1005 OFFCURVE",
"757 1013 OFFCURVE",
"757 1025 CURVE SMOOTH",
"757 1216 LINE SMOOTH",
"757 1225 OFFCURVE",
"752 1237 OFFCURVE",
"745 1237 CURVE"
);
},
{
closed = 1;
nodes = (
"0 1216 LINE",
"0 1025 LINE",
"108 1025 LINE",
"108 1216 LINE",
"0 1216 LINE"
);
},
{
closed = 1;
nodes = (
"165 1216 LINE",
"165 1025 LINE",
"273 1025 LINE",
"273 1216 LINE",
"165 1216 LINE"
);
},
{
closed = 1;
nodes = (
"323 1216 LINE",
"323 1025 LINE",
"431 1025 LINE",
"431 1216 LINE",
"323 1216 LINE"
);
},
{
closed = 1;
nodes = (
"734 1195 LINE",
"734 1046 LINE",
"649 1046 LINE",
"649 1195 LINE",
"734 1195 LINE"
);
},
{
closed = 1;
nodes = (
"596 1001 LINE",
"487 1001 LINE SMOOTH",
"480 1001 OFFCURVE",
"473 990 OFFCURVE",
"473 975 CURVE SMOOTH",
"473 785 LINE SMOOTH",
"473 772 OFFCURVE",
"479 759 OFFCURVE",
"487 759 CURVE SMOOTH",
"596 759 LINE SMOOTH",
"603 759 OFFCURVE",
"610 769 OFFCURVE",
"610 785 CURVE SMOOTH",
"610 975 LINE SMOOTH",
"610 987 OFFCURVE",
"604 1001 OFFCURVE",
"596 1001 CURVE"
);
},
{
closed = 1;
nodes = (
"900 980 LINE",
"792 980 LINE SMOOTH",
"790 980 OFFCURVE",
"789 978 OFFCURVE",
"789 975 CURVE SMOOTH",
"789 785 LINE SMOOTH",
"789 781 OFFCURVE",
"790 779 OFFCURVE",
"792 779 CURVE SMOOTH",
"900 779 LINE SMOOTH",
"902 779 OFFCURVE",
"903 781 OFFCURVE",
"903 785 CURVE SMOOTH",
"903 975 LINE SMOOTH",
"903 978 OFFCURVE",
"902 980 OFFCURVE",
"900 980 CURVE"
);
},
{
closed = 1;
nodes = (
"0 975 LINE",
"0 785 LINE",
"108 785 LINE",
"108 975 LINE",
"0 975 LINE"
);
},
{
closed = 1;
nodes = (
"165 975 LINE",
"165 785 LINE",
"273 785 LINE",
"273 975 LINE",
"165 975 LINE"
);
},
{
closed = 1;
nodes = (
"323 975 LINE",
"323 785 LINE",
"431 785 LINE",
"431 975 LINE",
"323 975 LINE"
);
},
{
closed = 1;
nodes = (
"745 785 LINE",
"745 975 LINE",
"637 975 LINE",
"637 785 LINE",
"745 785 LINE"
);
},
{
closed = 1;
nodes = (
"897 970 LINE",
"897 790 LINE",
"795 790 LINE",
"795 970 LINE",
"897 970 LINE"
);
},
{
closed = 1;
nodes = (
"581 949 LINE",
"581 810 LINE",
"502 810 LINE",
"502 949 LINE",
"581 949 LINE"
);
},
{
closed = 1;
nodes = (
"0 734 LINE",
"0 544 LINE",
"108 544 LINE",
"108 734 LINE",
"0 734 LINE"
);
},
{
closed = 1;
nodes = (
"165 734 LINE",
"165 544 LINE",
"273 544 LINE",
"273 734 LINE",
"165 734 LINE"
);
},
{
closed = 1;
nodes = (
"323 734 LINE",
"323 544 LINE",
"431 544 LINE",
"431 734 LINE",
"323 734 LINE"
);
},
{
closed = 1;
nodes = (
"596 544 LINE",
"596 734 LINE",
"487 734 LINE",
"487 544 LINE",
"596 544 LINE"
);
},
{
closed = 1;
nodes = (
"637 734 LINE",
"637 544 LINE",
"745 544 LINE",
"745 734 LINE",
"637 734 LINE"
);
},
{
closed = 1;
nodes = (
"745 508 LINE",
"637 508 LINE SMOOTH",
"632 508 OFFCURVE",
"625 499 OFFCURVE",
"625 487 CURVE SMOOTH",
"625 296 LINE SMOOTH",
"625 287 OFFCURVE",
"630 276 OFFCURVE",
"637 276 CURVE SMOOTH",
"745 276 LINE SMOOTH",
"751 276 OFFCURVE",
"757 284 OFFCURVE",
"757 296 CURVE SMOOTH",
"757 487 LINE SMOOTH",
"757 496 OFFCURVE",
"752 508 OFFCURVE",
"745 508 CURVE"
);
},
{
closed = 1;
nodes = (
"1047 492 LINE",
"939 492 LINE SMOOTH",
"938 492 OFFCURVE",
"936 490 OFFCURVE",
"936 487 CURVE SMOOTH",
"936 296 LINE SMOOTH",
"936 293 OFFCURVE",
"938 291 OFFCURVE",
"939 291 CURVE SMOOTH",
"1047 291 LINE SMOOTH",
"1049 291 OFFCURVE",
"1050 293 OFFCURVE",
"1050 296 CURVE SMOOTH",
"1050 487 LINE SMOOTH",
"1050 490 OFFCURVE",
"1049 492 OFFCURVE",
"1047 492 CURVE"
);
},
{
closed = 1;
nodes = (
"0 487 LINE",
"0 296 LINE",
"108 296 LINE",
"108 487 LINE",
"0 487 LINE"
);
},
{
closed = 1;
nodes = (
"165 487 LINE",
"165 296 LINE",
"273 296 LINE",
"273 487 LINE",
"165 487 LINE"
);
},
{
closed = 1;
nodes = (
"1045 482 LINE",
"1045 302 LINE",
"942 302 LINE",
"942 482 LINE",
"1045 482 LINE"
);
},
{
closed = 1;
nodes = (
"734 466 LINE",
"734 317 LINE",
"649 317 LINE",
"649 466 LINE",
"734 466 LINE"
);
},
{
closed = 1;
nodes = (
"596 236 LINE",
"487 236 LINE SMOOTH",
"486 236 OFFCURVE",
"485 234 OFFCURVE",
"485 231 CURVE SMOOTH",
"485 40 LINE SMOOTH",
"485 37 OFFCURVE",
"486 35 OFFCURVE",
"487 35 CURVE SMOOTH",
"596 35 LINE SMOOTH",
"597 35 OFFCURVE",
"599 37 OFFCURVE",
"599 40 CURVE SMOOTH",
"599 231 LINE SMOOTH",
"599 234 OFFCURVE",
"597 236 OFFCURVE",
"596 236 CURVE"
);
},
{
closed = 1;
nodes = (
"900 236 LINE",
"792 236 LINE SMOOTH",
"790 236 OFFCURVE",
"789 234 OFFCURVE",
"789 231 CURVE SMOOTH",
"789 40 LINE SMOOTH",
"789 37 OFFCURVE",
"790 35 OFFCURVE",
"792 35 CURVE SMOOTH",
"900 35 LINE SMOOTH",
"902 35 OFFCURVE",
"903 37 OFFCURVE",
"903 40 CURVE SMOOTH",
"903 231 LINE SMOOTH",
"903 234 OFFCURVE",
"902 236 OFFCURVE",
"900 236 CURVE"
);
},
{
closed = 1;
nodes = (
"0 231 LINE",
"0 40 LINE",
"108 40 LINE",
"108 231 LINE",
"0 231 LINE"
);
},
{
closed = 1;
nodes = (
"165 231 LINE",
"165 40 LINE",
"273 40 LINE",
"273 231 LINE",
"165 231 LINE"
);
},
{
closed = 1;
nodes = (
"323 231 LINE",
"323 40 LINE",
"431 40 LINE",
"431 231 LINE",
"323 231 LINE"
);
},
{
closed = 1;
nodes = (
"593 225 LINE",
"593 45 LINE",
"490 45 LINE",
"490 225 LINE",
"593 225 LINE"
);
},
{
closed = 1;
nodes = (
"897 225 LINE",
"897 45 LINE",
"795 45 LINE",
"795 225 LINE",
"897 225 LINE"
);
},
{
closed = 1;
nodes = (
"0 -26 LINE",
"0 -216 LINE",
"108 -216 LINE",
"108 -26 LINE",
"0 -26 LINE"
);
},
{
closed = 1;
nodes = (
"165 -26 LINE",
"165 -216 LINE",
"273 -216 LINE",
"273 -26 LINE",
"165 -26 LINE"
);
},
{
closed = 1;
nodes = (
"323 -26 LINE",
"323 -216 LINE",
"431 -216 LINE",
"431 -26 LINE",
"323 -26 LINE"
);
},
{
closed = 1;
nodes = (
"596 -279 LINE",
"487 -279 LINE SMOOTH",
"486 -279 OFFCURVE",
"485 -281 OFFCURVE",
"485 -284 CURVE SMOOTH",
"485 -475 LINE SMOOTH",
"485 -478 OFFCURVE",
"486 -480 OFFCURVE",
"487 -480 CURVE SMOOTH",
"596 -480 LINE SMOOTH",
"597 -480 OFFCURVE",
"599 -478 OFFCURVE",
"599 -475 CURVE SMOOTH",
"599 -284 LINE SMOOTH",
"599 -281 OFFCURVE",
"597 -279 OFFCURVE",
"596 -279 CURVE"
);
},
{
closed = 1;
nodes = (
"0 -284 LINE",
"0 -475 LINE",
"108 -475 LINE",
"108 -284 LINE",
"0 -284 LINE"
);
},
{
closed = 1;
nodes = (
"165 -284 LINE",
"165 -475 LINE",
"273 -475 LINE",
"273 -284 LINE",
"165 -284 LINE"
);
},
{
closed = 1;
nodes = (
"593 -289 LINE",
"593 -470 LINE",
"490 -470 LINE",
"490 -289 LINE",
"593 -289 LINE"
);
}
);
width = 1200;
}
);
note = uniE0C4;
unicode = E0C4;
},
{
color = 2;
glyphname = uniE0C5;
lastChange = "2019-11-20 01:42:46 +0000";
layers = (
{
layerId = "F8C3375C-B372-4BAE-A3FB-5A8DC7FA7AB9";
paths = (
{
closed = 1;
nodes = (
"607 1757 LINE",
"715 1757 LINE SMOOTH",
"720 1757 OFFCURVE",
"724 1765 OFFCURVE",
"724 1772 CURVE SMOOTH",
"724 1963 LINE SMOOTH",
"724 1971 OFFCURVE",
"719 1978 OFFCURVE",
"715 1978 CURVE SMOOTH",
"607 1978 LINE SMOOTH",
"602 1978 OFFCURVE",
"598 1970 OFFCURVE",
"598 1963 CURVE SMOOTH",
"598 1772 LINE SMOOTH",
"598 1764 OFFCURVE",
"603 1757 OFFCURVE",
"607 1757 CURVE"
);
},
{
closed = 1;
nodes = (
"111 1968 LINE",
"3 1968 LINE SMOOTH",
"1 1968 OFFCURVE",
"0 1966 OFFCURVE",
"0 1963 CURVE SMOOTH",
"0 1772 LINE SMOOTH",
"0 1769 OFFCURVE",
"1 1767 OFFCURVE",
"3 1767 CURVE SMOOTH",
"111 1767 LINE SMOOTH",
"113 1767 OFFCURVE",
"114 1769 OFFCURVE",
"114 1772 CURVE SMOOTH",
"114 1963 LINE SMOOTH",
"114 1966 OFFCURVE",
"113 1968 OFFCURVE",
"111 1968 CURVE"
);
},
{
closed = 1;
nodes = (
"408 1772 LINE",
"408 1963 LINE",
"300 1963 LINE",
"300 1772 LINE",
"408 1772 LINE"
);
},
{
closed = 1;
nodes = (
"563 1772 LINE",
"563 1963 LINE",
"455 1963 LINE",
"455 1772 LINE",
"563 1772 LINE"
);
},
{
closed = 1;
nodes = (
"769 1963 LINE",
"769 1772 LINE",
"877 1772 LINE",
"877 1963 LINE",
"769 1963 LINE"
);
},
{
closed = 1;
nodes = (
"927 1963 LINE",
"927 1772 LINE",
"1035 1772 LINE",
"1035 1963 LINE",
"927 1963 LINE"
);
},
{
closed = 1;
nodes = (
"1200 1963 LINE",
"1092 1963 LINE",
"1092 1772 LINE",
"1200 1772 LINE",
"1200 1963 LINE"
);
},
{
closed = 1;
nodes = (
"108 1957 LINE",
"108 1777 LINE",
"6 1777 LINE",
"6 1957 LINE",
"108 1957 LINE"
);
},
{
closed = 1;
nodes = (
"615 1787 LINE",
"615 1947 LINE",
"706 1947 LINE",
"706 1787 LINE",
"615 1787 LINE"
);
},
{
closed = 1;
nodes = (
"111 1704 LINE",
"3 1704 LINE SMOOTH",
"1 1704 OFFCURVE",
"0 1702 OFFCURVE",
"0 1699 CURVE SMOOTH",
"0 1509 LINE SMOOTH",
"0 1505 OFFCURVE",
"1 1503 OFFCURVE",
"3 1503 CURVE SMOOTH",
"111 1503 LINE SMOOTH",
"113 1503 OFFCURVE",
"114 1505 OFFCURVE",
"114 1509 CURVE SMOOTH",
"114 1699 LINE SMOOTH",
"114 1702 OFFCURVE",
"113 1704 OFFCURVE",
"111 1704 CURVE"
);
},
{
closed = 1;
nodes = (
"408 1509 LINE",
"408 1699 LINE",
"300 1699 LINE",
"300 1509 LINE",
"408 1509 LINE"
);
},
{
closed = 1;
nodes = (
"713 1509 LINE",
"713 1699 LINE",
"604 1699 LINE",
"604 1509 LINE",
"713 1509 LINE"
);
},
{
closed = 1;
nodes = (
"769 1699 LINE",
"769 1509 LINE",
"877 1509 LINE",
"877 1699 LINE",
"769 1699 LINE"
);
},
{
closed = 1;
nodes = (
"927 1699 LINE",
"927 1509 LINE",
"1035 1509 LINE",
"1035 1699 LINE",
"927 1699 LINE"
);
},
{
closed = 1;
nodes = (
"1092 1699 LINE",
"1092 1509 LINE",
"1200 1509 LINE",
"1200 1699 LINE",
"1092 1699 LINE"
);
},
{
closed = 1;
nodes = (
"108 1694 LINE",
"108 1514 LINE",
"6 1514 LINE",
"6 1694 LINE",
"108 1694 LINE"
);
},
{
closed = 1;
nodes = (
"563 1471 LINE",
"455 1471 LINE SMOOTH",
"448 1471 OFFCURVE",
"443 1460 OFFCURVE",
"443 1451 CURVE SMOOTH",
"443 1260 LINE SMOOTH",
"443 1248 OFFCURVE",
"449 1240 OFFCURVE",
"455 1240 CURVE SMOOTH",
"563 1240 LINE SMOOTH",
"570 1240 OFFCURVE",
"575 1251 OFFCURVE",
"575 1260 CURVE SMOOTH",
"575 1451 LINE SMOOTH",
"575 1462 OFFCURVE",
"568 1471 OFFCURVE",
"563 1471 CURVE"
);
},
{
closed = 1;
nodes = (
"604 1451 LINE",
"604 1260 LINE",
"713 1260 LINE",
"713 1451 LINE",
"604 1451 LINE"
);
},
{
closed = 1;
nodes = (
"769 1451 LINE",
"769 1260 LINE",
"877 1260 LINE",
"877 1451 LINE",
"769 1451 LINE"
);
},
{
closed = 1;
nodes = (
"927 1451 LINE",
"927 1260 LINE",
"1035 1260 LINE",
"1035 1451 LINE",
"927 1451 LINE"
);
},
{
closed = 1;
nodes = (
"1092 1451 LINE",
"1092 1260 LINE",
"1200 1260 LINE",
"1200 1451 LINE",
"1092 1451 LINE"
);
},
{
closed = 1;
nodes = (
"551 1430 LINE",
"551 1281 LINE",
"466 1281 LINE",
"466 1430 LINE",
"551 1430 LINE"
);
},
{
closed = 1;
nodes = (
"563 1237 LINE",
"455 1237 LINE SMOOTH",
"448 1237 OFFCURVE",
"443 1225 OFFCURVE",
"443 1216 CURVE SMOOTH",
"443 1025 LINE SMOOTH",
"443 1013 OFFCURVE",
"449 1005 OFFCURVE",
"455 1005 CURVE SMOOTH",
"563 1005 LINE SMOOTH",
"570 1005 OFFCURVE",
"575 1016 OFFCURVE",
"575 1025 CURVE SMOOTH",
"575 1216 LINE SMOOTH",
"575 1228 OFFCURVE",
"568 1237 OFFCURVE",
"563 1237 CURVE"
);
},
{
closed = 1;
nodes = (
"769 1216 LINE",
"769 1025 LINE",
"877 1025 LINE",
"877 1216 LINE",
"769 1216 LINE"
);
},
{
closed = 1;
nodes = (
"927 1216 LINE",
"927 1025 LINE",
"1035 1025 LINE",
"1035 1216 LINE",
"927 1216 LINE"
);
},
{
closed = 1;
nodes = (
"1092 1216 LINE",
"1092 1025 LINE",
"1200 1025 LINE",
"1200 1216 LINE",
"1092 1216 LINE"
);
},
{
closed = 1;
nodes = (
"551 1195 LINE",
"551 1046 LINE",
"466 1046 LINE",
"466 1195 LINE",
"551 1195 LINE"
);
},
{
closed = 1;
nodes = (
"713 1001 LINE",
"604 1001 LINE SMOOTH",
"596 1001 OFFCURVE",
"590 987 OFFCURVE",
"590 975 CURVE SMOOTH",
"590 785 LINE SMOOTH",
"590 769 OFFCURVE",
"597 759 OFFCURVE",
"604 759 CURVE SMOOTH",
"713 759 LINE SMOOTH",
"721 759 OFFCURVE",
"727 772 OFFCURVE",
"727 785 CURVE SMOOTH",
"727 975 LINE SMOOTH",
"727 990 OFFCURVE",
"720 1001 OFFCURVE",
"713 1001 CURVE"
);
},
{
closed = 1;
nodes = (
"408 980 LINE",
"300 980 LINE SMOOTH",
"298 980 OFFCURVE",
"297 978 OFFCURVE",
"297 975 CURVE SMOOTH",
"297 785 LINE SMOOTH",
"297 781 OFFCURVE",
"298 779 OFFCURVE",
"300 779 CURVE SMOOTH",
"408 779 LINE SMOOTH",
"410 779 OFFCURVE",
"411 781 OFFCURVE",
"411 785 CURVE SMOOTH",
"411 975 LINE SMOOTH",
"411 978 OFFCURVE",
"410 980 OFFCURVE",
"408 980 CURVE"
);
},
{
closed = 1;
nodes = (
"563 785 LINE",
"563 975 LINE",
"455 975 LINE",
"455 785 LINE",
"563 785 LINE"
);
},
{
closed = 1;
nodes = (
"769 975 LINE",
"769 785 LINE",
"877 785 LINE",
"877 975 LINE",
"769 975 LINE"
);
},
{
closed = 1;
nodes = (
"927 975 LINE",
"927 785 LINE",
"1035 785 LINE",
"1035 975 LINE",
"927 975 LINE"
);
},
{
closed = 1;
nodes = (
"1092 975 LINE",
"1092 785 LINE",
"1200 785 LINE",
"1200 975 LINE",
"1092 975 LINE"
);
},
{
closed = 1;
nodes = (
"405 970 LINE",
"405 790 LINE",
"303 790 LINE",
"303 970 LINE",
"405 970 LINE"
);
},
{
closed = 1;
nodes = (
"698 949 LINE",
"698 810 LINE",
"619 810 LINE",
"619 949 LINE",
"698 949 LINE"
);
},
{
closed = 1;
nodes = (
"455 734 LINE",
"455 544 LINE",
"563 544 LINE",
"563 734 LINE",
"455 734 LINE"
);
},
{
closed = 1;
nodes = (
"713 544 LINE",
"713 734 LINE",
"604 734 LINE",
"604 544 LINE",
"713 544 LINE"
);
},
{
closed = 1;
nodes = (
"769 734 LINE",
"769 544 LINE",
"877 544 LINE",
"877 734 LINE",
"769 734 LINE"
);
},
{
closed = 1;
nodes = (
"927 734 LINE",
"927 544 LINE",
"1035 544 LINE",
"1035 734 LINE",
"927 734 LINE"
);
},
{
closed = 1;
nodes = (
"1092 734 LINE",
"1092 544 LINE",
"1200 544 LINE",
"1200 734 LINE",
"1092 734 LINE"
);
},
{
closed = 1;
nodes = (
"563 508 LINE",
"455 508 LINE SMOOTH",
"448 508 OFFCURVE",
"443 496 OFFCURVE",
"443 487 CURVE SMOOTH",
"443 296 LINE SMOOTH",
"443 284 OFFCURVE",
"449 276 OFFCURVE",
"455 276 CURVE SMOOTH",
"563 276 LINE SMOOTH",
"570 276 OFFCURVE",
"575 287 OFFCURVE",
"575 296 CURVE SMOOTH",
"575 487 LINE SMOOTH",
"575 499 OFFCURVE",
"568 508 OFFCURVE",
"563 508 CURVE"
);
},
{
closed = 1;
nodes = (
"261 492 LINE",
"153 492 LINE SMOOTH",
"151 492 OFFCURVE",
"150 490 OFFCURVE",
"150 487 CURVE SMOOTH",
"150 296 LINE SMOOTH",
"150 293 OFFCURVE",
"151 291 OFFCURVE",
"153 291 CURVE SMOOTH",
"261 291 LINE SMOOTH",
"262 291 OFFCURVE",
"264 293 OFFCURVE",
"264 296 CURVE SMOOTH",
"264 487 LINE SMOOTH",
"264 490 OFFCURVE",
"262 492 OFFCURVE",
"261 492 CURVE"
);
},
{
closed = 1;
nodes = (
"927 487 LINE",
"927 296 LINE",
"1035 296 LINE",
"1035 487 LINE",
"927 487 LINE"
);
},
{
closed = 1;
nodes = (
"1092 487 LINE",
"1092 296 LINE",
"1200 296 LINE",
"1200 487 LINE",
"1092 487 LINE"
);
},
{
closed = 1;
nodes = (
"258 482 LINE",
"258 302 LINE",
"155 302 LINE",
"155 482 LINE",
"258 482 LINE"
);
},
{
closed = 1;
nodes = (
"551 466 LINE",
"551 317 LINE",
"466 317 LINE",
"466 466 LINE",
"551 466 LINE"
);
},
{
closed = 1;
nodes = (
"408 236 LINE",
"300 236 LINE SMOOTH",
"298 236 OFFCURVE",
"297 234 OFFCURVE",
"297 231 CURVE SMOOTH",
"297 40 LINE SMOOTH",
"297 37 OFFCURVE",
"298 35 OFFCURVE",
"300 35 CURVE SMOOTH",
"408 35 LINE SMOOTH",
"410 35 OFFCURVE",
"411 37 OFFCURVE",
"411 40 CURVE SMOOTH",
"411 231 LINE SMOOTH",
"411 234 OFFCURVE",
"410 236 OFFCURVE",
"408 236 CURVE"
);
},
{
closed = 1;
nodes = (
"713 236 LINE",
"604 236 LINE SMOOTH",
"603 236 OFFCURVE",
"601 234 OFFCURVE",
"601 231 CURVE SMOOTH",
"601 40 LINE SMOOTH",
"601 37 OFFCURVE",
"603 35 OFFCURVE",
"604 35 CURVE SMOOTH",
"713 35 LINE SMOOTH",
"714 35 OFFCURVE",
"715 37 OFFCURVE",
"715 40 CURVE SMOOTH",
"715 231 LINE SMOOTH",
"715 234 OFFCURVE",
"714 236 OFFCURVE",
"713 236 CURVE"
);
},
{
closed = 1;
nodes = (
"769 231 LINE",
"769 40 LINE",
"877 40 LINE",
"877 231 LINE",
"769 231 LINE"
);
},
{
closed = 1;
nodes = (
"927 231 LINE",
"927 40 LINE",
"1035 40 LINE",
"1035 231 LINE",
"927 231 LINE"
);
},
{
closed = 1;
nodes = (
"1092 231 LINE",
"1092 40 LINE",
"1200 40 LINE",
"1200 231 LINE",
"1092 231 LINE"
);
},
{
closed = 1;
nodes = (
"405 225 LINE",
"405 45 LINE",
"303 45 LINE",
"303 225 LINE",
"405 225 LINE"
);
},
{
closed = 1;
nodes = (
"710 225 LINE",
"710 45 LINE",
"607 45 LINE",
"607 225 LINE",
"710 225 LINE"
);
},
{
closed = 1;
nodes = (
"769 -26 LINE",
"769 -216 LINE",
"877 -216 LINE",
"877 -26 LINE",
"769 -26 LINE"
);
},
{
closed = 1;
nodes = (
"927 -26 LINE",
"927 -216 LINE",
"1035 -216 LINE",
"1035 -26 LINE",
"927 -26 LINE"
);
},
{
closed = 1;
nodes = (
"1092 -26 LINE",
"1092 -216 LINE",
"1200 -216 LINE",
"1200 -26 LINE",
"1092 -26 LINE"
);
},
{
closed = 1;
nodes = (
"713 -279 LINE",
"604 -279 LINE SMOOTH",
"603 -279 OFFCURVE",
"601 -281 OFFCURVE",
"601 -284 CURVE SMOOTH",
"601 -475 LINE SMOOTH",
"601 -478 OFFCURVE",
"603 -480 OFFCURVE",
"604 -480 CURVE SMOOTH",
"713 -480 LINE SMOOTH",
"714 -480 OFFCURVE",
"715 -478 OFFCURVE",
"715 -475 CURVE SMOOTH",
"715 -284 LINE SMOOTH",
"715 -281 OFFCURVE",
"714 -279 OFFCURVE",
"713 -279 CURVE"
);
},
{
closed = 1;
nodes = (
"927 -284 LINE",
"927 -475 LINE",
"1035 -475 LINE",
"1035 -284 LINE",
"927 -284 LINE"
);
},
{
closed = 1;
nodes = (
"1092 -284 LINE",
"1092 -475 LINE",
"1200 -475 LINE",
"1200 -284 LINE",
"1092 -284 LINE"
);
},
{
closed = 1;
nodes = (
"710 -289 LINE",
"710 -470 LINE",
"607 -470 LINE",
"607 -289 LINE",
"710 -289 LINE"
);
}
);
width = 1200;
}
);
note = uniE0C5;
unicode = E0C5;
},
{
color = 2;
glyphname = uniE0C6;
lastChange = "2019-11-20 01:42:46 +0000";
layers = (
{
layerId = "F8C3375C-B372-4BAE-A3FB-5A8DC7FA7AB9";
paths = (
{
closed = 1;
nodes = (
"769 1658 LINE",
"940 1658 LINE SMOOTH",
"947 1658 OFFCURVE",
"955 1668 OFFCURVE",
"955 1681 CURVE SMOOTH",
"955 1956 LINE SMOOTH",
"955 1967 OFFCURVE",
"949 1978 OFFCURVE",
"940 1978 CURVE SMOOTH",
"769 1978 LINE SMOOTH",
"763 1978 OFFCURVE",
"755 1968 OFFCURVE",
"755 1956 CURVE SMOOTH",
"755 1681 LINE SMOOTH",
"755 1670 OFFCURVE",
"761 1658 OFFCURVE",
"769 1658 CURVE"
);
},
{
closed = 1;
nodes = (
"512 1668 LINE",
"683 1668 LINE SMOOTH",
"687 1668 OFFCURVE",
"691 1674 OFFCURVE",
"691 1681 CURVE SMOOTH",
"691 1956 LINE SMOOTH",
"691 1961 OFFCURVE",
"688 1968 OFFCURVE",
"683 1968 CURVE SMOOTH",
"512 1968 LINE SMOOTH",
"508 1968 OFFCURVE",
"504 1961 OFFCURVE",
"504 1956 CURVE SMOOTH",
"504 1681 LINE SMOOTH",
"504 1674 OFFCURVE",
"507 1668 OFFCURVE",
"512 1668 CURVE"
);
},
{
closed = 1;
nodes = (
"0 1956 LINE",
"0 1681 LINE",
"172 1681 LINE",
"172 1956 LINE",
"0 1956 LINE"
);
},
{
closed = 1;
nodes = (
"261 1956 LINE",
"261 1681 LINE",
"433 1681 LINE",
"433 1956 LINE",
"261 1956 LINE"
);
},
{
closed = 1;
nodes = (
"519 1693 LINE",
"519 1943 LINE",
"675 1943 LINE",
"675 1693 LINE",
"519 1693 LINE"
);
},
{
closed = 1;
nodes = (
"784 1703 LINE",
"784 1933 LINE",
"927 1933 LINE",
"927 1703 LINE",
"784 1703 LINE"
);
},
{
closed = 1;
nodes = (
"944 1588 LINE",
"773 1588 LINE SMOOTH",
"770 1588 OFFCURVE",
"765 1582 OFFCURVE",
"765 1575 CURVE SMOOTH",
"765 1300 LINE SMOOTH",
"765 1295 OFFCURVE",
"769 1288 OFFCURVE",
"773 1288 CURVE SMOOTH",
"944 1288 LINE SMOOTH",
"949 1288 OFFCURVE",
"952 1293 OFFCURVE",
"952 1300 CURVE SMOOTH",
"952 1575 LINE SMOOTH",
"952 1582 OFFCURVE",
"949 1588 OFFCURVE",
"944 1588 CURVE"
);
},
{
closed = 1;
nodes = (
"0 1575 LINE",
"0 1300 LINE",
"172 1300 LINE",
"172 1575 LINE",
"0 1575 LINE"
);
},
{
closed = 1;
nodes = (
"261 1575 LINE",
"261 1300 LINE",
"433 1300 LINE",
"433 1575 LINE",
"261 1575 LINE"
);
},
{
closed = 1;
nodes = (
"512 1575 LINE",
"512 1300 LINE",
"683 1300 LINE",
"683 1575 LINE",
"512 1575 LINE"
);
},
{
closed = 1;
nodes = (
"937 1563 LINE",
"937 1312 LINE",
"781 1312 LINE",
"781 1563 LINE",
"937 1563 LINE"
);
},
{
closed = 1;
nodes = (
"1181 1246 LINE",
"1010 1246 LINE SMOOTH",
"1002 1246 OFFCURVE",
"992 1233 OFFCURVE",
"992 1217 CURVE SMOOTH",
"992 941 LINE SMOOTH",
"992 928 OFFCURVE",
"1000 912 OFFCURVE",
"1010 912 CURVE SMOOTH",
"1181 912 LINE SMOOTH",
"1191 912 OFFCURVE",
"1200 925 OFFCURVE",
"1200 941 CURVE SMOOTH",
"1200 1217 LINE SMOOTH",
"1200 1231 OFFCURVE",
"1192 1246 OFFCURVE",
"1181 1246 CURVE"
);
},
{
closed = 1;
nodes = (
"512 929 LINE",
"683 929 LINE SMOOTH",
"687 929 OFFCURVE",
"691 934 OFFCURVE",
"691 941 CURVE SMOOTH",
"691 1217 LINE SMOOTH",
"691 1222 OFFCURVE",
"688 1229 OFFCURVE",
"683 1229 CURVE SMOOTH",
"512 1229 LINE SMOOTH",
"508 1229 OFFCURVE",
"504 1222 OFFCURVE",
"504 1217 CURVE SMOOTH",
"504 941 LINE SMOOTH",
"504 936 OFFCURVE",
"507 929 OFFCURVE",
"512 929 CURVE"
);
},
{
closed = 1;
nodes = (
"0 1217 LINE",
"0 941 LINE",
"172 941 LINE",
"172 1217 LINE",
"0 1217 LINE"
);
},
{
closed = 1;
nodes = (
"261 1217 LINE",
"261 941 LINE",
"433 941 LINE",
"433 1217 LINE",
"261 1217 LINE"
);
},
{
closed = 1;
nodes = (
"519 954 LINE",
"519 1204 LINE",
"675 1204 LINE",
"675 954 LINE",
"519 954 LINE"
);
},
{
closed = 1;
nodes = (
"1163 1187 LINE",
"1163 971 LINE",
"1029 971 LINE",
"1029 1187 LINE",
"1163 1187 LINE"
);
},
{
closed = 1;
nodes = (
"0 878 LINE",
"0 603 LINE",
"172 603 LINE",
"172 878 LINE",
"0 878 LINE"
);
},
{
closed = 1;
nodes = (
"512 878 LINE",
"512 603 LINE",
"683 603 LINE",
"683 878 LINE",
"512 878 LINE"
);
},
{
closed = 1;
nodes = (
"944 567 LINE",
"773 567 LINE SMOOTH",
"763 567 OFFCURVE",
"750 550 OFFCURVE",
"750 530 CURVE SMOOTH",
"750 255 LINE SMOOTH",
"750 236 OFFCURVE",
"760 217 OFFCURVE",
"773 217 CURVE SMOOTH",
"944 217 LINE SMOOTH",
"956 217 OFFCURVE",
"968 234 OFFCURVE",
"968 255 CURVE SMOOTH",
"968 530 LINE SMOOTH",
"968 547 OFFCURVE",
"957 567 OFFCURVE",
"944 567 CURVE"
);
},
{
closed = 1;
nodes = (
"0 530 LINE",
"0 255 LINE",
"172 255 LINE",
"172 530 LINE",
"0 530 LINE"
);
},
{
closed = 1;
nodes = (
"261 530 LINE",
"261 255 LINE",
"433 255 LINE",
"433 530 LINE",
"261 530 LINE"
);
},
{
closed = 1;
nodes = (
"921 492 LINE",
"921 292 LINE",
"796 292 LINE",
"796 492 LINE",
"921 492 LINE"
);
},
{
closed = 1;
nodes = (
"683 206 LINE",
"512 206 LINE SMOOTH",
"504 206 OFFCURVE",
"496 195 OFFCURVE",
"496 182 CURVE SMOOTH",
"496 -93 LINE SMOOTH",
"496 -105 OFFCURVE",
"502 -118 OFFCURVE",
"512 -118 CURVE SMOOTH",
"683 -118 LINE SMOOTH",
"690 -118 OFFCURVE",
"698 -108 OFFCURVE",
"698 -93 CURVE SMOOTH",
"698 182 LINE SMOOTH",
"698 193 OFFCURVE",
"691 206 OFFCURVE",
"683 206 CURVE"
);
},
{
closed = 1;
nodes = (
"0 182 LINE",
"0 -93 LINE",
"172 -93 LINE",
"172 182 LINE",
"0 182 LINE"
);
},
{
closed = 1;
nodes = (
"261 182 LINE",
"261 -93 LINE",
"433 -93 LINE",
"433 182 LINE",
"261 182 LINE"
);
},
{
closed = 1;
nodes = (
"667 157 LINE",
"667 -69 LINE",
"527 -69 LINE",
"527 157 LINE",
"667 157 LINE"
);
},
{
closed = 1;
nodes = (
"1181 -145 LINE",
"1010 -145 LINE SMOOTH",
"1001 -145 OFFCURVE",
"992 -158 OFFCURVE",
"992 -175 CURVE SMOOTH",
"992 -450 LINE SMOOTH",
"992 -465 OFFCURVE",
"1000 -480 OFFCURVE",
"1010 -480 CURVE SMOOTH",
"1181 -480 LINE SMOOTH",
"1191 -480 OFFCURVE",
"1200 -467 OFFCURVE",
"1200 -450 CURVE SMOOTH",
"1200 -175 LINE SMOOTH",
"1200 -161 OFFCURVE",
"1192 -145 OFFCURVE",
"1181 -145 CURVE"
);
},
{
closed = 1;
nodes = (
"0 -175 LINE",
"0 -450 LINE",
"172 -450 LINE",
"172 -175 LINE",
"0 -175 LINE"
);
},
{
closed = 1;
nodes = (
"261 -175 LINE",
"261 -450 LINE",
"433 -450 LINE",
"433 -175 LINE",
"261 -175 LINE"
);
},
{
closed = 1;
nodes = (
"1163 -205 LINE",
"1163 -421 LINE",
"1029 -421 LINE",
"1029 -205 LINE",
"1163 -205 LINE"
);
}
);
width = 1200;
}
);
note = uniE0C6;
unicode = E0C6;
},
{
color = 2;
glyphname = uniE0C7;
lastChange = "2019-11-20 01:42:46 +0000";
layers = (
{
layerId = "F8C3375C-B372-4BAE-A3FB-5A8DC7FA7AB9";
paths = (
{
closed = 1;
nodes = (
"260 1658 LINE",
"431 1658 LINE SMOOTH",
"439 1658 OFFCURVE",
"445 1670 OFFCURVE",
"445 1681 CURVE SMOOTH",
"445 1956 LINE SMOOTH",
"445 1968 OFFCURVE",
"437 1978 OFFCURVE",
"431 1978 CURVE SMOOTH",
"260 1978 LINE SMOOTH",
"252 1978 OFFCURVE",
"246 1967 OFFCURVE",
"246 1956 CURVE SMOOTH",
"246 1681 LINE SMOOTH",
"246 1669 OFFCURVE",
"253 1658 OFFCURVE",
"260 1658 CURVE"
);
},
{
closed = 1;
nodes = (
"517 1668 LINE",
"688 1668 LINE SMOOTH",
"693 1668 OFFCURVE",
"696 1674 OFFCURVE",
"696 1681 CURVE SMOOTH",
"696 1956 LINE SMOOTH",
"696 1962 OFFCURVE",
"693 1968 OFFCURVE",
"688 1968 CURVE SMOOTH",
"517 1968 LINE SMOOTH",
"513 1968 OFFCURVE",
"509 1961 OFFCURVE",
"509 1956 CURVE SMOOTH",
"509 1681 LINE SMOOTH",
"509 1674 OFFCURVE",
"514 1668 OFFCURVE",
"517 1668 CURVE"
);
},
{
closed = 1;
nodes = (
"767 1956 LINE",
"767 1681 LINE",
"939 1681 LINE",
"939 1956 LINE",
"767 1956 LINE"
);
},
{
closed = 1;
nodes = (
"1200 1956 LINE",
"1029 1956 LINE",
"1029 1681 LINE",
"1200 1681 LINE",
"1200 1956 LINE"
);
},
{
closed = 1;
nodes = (
"525 1693 LINE",
"525 1943 LINE",
"681 1943 LINE",
"681 1693 LINE",
"525 1693 LINE"
);
},
{
closed = 1;
nodes = (
"273 1703 LINE",
"273 1933 LINE",
"417 1933 LINE",
"417 1703 LINE",
"273 1703 LINE"
);
},
{
closed = 1;
nodes = (
"428 1588 LINE",
"256 1588 LINE SMOOTH",
"251 1588 OFFCURVE",
"248 1582 OFFCURVE",
"248 1575 CURVE SMOOTH",
"248 1300 LINE SMOOTH",
"248 1293 OFFCURVE",
"253 1288 OFFCURVE",
"256 1288 CURVE SMOOTH",
"428 1288 LINE SMOOTH",
"432 1288 OFFCURVE",
"435 1295 OFFCURVE",
"435 1300 CURVE SMOOTH",
"435 1575 LINE SMOOTH",
"435 1582 OFFCURVE",
"431 1588 OFFCURVE",
"428 1588 CURVE"
);
},
{
closed = 1;
nodes = (
"517 1575 LINE",
"517 1300 LINE",
"688 1300 LINE",
"688 1575 LINE",
"517 1575 LINE"
);
},
{
closed = 1;
nodes = (
"767 1575 LINE",
"767 1300 LINE",
"939 1300 LINE",
"939 1575 LINE",
"767 1575 LINE"
);
},
{
closed = 1;
nodes = (
"1029 1575 LINE",
"1029 1300 LINE",
"1200 1300 LINE",
"1200 1575 LINE",
"1029 1575 LINE"
);
},
{
closed = 1;
nodes = (
"420 1563 LINE",
"420 1312 LINE",
"263 1312 LINE",
"263 1563 LINE",
"420 1563 LINE"
);
},
{
closed = 1;
nodes = (
"190 1246 LINE",
"19 1246 LINE SMOOTH",
"8 1246 OFFCURVE",
"0 1230 OFFCURVE",
"0 1217 CURVE SMOOTH",
"0 941 LINE SMOOTH",
"0 925 OFFCURVE",
"9 912 OFFCURVE",
"19 912 CURVE SMOOTH",
"190 912 LINE SMOOTH",
"200 912 OFFCURVE",
"209 928 OFFCURVE",
"209 941 CURVE SMOOTH",
"209 1217 LINE SMOOTH",
"209 1233 OFFCURVE",
"198 1246 OFFCURVE",
"190 1246 CURVE"
);
},
{
closed = 1;
nodes = (
"517 929 LINE",
"688 929 LINE SMOOTH",
"693 929 OFFCURVE",
"696 936 OFFCURVE",
"696 941 CURVE SMOOTH",
"696 1217 LINE SMOOTH",
"696 1223 OFFCURVE",
"693 1229 OFFCURVE",
"688 1229 CURVE SMOOTH",
"517 1229 LINE SMOOTH",
"513 1229 OFFCURVE",
"509 1222 OFFCURVE",
"509 1217 CURVE SMOOTH",
"509 941 LINE SMOOTH",
"509 934 OFFCURVE",
"514 929 OFFCURVE",
"517 929 CURVE"
);
},
{
closed = 1;
nodes = (
"767 1217 LINE",
"767 941 LINE",
"939 941 LINE",
"939 1217 LINE",
"767 1217 LINE"
);
},
{
closed = 1;
nodes = (
"1029 1217 LINE",
"1029 941 LINE",
"1200 941 LINE",
"1200 1217 LINE",
"1029 1217 LINE"
);
},
{
closed = 1;
nodes = (
"525 954 LINE",
"525 1204 LINE",
"681 1204 LINE",
"681 954 LINE",
"525 954 LINE"
);
},
{
closed = 1;
nodes = (
"172 1187 LINE",
"172 971 LINE",
"37 971 LINE",
"37 1187 LINE",
"172 1187 LINE"
);
},
{
closed = 1;
nodes = (
"517 878 LINE",
"517 603 LINE",
"688 603 LINE",
"688 878 LINE",
"517 878 LINE"
);
},
{
closed = 1;
nodes = (
"1029 878 LINE",
"1029 603 LINE",
"1200 603 LINE",
"1200 878 LINE",
"1029 878 LINE"
);
},
{
closed = 1;
nodes = (
"428 567 LINE",
"256 567 LINE SMOOTH",
"243 567 OFFCURVE",
"232 547 OFFCURVE",
"232 530 CURVE SMOOTH",
"232 255 LINE SMOOTH",
"232 234 OFFCURVE",
"245 217 OFFCURVE",
"256 217 CURVE SMOOTH",
"428 217 LINE SMOOTH",
"440 217 OFFCURVE",
"450 236 OFFCURVE",
"450 255 CURVE SMOOTH",
"450 530 LINE SMOOTH",
"450 550 OFFCURVE",
"438 567 OFFCURVE",
"428 567 CURVE"
);
},
{
closed = 1;
nodes = (
"767 530 LINE",
"767 255 LINE",
"939 255 LINE",
"939 530 LINE",
"767 530 LINE"
);
},
{
closed = 1;
nodes = (
"1029 530 LINE",
"1029 255 LINE",
"1200 255 LINE",
"1200 530 LINE",
"1029 530 LINE"
);
},
{
closed = 1;
nodes = (
"404 492 LINE",
"404 292 LINE",
"279 292 LINE",
"279 492 LINE",
"404 492 LINE"
);
},
{
closed = 1;
nodes = (
"688 206 LINE",
"517 206 LINE SMOOTH",
"508 206 OFFCURVE",
"502 193 OFFCURVE",
"502 182 CURVE SMOOTH",
"502 -93 LINE SMOOTH",
"502 -108 OFFCURVE",
"510 -118 OFFCURVE",
"517 -118 CURVE SMOOTH",
"688 -118 LINE SMOOTH",
"698 -118 OFFCURVE",
"704 -105 OFFCURVE",
"704 -93 CURVE SMOOTH",
"704 182 LINE SMOOTH",
"704 195 OFFCURVE",
"696 206 OFFCURVE",
"688 206 CURVE"
);
},
{
closed = 1;
nodes = (
"767 182 LINE",
"767 -93 LINE",
"939 -93 LINE",
"939 182 LINE",
"767 182 LINE"
);
},
{
closed = 1;
nodes = (
"1029 182 LINE",
"1029 -93 LINE",
"1200 -93 LINE",
"1200 182 LINE",
"1029 182 LINE"
);
},
{
closed = 1;
nodes = (
"674 157 LINE",
"674 -69 LINE",
"533 -69 LINE",
"533 157 LINE",
"674 157 LINE"
);
},
{
closed = 1;
nodes = (
"190 -145 LINE",
"19 -145 LINE SMOOTH",
"8 -145 OFFCURVE",
"0 -161 OFFCURVE",
"0 -175 CURVE SMOOTH",
"0 -450 LINE SMOOTH",
"0 -467 OFFCURVE",
"9 -480 OFFCURVE",
"19 -480 CURVE SMOOTH",
"190 -480 LINE SMOOTH",
"200 -480 OFFCURVE",
"209 -465 OFFCURVE",
"209 -450 CURVE SMOOTH",
"209 -175 LINE SMOOTH",
"209 -160 OFFCURVE",
"198 -145 OFFCURVE",
"190 -145 CURVE"
);
},
{
closed = 1;
nodes = (
"767 -175 LINE",
"767 -450 LINE",
"939 -450 LINE",
"939 -175 LINE",
"767 -175 LINE"
);
},
{
closed = 1;
nodes = (
"1029 -175 LINE",
"1029 -450 LINE",
"1200 -450 LINE",
"1200 -175 LINE",
"1029 -175 LINE"
);
},
{
closed = 1;
nodes = (
"172 -205 LINE",
"172 -421 LINE",
"37 -421 LINE",
"37 -205 LINE",
"172 -205 LINE"
);
}
);
width = 1200;
}
);
note = uniE0C7;
unicode = E0C7;
},
{
color = 2;
glyphname = uniE0C8;
lastChange = "2019-11-20 01:42:46 +0000";
layers = (
{
layerId = "F8C3375C-B372-4BAE-A3FB-5A8DC7FA7AB9";
paths = (
{
closed = 1;
nodes = (
"1105 482 LINE",
"1073 482 OFFCURVE",
"1046 498 OFFCURVE",
"1016 498 CURVE SMOOTH",
"1010 498 OFFCURVE",
"983 489 OFFCURVE",
"974 487 CURVE",
"955 491 OFFCURVE",
"938 501 OFFCURVE",
"917 501 CURVE SMOOTH",
"902 501 OFFCURVE",
"886 500 OFFCURVE",
"871 499 CURVE SMOOTH",
"862 499 OFFCURVE",
"853 493 OFFCURVE",
"844 493 CURVE SMOOTH",
"841 493 OFFCURVE",
"838 495 OFFCURVE",
"836 497 CURVE SMOOTH",
"811 521 OFFCURVE",
"794 526 OFFCURVE",
"760 526 CURVE SMOOTH",
"744 526 OFFCURVE",
"749 546 OFFCURVE",
"703 546 CURVE SMOOTH",
"681 546 OFFCURVE",
"662 558 OFFCURVE",
"640 558 CURVE SMOOTH",
"631 558 OFFCURVE",
"621 553 OFFCURVE",
"612 553 CURVE SMOOTH",
"607 553 OFFCURVE",
"602 555 OFFCURVE",
"598 559 CURVE SMOOTH",
"586 571 OFFCURVE",
"555 565 OFFCURVE",
"540 565 CURVE SMOOTH",
"536 565 OFFCURVE",
"531 566 OFFCURVE",
"527 567 CURVE",
"513 578 OFFCURVE",
"480 574 OFFCURVE",
"462 583 CURVE SMOOTH",
"455 586 OFFCURVE",
"451 595 OFFCURVE",
"443 595 CURVE SMOOTH",
"435 595 OFFCURVE",
"427 590 OFFCURVE",
"419 590 CURVE SMOOTH",
"413 590 OFFCURVE",
"406 595 OFFCURVE",
"399 595 CURVE SMOOTH",
"392 595 OFFCURVE",
"384 594 OFFCURVE",
"377 594 CURVE SMOOTH",
"342 594 OFFCURVE",
"307 598 OFFCURVE",
"273 598 CURVE SMOOTH",
"262 598 OFFCURVE",
"261 603 OFFCURVE",
"257 612 CURVE",
"260 617 OFFCURVE",
"276 620 OFFCURVE",
"281 621 CURVE SMOOTH",
"336 632 OFFCURVE",
"382 652 OFFCURVE",
"433 673 CURVE SMOOTH",
"446 678 OFFCURVE",
"460 699 OFFCURVE",
"477 697 CURVE SMOOTH",
"482 696 OFFCURVE",
"486 696 OFFCURVE",
"491 696 CURVE SMOOTH",
"504 696 OFFCURVE",
"517 708 OFFCURVE",
"528 708 CURVE SMOOTH",
"536 708 OFFCURVE",
"549 708 OFFCURVE",
"557 711 CURVE SMOOTH",
"563 713 OFFCURVE",
"568 718 OFFCURVE",
"568 725 CURVE SMOOTH",
"568 752 OFFCURVE",
"547 758 OFFCURVE",
"525 760 CURVE SMOOTH",
"503 762 OFFCURVE",
"487 776 OFFCURVE",
"466 778 CURVE SMOOTH",
"457 779 OFFCURVE",
"447 776 OFFCURVE",
"438 776 CURVE SMOOTH",
"429 776 OFFCURVE",
"385 783 OFFCURVE",
"376 787 CURVE SMOOTH",
"370 790 OFFCURVE",
"332 808 OFFCURVE",
"326 807 CURVE SMOOTH",
"322 806 OFFCURVE",
"319 805 OFFCURVE",
"315 805 CURVE SMOOTH",
"301 805 OFFCURVE",
"287 808 OFFCURVE",
"273 810 CURVE",
"268 816 LINE",
"278 832 OFFCURVE",
"320 826 OFFCURVE",
"335 826 CURVE SMOOTH",
"359 826 OFFCURVE",
"380 843 OFFCURVE",
"405 846 CURVE SMOOTH",
"416 847 OFFCURVE",
"447 855 OFFCURVE",
"447 869 CURVE SMOOTH",
"447 894 OFFCURVE",
"390 903 OFFCURVE",
"372 903 CURVE SMOOTH",
"353 903 OFFCURVE",
"341 913 OFFCURVE",
"323 913 CURVE SMOOTH",
"241 913 OFFCURVE",
"256 927 OFFCURVE",
"235 986 CURVE SMOOTH",
"231 997 OFFCURVE",
"215 1028 OFFCURVE",
"215 1037 CURVE SMOOTH",
"215 1081 OFFCURVE",
"248 1107 OFFCURVE",
"279 1132 CURVE SMOOTH",
"292 1143 OFFCURVE",
"315 1140 OFFCURVE",
"327 1152 CURVE SMOOTH",
"330 1155 OFFCURVE",
"379 1167 OFFCURVE",
"388 1168 CURVE",
"395 1167 OFFCURVE",
"403 1164 OFFCURVE",
"410 1164 CURVE SMOOTH",
"425 1164 OFFCURVE",
"428 1182 OFFCURVE",
"445 1182 CURVE SMOOTH",
"458 1182 OFFCURVE",
"459 1171 OFFCURVE",
"475 1171 CURVE SMOOTH",
"486 1171 OFFCURVE",
"528 1192 OFFCURVE",
"541 1198 CURVE SMOOTH",
"575 1213 OFFCURVE",
"614 1212 OFFCURVE",
"648 1224 CURVE SMOOTH",
"657 1227 OFFCURVE",
"663 1235 OFFCURVE",
"663 1244 CURVE SMOOTH",
"663 1288 OFFCURVE",
"625 1280 OFFCURVE",
"597 1280 CURVE SMOOTH",
"577 1280 OFFCURVE",
"565 1308 OFFCURVE",
"512 1308 CURVE SMOOTH",
"504 1308 OFFCURVE",
"499 1305 OFFCURVE",
"492 1304 CURVE",
"485 1308 OFFCURVE",
"488 1314 OFFCURVE",
"477 1317 CURVE SMOOTH",
"464 1320 OFFCURVE",
"442 1325 OFFCURVE",
"431 1332 CURVE SMOOTH",
"428 1334 OFFCURVE",
"425 1336 OFFCURVE",
"421 1336 CURVE SMOOTH",
"415 1336 OFFCURVE",
"410 1330 OFFCURVE",
"404 1328 CURVE",
"395 1334 OFFCURVE",
"357 1385 OFFCURVE",
"339 1371 CURVE",
"303 1371 OFFCURVE",
"245 1407 OFFCURVE",
"206 1407 CURVE SMOOTH",
"194 1407 OFFCURVE",
"175 1416 OFFCURVE",
"175 1430 CURVE SMOOTH",
"175 1465 OFFCURVE",
"235 1479 OFFCURVE",
"262 1479 CURVE SMOOTH",
"281 1479 OFFCURVE",
"343 1491 OFFCURVE",
"362 1495 CURVE SMOOTH",
"379 1499 OFFCURVE",
"402 1520 OFFCURVE",
"416 1520 CURVE",
"424 1517 LINE",
"435 1507 OFFCURVE",
"450 1503 OFFCURVE",
"465 1503 CURVE SMOOTH",
"474 1503 OFFCURVE",
"486 1505 OFFCURVE",
"490 1514 CURVE",
"493 1516 LINE",
"498 1513 OFFCURVE",
"507 1504 OFFCURVE",
"513 1504 CURVE SMOOTH",
"517 1504 OFFCURVE",
"521 1506 OFFCURVE",
"524 1509 CURVE SMOOTH",
"539 1522 OFFCURVE",
"562 1524 OFFCURVE",
"581 1528 CURVE SMOOTH",
"592 1530 OFFCURVE",
"599 1541 OFFCURVE",
"610 1544 CURVE",
"622 1540 OFFCURVE",
"641 1540 OFFCURVE",
"654 1540 CURVE SMOOTH",
"708 1540 OFFCURVE",
"714 1558 OFFCURVE",
"767 1558 CURVE SMOOTH",
"794 1558 OFFCURVE",
"830 1563 OFFCURVE",
"830 1597 CURVE SMOOTH",
"830 1605 OFFCURVE",
"827 1627 OFFCURVE",
"816 1627 CURVE SMOOTH",
"811 1627 OFFCURVE",
"805 1622 OFFCURVE",
"800 1622 CURVE SMOOTH",
"793 1622 OFFCURVE",
"786 1628 OFFCURVE",
"781 1632 CURVE SMOOTH",
"755 1652 OFFCURVE",
"736 1645 OFFCURVE",
"706 1650 CURVE",
"704 1649 OFFCURVE",
"701 1648 OFFCURVE",
"699 1647 CURVE",
"690 1647 LINE SMOOTH",
"688 1647 OFFCURVE",
"679 1652 OFFCURVE",
"677 1653 CURVE SMOOTH",
"622 1690 OFFCURVE",
"612 1669 OFFCURVE",
"560 1682 CURVE SMOOTH",
"545 1686 OFFCURVE",
"546 1702 OFFCURVE",
"517 1702 CURVE SMOOTH",
"506 1702 OFFCURVE",
"499 1697 OFFCURVE",
"490 1694 CURVE",
"477 1702 OFFCURVE",
"474 1722 OFFCURVE",
"461 1722 CURVE SMOOTH",
"435 1722 OFFCURVE",
"419 1710 OFFCURVE",
"396 1703 CURVE",
"393 1704 OFFCURVE",
"390 1706 OFFCURVE",
"388 1708 CURVE SMOOTH",
"372 1727 OFFCURVE",
"330 1738 OFFCURVE",
"306 1738 CURVE SMOOTH",
"292 1738 OFFCURVE",
"283 1729 OFFCURVE",
"270 1727 CURVE",
"246 1733 OFFCURVE",
"136 1765 OFFCURVE",
"127 1781 CURVE",
"131 1785 LINE",
"147 1792 OFFCURVE",
"159 1787 OFFCURVE",
"175 1787 CURVE SMOOTH",
"189 1787 OFFCURVE",
"256 1793 OFFCURVE",
"264 1798 CURVE SMOOTH",
"276 1806 OFFCURVE",
"305 1815 OFFCURVE",
"320 1815 CURVE SMOOTH",
"327 1815 OFFCURVE",
"334 1812 OFFCURVE",
"341 1812 CURVE SMOOTH",
"355 1812 OFFCURVE",
"370 1819 OFFCURVE",
"373 1833 CURVE",
"390 1833 OFFCURVE",
"414 1833 OFFCURVE",
"414 1856 CURVE SMOOTH",
"414 1882 OFFCURVE",
"391 1872 OFFCURVE",
"379 1878 CURVE",
"376 1881 OFFCURVE",
"297 1922 OFFCURVE",
"294 1922 CURVE SMOOTH",
"288 1922 OFFCURVE",
"284 1917 OFFCURVE",
"279 1915 CURVE",
"263 1920 OFFCURVE",
"213 1937 OFFCURVE",
"199 1937 CURVE SMOOTH",
"194 1937 OFFCURVE",
"143 1968 OFFCURVE",
"135 1973 CURVE SMOOTH",
"113 1988 OFFCURVE",
"76 1982 OFFCURVE",
"50 1982 CURVE SMOOTH",
"45 1982 OFFCURVE",
"41 1982 OFFCURVE",
"36 1983 CURVE",
"29 1987 OFFCURVE",
"21 1990 OFFCURVE",
"13 1990 CURVE SMOOTH",
"10 1990 OFFCURVE",
"6 1990 OFFCURVE",
"3 1989 CURVE",
"0 1984 LINE",
"1 -487 LINE",
"4 -492 LINE",
"49 -492 OFFCURVE",
"63 -493 OFFCURVE",
"102 -472 CURVE SMOOTH",
"111 -467 OFFCURVE",
"120 -461 OFFCURVE",
"130 -457 CURVE SMOOTH",
"151 -449 OFFCURVE",
"169 -461 OFFCURVE",
"198 -445 CURVE SMOOTH",
"236 -424 OFFCURVE",
"220 -421 OFFCURVE",
"268 -421 CURVE SMOOTH",
"270 -421 OFFCURVE",
"280 -417 OFFCURVE",
"282 -416 CURVE SMOOTH",
"298 -409 OFFCURVE",
"321 -409 OFFCURVE",
"338 -407 CURVE SMOOTH",
"348 -406 OFFCURVE",
"350 -394 OFFCURVE",
"350 -386 CURVE SMOOTH",
"350 -351 OFFCURVE",
"311 -369 OFFCURVE",
"288 -362 CURVE",
"279 -353 OFFCURVE",
"271 -341 OFFCURVE",
"259 -336 CURVE SMOOTH",
"239 -327 OFFCURVE",
"226 -317 OFFCURVE",
"204 -313 CURVE SMOOTH",
"202 -313 OFFCURVE",
"198 -309 OFFCURVE",
"196 -307 CURVE",
"188 -289 OFFCURVE",
"144 -305 OFFCURVE",
"144 -282 CURVE SMOOTH",
"144 -275 OFFCURVE",
"160 -268 OFFCURVE",
"165 -266 CURVE SMOOTH",
"178 -261 OFFCURVE",
"190 -257 OFFCURVE",
"204 -257 CURVE SMOOTH",
"220 -257 OFFCURVE",
"232 -244 OFFCURVE",
"247 -242 CURVE SMOOTH",
"260 -240 OFFCURVE",
"289 -235 OFFCURVE",
"301 -228 CURVE SMOOTH",
"309 -223 OFFCURVE",
"314 -215 OFFCURVE",
"324 -212 CURVE",
"330 -214 OFFCURVE",
"339 -215 OFFCURVE",
"346 -215 CURVE SMOOTH",
"362 -215 OFFCURVE",
"371 -211 OFFCURVE",
"371 -194 CURVE SMOOTH",
"371 -184 OFFCURVE",
"367 -174 OFFCURVE",
"363 -165 CURVE",
"376 -148 OFFCURVE",
"532 -149 OFFCURVE",
"560 -141 CURVE SMOOTH",
"573 -137 OFFCURVE",
"593 -133 OFFCURVE",
"607 -133 CURVE SMOOTH",
"623 -133 OFFCURVE",
"640 -129 OFFCURVE",
"640 -110 CURVE SMOOTH",
"640 -80 OFFCURVE",
"618 -90 OFFCURVE",
"602 -79 CURVE",
"588 -75 OFFCURVE",
"581 -78 OFFCURVE",
"568 -78 CURVE SMOOTH",
"567 -78 OFFCURVE",
"563 -76 OFFCURVE",
"562 -76 CURVE",
"555 -70 OFFCURVE",
"538 -57 OFFCURVE",
"528 -57 CURVE SMOOTH",
"518 -57 OFFCURVE",
"508 -62 OFFCURVE",
"498 -62 CURVE SMOOTH",
"495 -62 OFFCURVE",
"491 -61 OFFCURVE",
"488 -59 CURVE",
"479 -48 OFFCURVE",
"463 -46 OFFCURVE",
"450 -46 CURVE SMOOTH",
"444 -46 OFFCURVE",
"440 -49 OFFCURVE",
"434 -51 CURVE",
"431 -50 OFFCURVE",
"429 -47 OFFCURVE",
"427 -45 CURVE SMOOTH",
"412 -29 OFFCURVE",
"380 -42 OFFCURVE",
"363 -31 CURVE SMOOTH",
"319 -2 OFFCURVE",
"322 -13 OFFCURVE",
"273 -13 CURVE SMOOTH",
"265 -13 OFFCURVE",
"219 -6 OFFCURVE",
"222 7 CURVE SMOOTH",
"224 15 LINE",
"238 25 OFFCURVE",
"289 23 OFFCURVE",
"307 28 CURVE SMOOTH",
"317 31 OFFCURVE",
"326 36 OFFCURVE",
"334 43 CURVE SMOOTH",
"353 60 OFFCURVE",
"375 62 OFFCURVE",
"397 71 CURVE SMOOTH",
"401 73 OFFCURVE",
"411 77 OFFCURVE",
"415 77 CURVE",
"420 74 OFFCURVE",
"432 67 OFFCURVE",
"438 67 CURVE SMOOTH",
"442 67 OFFCURVE",
"446 69 OFFCURVE",
"449 72 CURVE SMOOTH",
"460 81 OFFCURVE",
"468 76 OFFCURVE",
"479 81 CURVE",
"501 81 OFFCURVE",
"535 91 OFFCURVE",
"535 118 CURVE SMOOTH",
"535 133 OFFCURVE",
"476 150 OFFCURVE",
"462 150 CURVE SMOOTH",
"454 150 OFFCURVE",
"446 147 OFFCURVE",
"439 147 CURVE SMOOTH",
"423 147 OFFCURVE",
"408 155 OFFCURVE",
"391 155 CURVE SMOOTH",
"374 155 OFFCURVE",
"357 160 OFFCURVE",
"340 160 CURVE SMOOTH",
"325 160 OFFCURVE",
"240 199 OFFCURVE",
"240 215 CURVE SMOOTH",
"240 236 OFFCURVE",
"294 279 OFFCURVE",
"315 279 CURVE SMOOTH",
"325 279 OFFCURVE",
"333 284 OFFCURVE",
"340 291 CURVE SMOOTH",
"343 294 OFFCURVE",
"350 303 OFFCURVE",
"355 304 CURVE SMOOTH",
"413 316 OFFCURVE",
"470 323 OFFCURVE",
"528 331 CURVE SMOOTH",
"556 335 OFFCURVE",
"602 353 OFFCURVE",
"620 353 CURVE SMOOTH",
"628 353 OFFCURVE",
"636 350 OFFCURVE",
"644 350 CURVE SMOOTH",
"668 350 OFFCURVE",
"695 372 OFFCURVE",
"720 372 CURVE SMOOTH",
"730 372 OFFCURVE",
"731 380 OFFCURVE",
"739 384 CURVE",
"749 381 OFFCURVE",
"759 373 OFFCURVE",
"770 373 CURVE SMOOTH",
"786 373 OFFCURVE",
"857 383 OFFCURVE",
"868 390 CURVE SMOOTH",
"872 392 OFFCURVE",
"876 393 OFFCURVE",
"880 393 CURVE SMOOTH",
"890 393 OFFCURVE",
"899 391 OFFCURVE",
"909 390 CURVE",
"912 391 OFFCURVE",
"916 392 OFFCURVE",
"919 392 CURVE SMOOTH",
"925 392 OFFCURVE",
"932 389 OFFCURVE",
"938 389 CURVE SMOOTH",
"966 389 OFFCURVE",
"1016 406 OFFCURVE",
"1046 411 CURVE SMOOTH",
"1066 414 OFFCURVE",
"1084 417 OFFCURVE",
"1104 417 CURVE SMOOTH",
"1123 417 OFFCURVE",
"1141 426 OFFCURVE",
"1164 426 CURVE SMOOTH",
"1189 426 OFFCURVE",
"1200 431 OFFCURVE",
"1200 457 CURVE SMOOTH",
"1200 495 OFFCURVE",
"1128 482 OFFCURVE",
"1105 482 CURVE"
);
}
);
width = 1200;
}
);
note = uniE0C8;
unicode = E0C8;
},
{
color = 2;
glyphname = uniE0CA;
lastChange = "2019-11-20 01:42:46 +0000";
layers = (
{
layerId = "F8C3375C-B372-4BAE-A3FB-5A8DC7FA7AB9";
paths = (
{
closed = 1;
nodes = (
"1196 -406 LINE",
"1199 -401 LINE",
"1200 1898 LINE",
"1197 1903 LINE",
"1194 1904 OFFCURVE",
"1190 1904 OFFCURVE",
"1187 1904 CURVE SMOOTH",
"1173 1904 OFFCURVE",
"1162 1896 OFFCURVE",
"1148 1896 CURVE SMOOTH",
"1134 1896 OFFCURVE",
"1120 1898 OFFCURVE",
"1106 1898 CURVE SMOOTH",
"1075 1898 OFFCURVE",
"1041 1880 OFFCURVE",
"1017 1861 CURVE SMOOTH",
"1008 1854 OFFCURVE",
"938 1839 OFFCURVE",
"921 1834 CURVE",
"917 1836 OFFCURVE",
"911 1840 OFFCURVE",
"906 1840 CURVE SMOOTH",
"897 1840 OFFCURVE",
"825 1803 OFFCURVE",
"821 1799 CURVE",
"807 1799 OFFCURVE",
"786 1798 OFFCURVE",
"786 1779 CURVE SMOOTH",
"786 1757 OFFCURVE",
"811 1758 OFFCURVE",
"827 1758 CURVE",
"835 1745 OFFCURVE",
"842 1738 OFFCURVE",
"859 1738 CURVE SMOOTH",
"866 1738 OFFCURVE",
"873 1742 OFFCURVE",
"880 1742 CURVE SMOOTH",
"894 1742 OFFCURVE",
"924 1733 OFFCURVE",
"936 1726 CURVE SMOOTH",
"955 1714 OFFCURVE",
"1023 1717 OFFCURVE",
"1049 1717 CURVE SMOOTH",
"1058 1717 OFFCURVE",
"1066 1716 OFFCURVE",
"1073 1710 CURVE",
"1066 1698 OFFCURVE",
"950 1660 OFFCURVE",
"930 1660 CURVE SMOOTH",
"920 1660 OFFCURVE",
"907 1669 OFFCURVE",
"894 1669 CURVE SMOOTH",
"870 1669 OFFCURVE",
"828 1660 OFFCURVE",
"812 1642 CURVE SMOOTH",
"810 1640 OFFCURVE",
"807 1638 OFFCURVE",
"804 1637 CURVE",
"781 1644 OFFCURVE",
"765 1654 OFFCURVE",
"739 1654 CURVE SMOOTH",
"726 1654 OFFCURVE",
"721 1636 OFFCURVE",
"710 1629 CURVE",
"700 1633 OFFCURVE",
"691 1636 OFFCURVE",
"680 1636 CURVE SMOOTH",
"656 1636 OFFCURVE",
"654 1622 OFFCURVE",
"640 1618 CURVE SMOOTH",
"587 1603 OFFCURVE",
"582 1623 OFFCURVE",
"523 1590 CURVE SMOOTH",
"516 1586 OFFCURVE",
"509 1584 OFFCURVE",
"501 1585 CURVE SMOOTH",
"499 1585 OFFCURVE",
"496 1586 OFFCURVE",
"494 1587 CURVE",
"459 1580 OFFCURVE",
"452 1591 OFFCURVE",
"419 1570 CURVE SMOOTH",
"414 1567 OFFCURVE",
"406 1562 OFFCURVE",
"400 1562 CURVE SMOOTH",
"394 1562 OFFCURVE",
"389 1566 OFFCURVE",
"384 1566 CURVE SMOOTH",
"374 1566 OFFCURVE",
"370 1547 OFFCURVE",
"370 1539 CURVE SMOOTH",
"370 1499 OFFCURVE",
"426 1503 OFFCURVE",
"454 1503 CURVE SMOOTH",
"478 1503 OFFCURVE",
"503 1485 OFFCURVE",
"546 1485 CURVE SMOOTH",
"559 1485 OFFCURVE",
"578 1485 OFFCURVE",
"590 1489 CURVE",
"601 1486 OFFCURVE",
"608 1476 OFFCURVE",
"619 1474 CURVE SMOOTH",
"634 1471 OFFCURVE",
"664 1466 OFFCURVE",
"676 1457 CURVE SMOOTH",
"679 1455 OFFCURVE",
"683 1452 OFFCURVE",
"687 1452 CURVE SMOOTH",
"691 1452 OFFCURVE",
"702 1461 OFFCURVE",
"707 1463 CURVE",
"718 1453 OFFCURVE",
"718 1451 OFFCURVE",
"735 1451 CURVE SMOOTH",
"750 1451 OFFCURVE",
"765 1454 OFFCURVE",
"776 1464 CURVE",
"778 1465 OFFCURVE",
"782 1466 OFFCURVE",
"784 1466 CURVE SMOOTH",
"803 1466 OFFCURVE",
"819 1447 OFFCURVE",
"837 1443 CURVE SMOOTH",
"853 1439 OFFCURVE",
"907 1437 OFFCURVE",
"918 1431 CURVE SMOOTH",
"941 1418 OFFCURVE",
"1025 1429 OFFCURVE",
"1025 1383 CURVE SMOOTH",
"1025 1369 OFFCURVE",
"1006 1361 OFFCURVE",
"994 1361 CURVE SMOOTH",
"955 1361 OFFCURVE",
"896 1328 OFFCURVE",
"861 1328 CURVE",
"860 1329 OFFCURVE",
"858 1329 OFFCURVE",
"857 1329 CURVE SMOOTH",
"827 1329 OFFCURVE",
"796 1288 OFFCURVE",
"796 1288 CURVE",
"790 1290 OFFCURVE",
"786 1295 OFFCURVE",
"779 1295 CURVE SMOOTH",
"778 1295 OFFCURVE",
"732 1280 OFFCURVE",
"724 1278 CURVE SMOOTH",
"714 1276 OFFCURVE",
"715 1271 OFFCURVE",
"708 1266 CURVE",
"702 1268 OFFCURVE",
"695 1269 OFFCURVE",
"689 1269 CURVE SMOOTH",
"644 1269 OFFCURVE",
"621 1244 OFFCURVE",
"604 1244 CURVE SMOOTH",
"596 1244 OFFCURVE",
"589 1245 OFFCURVE",
"581 1245 CURVE SMOOTH",
"558 1245 OFFCURVE",
"537 1237 OFFCURVE",
"537 1210 CURVE SMOOTH",
"537 1183 OFFCURVE",
"635 1179 OFFCURVE",
"659 1167 CURVE",
"678 1166 OFFCURVE",
"704 1141 OFFCURVE",
"725 1141 CURVE SMOOTH",
"741 1141 OFFCURVE",
"741 1152 OFFCURVE",
"756 1152 CURVE SMOOTH",
"772 1152 OFFCURVE",
"775 1135 OFFCURVE",
"790 1135 CURVE SMOOTH",
"797 1135 OFFCURVE",
"805 1138 OFFCURVE",
"812 1139 CURVE",
"873 1127 OFFCURVE",
"985 1097 OFFCURVE",
"985 1017 CURVE SMOOTH",
"985 1010 OFFCURVE",
"969 979 OFFCURVE",
"965 970 CURVE SMOOTH",
"940 907 OFFCURVE",
"950 902 OFFCURVE",
"877 902 CURVE SMOOTH",
"860 902 OFFCURVE",
"846 893 OFFCURVE",
"828 893 CURVE SMOOTH",
"812 893 OFFCURVE",
"753 883 OFFCURVE",
"753 861 CURVE SMOOTH",
"753 843 OFFCURVE",
"824 834 OFFCURVE",
"840 825 CURVE SMOOTH",
"860 813 OFFCURVE",
"909 831 OFFCURVE",
"932 812 CURVE",
"930 810 OFFCURVE",
"928 808 OFFCURVE",
"926 806 CURVE",
"908 803 OFFCURVE",
"892 803 OFFCURVE",
"874 803 CURVE SMOOTH",
"864 803 OFFCURVE",
"833 788 OFFCURVE",
"824 784 CURVE SMOOTH",
"797 772 OFFCURVE",
"762 776 OFFCURVE",
"734 776 CURVE SMOOTH",
"715 776 OFFCURVE",
"696 761 OFFCURVE",
"675 759 CURVE SMOOTH",
"654 757 OFFCURVE",
"632 754 OFFCURVE",
"632 727 CURVE SMOOTH",
"632 708 OFFCURVE",
"661 713 OFFCURVE",
"672 711 CURVE SMOOTH",
"697 707 OFFCURVE",
"686 701 OFFCURVE",
"723 701 CURVE SMOOTH",
"741 701 OFFCURVE",
"753 687 OFFCURVE",
"767 679 CURVE SMOOTH",
"800 660 OFFCURVE",
"881 637 OFFCURVE",
"919 630 CURVE SMOOTH",
"924 629 OFFCURVE",
"940 626 OFFCURVE",
"943 621 CURVE",
"933 601 OFFCURVE",
"928 610 OFFCURVE",
"909 610 CURVE SMOOTH",
"889 610 OFFCURVE",
"811 598 OFFCURVE",
"801 606 CURVE",
"795 605 OFFCURVE",
"787 601 OFFCURVE",
"781 601 CURVE SMOOTH",
"773 601 OFFCURVE",
"765 606 OFFCURVE",
"757 606 CURVE SMOOTH",
"747 606 OFFCURVE",
"745 597 OFFCURVE",
"738 594 CURVE SMOOTH",
"717 586 OFFCURVE",
"693 591 OFFCURVE",
"673 580 CURVE SMOOTH",
"669 578 OFFCURVE",
"664 577 OFFCURVE",
"660 577 CURVE SMOOTH",
"649 577 OFFCURVE",
"638 579 OFFCURVE",
"627 579 CURVE SMOOTH",
"599 579 OFFCURVE",
"603 566 OFFCURVE",
"588 566 CURVE SMOOTH",
"577 566 OFFCURVE",
"567 571 OFFCURVE",
"556 571 CURVE SMOOTH",
"535 571 OFFCURVE",
"515 560 OFFCURVE",
"492 560 CURVE SMOOTH",
"457 560 OFFCURVE",
"460 542 OFFCURVE",
"427 542 CURVE SMOOTH",
"388 542 OFFCURVE",
"366 511 OFFCURVE",
"356 511 CURVE SMOOTH",
"347 511 OFFCURVE",
"338 517 OFFCURVE",
"329 517 CURVE SMOOTH",
"314 518 OFFCURVE",
"298 519 OFFCURVE",
"283 519 CURVE SMOOTH",
"262 519 OFFCURVE",
"245 509 OFFCURVE",
"226 505 CURVE",
"211 508 OFFCURVE",
"195 515 OFFCURVE",
"180 515 CURVE SMOOTH",
"161 515 OFFCURVE",
"141 506 OFFCURVE",
"123 502 CURVE SMOOTH",
"100 497 OFFCURVE",
"0 517 OFFCURVE",
"0 477 CURVE SMOOTH",
"0 441 OFFCURVE",
"31 449 OFFCURVE",
"57 449 CURVE SMOOTH",
"70 449 OFFCURVE",
"83 440 OFFCURVE",
"96 440 CURVE SMOOTH",
"146 440 OFFCURVE",
"197 426 OFFCURVE",
"246 416 CURVE SMOOTH",
"251 415 OFFCURVE",
"257 414 OFFCURVE",
"262 414 CURVE SMOOTH",
"272 414 OFFCURVE",
"281 415 OFFCURVE",
"291 415 CURVE SMOOTH",
"301 415 OFFCURVE",
"310 418 OFFCURVE",
"320 418 CURVE SMOOTH",
"324 418 OFFCURVE",
"328 417 OFFCURVE",
"332 415 CURVE SMOOTH",
"343 408 OFFCURVE",
"414 399 OFFCURVE",
"430 399 CURVE SMOOTH",
"441 399 OFFCURVE",
"451 406 OFFCURVE",
"461 409 CURVE",
"468 405 OFFCURVE",
"471 398 OFFCURVE",
"480 398 CURVE SMOOTH",
"506 398 OFFCURVE",
"531 377 OFFCURVE",
"556 377 CURVE SMOOTH",
"565 377 OFFCURVE",
"575 380 OFFCURVE",
"585 380 CURVE SMOOTH",
"595 380 OFFCURVE",
"621 371 OFFCURVE",
"630 368 CURVE SMOOTH",
"652 360 OFFCURVE",
"801 343 OFFCURVE",
"846 335 CURVE",
"851 331 OFFCURVE",
"856 327 OFFCURVE",
"860 323 CURVE SMOOTH",
"867 316 OFFCURVE",
"876 311 OFFCURVE",
"886 311 CURVE SMOOTH",
"906 311 OFFCURVE",
"960 272 OFFCURVE",
"960 252 CURVE SMOOTH",
"960 238 OFFCURVE",
"874 200 OFFCURVE",
"860 200 CURVE SMOOTH",
"840 200 OFFCURVE",
"820 197 OFFCURVE",
"800 197 CURVE SMOOTH",
"786 197 OFFCURVE",
"774 189 OFFCURVE",
"760 189 CURVE SMOOTH",
"753 189 OFFCURVE",
"746 192 OFFCURVE",
"738 192 CURVE SMOOTH",
"724 192 OFFCURVE",
"665 177 OFFCURVE",
"665 162 CURVE SMOOTH",
"665 133 OFFCURVE",
"700 130 OFFCURVE",
"721 127 CURVE SMOOTH",
"734 125 OFFCURVE",
"751 115 OFFCURVE",
"762 115 CURVE SMOOTH",
"769 115 OFFCURVE",
"779 120 OFFCURVE",
"786 123 CURVE",
"786 124 LINE",
"806 119 OFFCURVE",
"851 105 OFFCURVE",
"866 91 CURVE SMOOTH",
"874 84 OFFCURVE",
"883 80 OFFCURVE",
"893 78 CURVE SMOOTH",
"920 73 OFFCURVE",
"948 74 OFFCURVE",
"975 67 CURVE",
"977 64 OFFCURVE",
"977 59 OFFCURVE",
"979 56 CURVE",
"979 53 OFFCURVE",
"960 46 OFFCURVE",
"957 44 CURVE SMOOTH",
"946 37 OFFCURVE",
"899 41 OFFCURVE",
"884 41 CURVE SMOOTH",
"865 41 OFFCURVE",
"854 29 OFFCURVE",
"837 23 CURVE SMOOTH",
"820 17 OFFCURVE",
"786 24 OFFCURVE",
"773 10 CURVE SMOOTH",
"771 8 OFFCURVE",
"769 5 OFFCURVE",
"766 4 CURVE",
"761 7 OFFCURVE",
"756 9 OFFCURVE",
"750 9 CURVE SMOOTH",
"720 9 OFFCURVE",
"713 -6 OFFCURVE",
"702 -6 CURVE SMOOTH",
"692 -6 OFFCURVE",
"682 -1 OFFCURVE",
"673 -1 CURVE SMOOTH",
"658 -1 OFFCURVE",
"646 -17 OFFCURVE",
"632 -21 CURVE",
"631 -21 OFFCURVE",
"620 -19 OFFCURVE",
"617 -19 CURVE SMOOTH",
"596 -19 OFFCURVE",
"561 -26 OFFCURVE",
"561 -51 CURVE SMOOTH",
"561 -61 OFFCURVE",
"567 -68 OFFCURVE",
"577 -70 CURVE SMOOTH",
"612 -77 OFFCURVE",
"651 -82 OFFCURVE",
"686 -82 CURVE SMOOTH",
"701 -82 OFFCURVE",
"830 -93 OFFCURVE",
"837 -102 CURVE",
"837 -113 OFFCURVE",
"829 -122 OFFCURVE",
"829 -135 CURVE SMOOTH",
"829 -146 OFFCURVE",
"847 -148 OFFCURVE",
"854 -148 CURVE SMOOTH",
"861 -148 OFFCURVE",
"869 -147 OFFCURVE",
"876 -145 CURVE",
"885 -148 OFFCURVE",
"891 -155 OFFCURVE",
"899 -160 CURVE SMOOTH",
"914 -168 OFFCURVE",
"937 -170 OFFCURVE",
"953 -173 CURVE SMOOTH",
"970 -177 OFFCURVE",
"975 -188 OFFCURVE",
"996 -188 CURVE SMOOTH",
"1008 -188 OFFCURVE",
"1056 -196 OFFCURVE",
"1056 -211 CURVE SMOOTH",
"1056 -223 OFFCURVE",
"1034 -225 OFFCURVE",
"1025 -225 CURVE SMOOTH",
"1003 -225 OFFCURVE",
"1009 -236 OFFCURVE",
"993 -240 CURVE SMOOTH",
"961 -249 OFFCURVE",
"936 -261 OFFCURVE",
"912 -285 CURVE",
"892 -292 OFFCURVE",
"850 -274 OFFCURVE",
"850 -307 CURVE SMOOTH",
"850 -315 OFFCURVE",
"853 -326 OFFCURVE",
"863 -327 CURVE SMOOTH",
"894 -331 OFFCURVE",
"924 -339 OFFCURVE",
"954 -339 CURVE SMOOTH",
"972 -339 OFFCURVE",
"987 -354 OFFCURVE",
"1002 -363 CURVE SMOOTH",
"1024 -376 OFFCURVE",
"1047 -367 OFFCURVE",
"1070 -374 CURVE SMOOTH",
"1080 -377 OFFCURVE",
"1089 -383 OFFCURVE",
"1098 -387 CURVE SMOOTH",
"1137 -407 OFFCURVE",
"1151 -406 OFFCURVE",
"1196 -406 CURVE"
);
}
);
width = 1200;
}
);
note = uniE0CA;
unicode = E0CA;
},
{
color = 2;
glyphname = uniE0CC;
lastChange = "2019-11-20 01:42:46 +0000";
layers = (
{
layerId = "F8C3375C-B372-4BAE-A3FB-5A8DC7FA7AB9";
paths = (
{
closed = 1;
nodes = (
"0 1978 LINE",
"0 981 LINE",
"331 981 LINE",
"496 1480 LINE",
"331 1978 LINE",
"0 1978 LINE"
);
},
{
closed = 1;
nodes = (
"539 731 LINE",
"704 233 LINE",
"1035 233 LINE",
"1200 731 LINE",
"1035 1230 LINE",
"704 1230 LINE",
"539 731 LINE"
);
},
{
closed = 1;
nodes = (
"0 517 LINE",
"0 -480 LINE",
"331 -480 LINE",
"496 18 LINE",
"331 517 LINE",
"0 517 LINE"
);
}
);
width = 1200;
}
);
note = uniE0CC;
unicode = E0CC;
},
{
color = 2;
glyphname = uniE0CD;
lastChange = "2019-11-20 01:42:46 +0000";
layers = (
{
layerId = "F8C3375C-B372-4BAE-A3FB-5A8DC7FA7AB9";
paths = (
{
closed = 1;
nodes = (
"0 1978 LINE",
"0 952 LINE",
"345 952 LINE",
"514 1465 LINE",
"345 1978 LINE",
"0 1978 LINE"
);
},
{
closed = 1;
nodes = (
"328 1001 LINE",
"28 1001 LINE",
"28 1928 LINE",
"328 1928 LINE",
"481 1465 LINE",
"328 1001 LINE"
);
},
{
closed = 1;
nodes = (
"523 732 LINE",
"692 219 LINE",
"1031 219 LINE",
"1200 732 LINE",
"1031 1245 LINE",
"692 1245 LINE",
"523 732 LINE"
);
},
{
closed = 1;
nodes = (
"1014 268 LINE",
"708 268 LINE",
"555 732 LINE",
"708 1195 LINE",
"1014 1195 LINE",
"1167 732 LINE",
"1014 268 LINE"
);
},
{
closed = 1;
nodes = (
"0 546 LINE",
"0 -480 LINE",
"345 -480 LINE",
"514 33 LINE",
"345 546 LINE",
"0 546 LINE"
);
},
{
closed = 1;
nodes = (
"328 -430 LINE",
"28 -430 LINE",
"28 497 LINE",
"328 497 LINE",
"481 33 LINE",
"328 -430 LINE"
);
}
);
width = 1200;
}
);
note = uniE0CD;
unicode = E0CD;
},
{
color = 2;
glyphname = uniE0CE;
lastChange = "2019-11-20 01:42:46 +0000";
layers = (
{
layerId = "F8C3375C-B372-4BAE-A3FB-5A8DC7FA7AB9";
paths = (
{
closed = 1;
nodes = (
"295 1978 LINE",
"4 859 LINE",
"469 859 LINE",
"775 1971 LINE",
"295 1978 LINE"
);
},
{
closed = 1;
nodes = (
"558 740 LINE",
"878 -454 LINE",
"950 -179 LINE",
"891 -176 LINE",
"856 -113 OFFCURVE",
"836 21 OFFCURVE",
"836 154 CURVE SMOOTH",
"836 277 OFFCURVE",
"855 411 OFFCURVE",
"892 487 CURVE",
"971 482 LINE",
"936 401 OFFCURVE",
"919 267 OFFCURVE",
"919 146 CURVE SMOOTH",
"919 8 OFFCURVE",
"939 -129 OFFCURVE",
"971 -179 CURVE",
"971 -179 LINE",
"976 -185 OFFCURVE",
"981 -188 OFFCURVE",
"986 -188 CURVE",
"987 -187 LINE",
"1011 -186 OFFCURVE",
"1034 -122 OFFCURVE",
"1046 -19 CURVE SMOOTH",
"1052 32 OFFCURVE",
"1055 88 OFFCURVE",
"1055 149 CURVE SMOOTH",
"1055 169 OFFCURVE",
"1054 191 OFFCURVE",
"1053 216 CURVE",
"1108 424 LINE",
"1036 428 LINE",
"1002 491 OFFCURVE",
"981 625 OFFCURVE",
"981 758 CURVE SMOOTH",
"981 881 OFFCURVE",
"1000 1015 OFFCURVE",
"1037 1091 CURVE",
"1106 1086 LINE",
"1052 1286 LINE",
"1053 1308 OFFCURVE",
"1053 1326 OFFCURVE",
"1053 1341 CURVE SMOOTH",
"1053 1432 OFFCURVE",
"1046 1519 OFFCURVE",
"1033 1579 CURVE SMOOTH",
"1020 1639 OFFCURVE",
"1003 1677 OFFCURVE",
"985 1677 CURVE SMOOTH",
"976 1677 OFFCURVE",
"967 1669 OFFCURVE",
"958 1652 CURVE",
"929 1570 OFFCURVE",
"916 1447 OFFCURVE",
"916 1334 CURVE SMOOTH",
"916 1320 OFFCURVE",
"916 1306 OFFCURVE",
"916 1292 CURVE SMOOTH",
"920 1169 OFFCURVE",
"940 1054 OFFCURVE",
"969 1013 CURVE",
"888 1017 LINE",
"866 1057 OFFCURVE",
"849 1126 OFFCURVE",
"840 1205 CURVE SMOOTH",
"836 1249 OFFCURVE",
"833 1297 OFFCURVE",
"833 1347 CURVE SMOOTH",
"833 1430 OFFCURVE",
"840 1508 OFFCURVE",
"856 1581 CURVE SMOOTH",
"865 1620 OFFCURVE",
"876 1653 OFFCURVE",
"888 1680 CURVE",
"946 1676 LINE",
"876 1934 LINE",
"558 740 LINE"
);
},
{
closed = 1;
nodes = (
"1131 413 LINE",
"1132 414 LINE",
"1157 415 OFFCURVE",
"1179 479 OFFCURVE",
"1191 582 CURVE SMOOTH",
"1197 633 OFFCURVE",
"1200 689 OFFCURVE",
"1200 750 CURVE SMOOTH",
"1200 871 OFFCURVE",
"1187 981 OFFCURVE",
"1166 1041 CURVE SMOOTH",
"1155 1071 OFFCURVE",
"1144 1086 OFFCURVE",
"1131 1086 CURVE SMOOTH",
"1124 1086 OFFCURVE",
"1117 1081 OFFCURVE",
"1110 1071 CURVE",
"1080 990 OFFCURVE",
"1064 863 OFFCURVE",
"1064 747 CURVE SMOOTH",
"1064 734 OFFCURVE",
"1064 721 OFFCURVE",
"1065 709 CURVE SMOOTH",
"1068 584 OFFCURVE",
"1089 467 OFFCURVE",
"1117 423 CURVE",
"1114 423 LINE",
"1120 416 OFFCURVE",
"1125 413 OFFCURVE",
"1131 413 CURVE"
);
},
{
closed = 1;
nodes = (
"811 409 LINE",
"730 413 LINE",
"695 476 OFFCURVE",
"675 613 OFFCURVE",
"675 746 CURVE SMOOTH",
"675 868 OFFCURVE",
"694 999 OFFCURVE",
"731 1076 CURVE",
"810 1071 LINE",
"775 990 OFFCURVE",
"758 855 OFFCURVE",
"758 734 CURVE SMOOTH",
"758 724 OFFCURVE",
"758 713 OFFCURVE",
"758 704 CURVE SMOOTH",
"762 575 OFFCURVE",
"782 453 OFFCURVE",
"811 409 CURVE"
);
},
{
closed = 1;
nodes = (
"0 639 LINE",
"291 -480 LINE",
"786 -480 LINE",
"465 639 LINE",
"0 639 LINE"
);
}
);
width = 1200;
}
);
note = uniE0CE;
unicode = E0CE;
},
{
color = 2;
glyphname = uniE0CF;
lastChange = "2019-11-20 01:42:46 +0000";
layers = (
{
layerId = "F8C3375C-B372-4BAE-A3FB-5A8DC7FA7AB9";
paths = (
{
closed = 1;
nodes = (
"601 1700 LINE",
"607 1700 OFFCURVE",
"614 1700 OFFCURVE",
"620 1701 CURVE SMOOTH",
"681 1709 OFFCURVE",
"738 1749 OFFCURVE",
"759 1808 CURVE",
"759 1802 LINE",
"763 1813 OFFCURVE",
"764 1825 OFFCURVE",
"764 1837 CURVE SMOOTH",
"764 1838 LINE SMOOTH",
"763 1915 OFFCURVE",
"690 1978 OFFCURVE",
"599 1978 CURVE SMOOTH",
"509 1978 OFFCURVE",
"435 1914 OFFCURVE",
"435 1837 CURVE SMOOTH",
"435 1822 OFFCURVE",
"438 1808 OFFCURVE",
"443 1795 CURVE",
"443 1794 LINE",
"482 1732 OFFCURVE",
"544 1700 OFFCURVE",
"601 1700 CURVE"
);
},
{
closed = 1;
nodes = (
"21 1314 LINE",
"605 662 LINE",
"1188 1318 LINE",
"1053 1465 LINE",
"1052 1344 LINE",
"1021 1274 OFFCURVE",
"955 1232 OFFCURVE",
"890 1232 CURVE SMOOTH",
"830 1232 OFFCURVE",
"766 1272 OFFCURVE",
"728 1347 CURVE",
"731 1508 LINE",
"770 1437 OFFCURVE",
"836 1402 OFFCURVE",
"895 1402 CURVE SMOOTH",
"962 1402 OFFCURVE",
"1029 1443 OFFCURVE",
"1053 1509 CURVE SMOOTH",
"1056 1519 OFFCURVE",
"1058 1529 OFFCURVE",
"1058 1539 CURVE",
"1057 1541 LINE",
"1057 1618 OFFCURVE",
"984 1680 OFFCURVE",
"893 1680 CURVE SMOOTH",
"883 1680 OFFCURVE",
"873 1679 OFFCURVE",
"860 1677 CURVE",
"759 1789 LINE",
"757 1642 LINE",
"726 1572 OFFCURVE",
"660 1530 OFFCURVE",
"595 1530 CURVE SMOOTH",
"535 1530 OFFCURVE",
"471 1569 OFFCURVE",
"433 1644 CURVE",
"435 1786 LINE",
"338 1675 LINE",
"327 1676 OFFCURVE",
"318 1677 OFFCURVE",
"311 1677 CURVE SMOOTH",
"220 1677 OFFCURVE",
"147 1615 OFFCURVE",
"147 1536 CURVE SMOOTH",
"147 1518 OFFCURVE",
"151 1501 OFFCURVE",
"159 1484 CURVE",
"199 1425 OFFCURVE",
"259 1395 OFFCURVE",
"314 1395 CURVE SMOOTH",
"322 1395 OFFCURVE",
"328 1396 OFFCURVE",
"335 1397 CURVE SMOOTH",
"395 1405 OFFCURVE",
"451 1445 OFFCURVE",
"471 1504 CURVE",
"469 1338 LINE",
"439 1268 OFFCURVE",
"373 1225 OFFCURVE",
"308 1225 CURVE SMOOTH",
"248 1225 OFFCURVE",
"183 1265 OFFCURVE",
"146 1340 CURVE",
"147 1457 LINE",
"21 1314 LINE"
);
},
{
closed = 1;
nodes = (
"603 903 LINE",
"543 903 OFFCURVE",
"478 942 OFFCURVE",
"441 1017 CURVE",
"443 1179 LINE",
"483 1107 OFFCURVE",
"549 1072 OFFCURVE",
"609 1072 CURVE SMOOTH",
"613 1072 OFFCURVE",
"618 1073 OFFCURVE",
"622 1073 CURVE SMOOTH",
"686 1080 OFFCURVE",
"745 1121 OFFCURVE",
"766 1181 CURVE",
"764 1015 LINE",
"734 945 OFFCURVE",
"667 903 OFFCURVE",
"603 903 CURVE"
);
},
{
closed = 1;
nodes = (
"654 472 LINE",
"654 -480 LINE",
"1200 116 LINE",
"1200 1130 LINE",
"654 472 LINE"
);
},
{
closed = 1;
nodes = (
"0 124 LINE",
"546 -471 LINE",
"546 481 LINE",
"3 1108 LINE",
"0 124 LINE"
);
}
);
width = 1200;
}
);
note = uniE0CF;
unicode = E0CF;
},
{
color = 2;
glyphname = uniE0D0;
lastChange = "2019-11-20 01:42:46 +0000";
layers = (
{
layerId = "F8C3375C-B372-4BAE-A3FB-5A8DC7FA7AB9";
paths = (
{
closed = 1;
nodes = (
"472 1504 LINE",
"423 1574 LINE SMOOTH",
"377 1640 OFFCURVE",
"315 1679 OFFCURVE",
"248 1679 CURVE SMOOTH",
"158 1679 OFFCURVE",
"77 1610 OFFCURVE",
"33 1501 CURVE SMOOTH",
"11 1446 OFFCURVE",
"0 1386 OFFCURVE",
"0 1321 CURVE SMOOTH",
"0 1225 OFFCURVE",
"25 1134 OFFCURVE",
"72 1068 CURVE SMOOTH",
"122 998 LINE SMOOTH",
"169 932 OFFCURVE",
"230 893 OFFCURVE",
"297 893 CURVE SMOOTH",
"386 893 OFFCURVE",
"467 962 OFFCURVE",
"511 1071 CURVE SMOOTH",
"533 1126 OFFCURVE",
"545 1186 OFFCURVE",
"545 1251 CURVE SMOOTH",
"545 1347 OFFCURVE",
"518 1438 OFFCURVE",
"472 1504 CURVE"
);
},
{
closed = 1;
nodes = (
"727 1068 LINE",
"777 998 LINE SMOOTH",
"824 932 OFFCURVE",
"885 893 OFFCURVE",
"952 893 CURVE SMOOTH",
"1041 893 OFFCURVE",
"1122 962 OFFCURVE",
"1166 1071 CURVE SMOOTH",
"1188 1126 OFFCURVE",
"1200 1186 OFFCURVE",
"1200 1251 CURVE SMOOTH",
"1200 1347 OFFCURVE",
"1173 1438 OFFCURVE",
"1127 1504 CURVE SMOOTH",
"1078 1574 LINE SMOOTH",
"1032 1640 OFFCURVE",
"970 1679 OFFCURVE",
"903 1679 CURVE SMOOTH",
"813 1679 OFFCURVE",
"732 1610 OFFCURVE",
"688 1501 CURVE SMOOTH",
"666 1446 OFFCURVE",
"655 1386 OFFCURVE",
"655 1321 CURVE SMOOTH",
"655 1257 OFFCURVE",
"668 1193 OFFCURVE",
"689 1141 CURVE SMOOTH",
"700 1114 OFFCURVE",
"712 1090 OFFCURVE",
"727 1068 CURVE"
);
},
{
closed = 1;
nodes = (
"113 1090 LINE",
"68 1155 OFFCURVE",
"45 1232 OFFCURVE",
"45 1321 CURVE SMOOTH",
"45 1413 OFFCURVE",
"74 1500 OFFCURVE",
"114 1555 CURVE SMOOTH",
"154 1610 OFFCURVE",
"204 1644 OFFCURVE",
"248 1644 CURVE SMOOTH",
"292 1644 OFFCURVE",
"343 1610 OFFCURVE",
"383 1553 CURVE SMOOTH",
"428 1488 OFFCURVE",
"450 1410 OFFCURVE",
"450 1321 CURVE SMOOTH",
"450 1230 OFFCURVE",
"422 1143 OFFCURVE",
"382 1088 CURVE SMOOTH",
"342 1033 OFFCURVE",
"291 998 OFFCURVE",
"248 998 CURVE SMOOTH",
"203 998 OFFCURVE",
"152 1033 OFFCURVE",
"113 1090 CURVE"
);
},
{
closed = 1;
nodes = (
"769 1555 LINE",
"809 1610 OFFCURVE",
"859 1644 OFFCURVE",
"903 1644 CURVE SMOOTH",
"947 1644 OFFCURVE",
"998 1610 OFFCURVE",
"1038 1553 CURVE SMOOTH",
"1083 1488 OFFCURVE",
"1106 1410 OFFCURVE",
"1106 1321 CURVE SMOOTH",
"1106 1230 OFFCURVE",
"1077 1143 OFFCURVE",
"1037 1088 CURVE SMOOTH",
"997 1033 OFFCURVE",
"946 998 OFFCURVE",
"903 998 CURVE SMOOTH",
"858 998 OFFCURVE",
"807 1033 OFFCURVE",
"768 1090 CURVE SMOOTH",
"723 1155 OFFCURVE",
"700 1232 OFFCURVE",
"700 1321 CURVE SMOOTH",
"700 1413 OFFCURVE",
"729 1500 OFFCURVE",
"769 1555 CURVE"
);
},
{
closed = 1;
nodes = (
"392 1567 LINE",
"392 1568 LINE",
"397 1561 LINE SMOOTH",
"398 1560 OFFCURVE",
"396 1562 OFFCURVE",
"396 1562 CURVE",
"392 1567 LINE"
);
},
{
closed = 1;
nodes = (
"1052 1561 LINE",
"1053 1560 OFFCURVE",
"1052 1562 OFFCURVE",
"1051 1562 CURVE",
"1047 1567 LINE",
"1049 1566 OFFCURVE",
"1049 1564 OFFCURVE",
"1052 1561 CURVE"
);
},
{
closed = 1;
nodes = (
"102 1567 LINE",
"54 1498 OFFCURVE",
"31 1416 OFFCURVE",
"31 1321 CURVE SMOOTH",
"31 1315 LINE",
"24 1325 LINE",
"25 1421 OFFCURVE",
"54 1507 OFFCURVE",
"102 1567 CURVE"
);
},
{
closed = 1;
nodes = (
"757 1567 LINE",
"709 1498 OFFCURVE",
"686 1416 OFFCURVE",
"686 1321 CURVE SMOOTH",
"686 1315 LINE",
"679 1325 LINE",
"680 1421 OFFCURVE",
"709 1507 OFFCURVE",
"757 1567 CURVE"
);
},
{
closed = 1;
nodes = (
"530 1276 LINE",
"495 1325 LINE",
"495 1378 OFFCURVE",
"487 1428 OFFCURVE",
"471 1475 CURVE",
"507 1418 OFFCURVE",
"526 1352 OFFCURVE",
"530 1276 CURVE"
);
},
{
closed = 1;
nodes = (
"1185 1276 LINE",
"1151 1326 LINE",
"1150 1378 OFFCURVE",
"1142 1428 OFFCURVE",
"1126 1475 CURVE",
"1162 1418 OFFCURVE",
"1181 1352 OFFCURVE",
"1185 1276 CURVE"
);
},
{
closed = 1;
nodes = (
"455 1444 LINE",
"466 1405 OFFCURVE",
"471 1364 OFFCURVE",
"471 1321 CURVE SMOOTH",
"471 1316 LINE",
"464 1325 LINE",
"464 1375 OFFCURVE",
"456 1422 OFFCURVE",
"441 1467 CURVE",
"446 1460 OFFCURVE",
"450 1452 OFFCURVE",
"455 1444 CURVE"
);
},
{
closed = 1;
nodes = (
"1110 1444 LINE",
"1121 1405 OFFCURVE",
"1126 1364 OFFCURVE",
"1126 1321 CURVE SMOOTH",
"1126 1316 LINE",
"1119 1326 LINE",
"1119 1375 OFFCURVE",
"1111 1422 OFFCURVE",
"1097 1467 CURVE",
"1101 1460 OFFCURVE",
"1106 1452 OFFCURVE",
"1110 1444 CURVE"
);
},
{
closed = 1;
nodes = (
"462 1012 LINE",
"421 952 OFFCURVE",
"361 913 OFFCURVE",
"300 913 CURVE",
"264 964 LINE",
"388 976 OFFCURVE",
"487 1119 OFFCURVE",
"495 1298 CURVE",
"531 1247 LINE",
"530 1156 OFFCURVE",
"503 1071 OFFCURVE",
"462 1012 CURVE"
);
},
{
closed = 1;
nodes = (
"464 1298 LINE",
"470 1289 LINE",
"464 1203 OFFCURVE",
"439 1132 OFFCURVE",
"393 1076 CURVE",
"437 1139 OFFCURVE",
"460 1213 OFFCURVE",
"464 1298 CURVE"
);
},
{
closed = 1;
nodes = (
"1070 959 LINE",
"1035 930 OFFCURVE",
"996 914 OFFCURVE",
"955 913 CURVE",
"919 964 LINE",
"1043 976 OFFCURVE",
"1142 1119 OFFCURVE",
"1150 1298 CURVE",
"1186 1247 LINE",
"1185 1126 OFFCURVE",
"1141 1018 OFFCURVE",
"1070 959 CURVE"
);
},
{
closed = 1;
nodes = (
"1048 1076 LINE",
"1092 1139 OFFCURVE",
"1115 1213 OFFCURVE",
"1119 1298 CURVE",
"1125 1289 LINE",
"1119 1203 OFFCURVE",
"1094 1132 OFFCURVE",
"1048 1076 CURVE"
);
},
{
closed = 1;
nodes = (
"25 1296 LINE",
"32 1285 LINE",
"37 1224 OFFCURVE",
"52 1169 OFFCURVE",
"77 1118 CURVE",
"81 1105 LINE",
"47 1160 OFFCURVE",
"28 1223 OFFCURVE",
"25 1296 CURVE"
);
},
{
closed = 1;
nodes = (
"680 1296 LINE",
"687 1285 LINE",
"692 1224 OFFCURVE",
"707 1169 OFFCURVE",
"732 1118 CURVE",
"736 1105 LINE",
"703 1160 OFFCURVE",
"683 1223 OFFCURVE",
"680 1296 CURVE"
);
},
{
closed = 1;
nodes = (
"141 998 LINE",
"173 975 OFFCURVE",
"208 964 OFFCURVE",
"245 963 CURVE",
"279 914 LINE",
"227 919 OFFCURVE",
"180 947 OFFCURVE",
"141 998 CURVE"
);
},
{
closed = 1;
nodes = (
"796 998 LINE",
"829 975 OFFCURVE",
"863 964 OFFCURVE",
"900 963 CURVE",
"934 914 LINE",
"882 919 OFFCURVE",
"835 947 OFFCURVE",
"796 998 CURVE"
);
},
{
closed = 1;
nodes = (
"472 430 LINE",
"423 500 LINE SMOOTH",
"377 566 OFFCURVE",
"315 605 OFFCURVE",
"248 605 CURVE SMOOTH",
"158 605 OFFCURVE",
"77 536 OFFCURVE",
"33 427 CURVE SMOOTH",
"11 372 OFFCURVE",
"0 312 OFFCURVE",
"0 247 CURVE SMOOTH",
"0 151 OFFCURVE",
"25 60 OFFCURVE",
"72 -6 CURVE SMOOTH",
"122 -76 LINE SMOOTH",
"169 -142 OFFCURVE",
"230 -181 OFFCURVE",
"297 -181 CURVE SMOOTH",
"386 -181 OFFCURVE",
"468 -114 OFFCURVE",
"511 -4 CURVE SMOOTH",
"533 52 OFFCURVE",
"545 112 OFFCURVE",
"545 177 CURVE SMOOTH",
"545 273 OFFCURVE",
"518 364 OFFCURVE",
"472 430 CURVE"
);
},
{
closed = 1;
nodes = (
"1127 430 LINE",
"1078 500 LINE SMOOTH",
"1032 566 OFFCURVE",
"970 605 OFFCURVE",
"903 605 CURVE SMOOTH",
"813 605 OFFCURVE",
"732 536 OFFCURVE",
"688 427 CURVE SMOOTH",
"666 372 OFFCURVE",
"655 312 OFFCURVE",
"655 247 CURVE SMOOTH",
"655 151 OFFCURVE",
"680 60 OFFCURVE",
"727 -6 CURVE SMOOTH",
"777 -76 LINE SMOOTH",
"824 -142 OFFCURVE",
"885 -181 OFFCURVE",
"952 -181 CURVE SMOOTH",
"1041 -181 OFFCURVE",
"1123 -114 OFFCURVE",
"1166 -4 CURVE SMOOTH",
"1188 52 OFFCURVE",
"1200 112 OFFCURVE",
"1200 177 CURVE SMOOTH",
"1200 241 OFFCURVE",
"1186 305 OFFCURVE",
"1166 358 CURVE SMOOTH",
"1156 384 OFFCURVE",
"1142 408 OFFCURVE",
"1127 430 CURVE"
);
},
{
closed = 1;
nodes = (
"113 16 LINE",
"68 81 OFFCURVE",
"45 158 OFFCURVE",
"45 247 CURVE SMOOTH",
"45 339 OFFCURVE",
"74 426 OFFCURVE",
"114 481 CURVE SMOOTH",
"154 536 OFFCURVE",
"204 570 OFFCURVE",
"248 570 CURVE SMOOTH",
"292 570 OFFCURVE",
"343 536 OFFCURVE",
"383 479 CURVE SMOOTH",
"428 414 OFFCURVE",
"450 336 OFFCURVE",
"450 247 CURVE SMOOTH",
"450 156 OFFCURVE",
"422 69 OFFCURVE",
"382 14 CURVE SMOOTH",
"342 -41 OFFCURVE",
"291 -76 OFFCURVE",
"248 -76 CURVE SMOOTH",
"203 -76 OFFCURVE",
"152 -41 OFFCURVE",
"113 16 CURVE"
);
},
{
closed = 1;
nodes = (
"768 16 LINE",
"723 81 OFFCURVE",
"700 158 OFFCURVE",
"700 247 CURVE SMOOTH",
"700 322 OFFCURVE",
"718 392 OFFCURVE",
"747 444 CURVE SMOOTH",
"761 469 OFFCURVE",
"777 492 OFFCURVE",
"794 511 CURVE SMOOTH",
"829 550 OFFCURVE",
"867 570 OFFCURVE",
"903 570 CURVE SMOOTH",
"947 570 OFFCURVE",
"998 536 OFFCURVE",
"1038 479 CURVE SMOOTH",
"1083 414 OFFCURVE",
"1106 336 OFFCURVE",
"1106 247 CURVE SMOOTH",
"1106 156 OFFCURVE",
"1077 69 OFFCURVE",
"1037 14 CURVE SMOOTH",
"997 -41 OFFCURVE",
"946 -76 OFFCURVE",
"903 -76 CURVE SMOOTH",
"874 -76 OFFCURVE",
"842 -61 OFFCURVE",
"811 -34 CURVE SMOOTH",
"795 -20 OFFCURVE",
"781 -3 OFFCURVE",
"768 16 CURVE"
);
},
{
closed = 1;
nodes = (
"392 494 LINE",
"397 487 LINE SMOOTH",
"398 486 OFFCURVE",
"396 488 OFFCURVE",
"396 488 CURVE",
"392 494 LINE"
);
},
{
closed = 1;
nodes = (
"34 344 LINE",
"46 403 OFFCURVE",
"71 453 OFFCURVE",
"102 493 CURVE",
"54 424 OFFCURVE",
"31 342 OFFCURVE",
"31 247 CURVE SMOOTH",
"31 241 LINE",
"24 251 LINE",
"25 283 OFFCURVE",
"28 314 OFFCURVE",
"34 344 CURVE"
);
},
{
closed = 1;
nodes = (
"757 493 LINE",
"709 424 OFFCURVE",
"686 342 OFFCURVE",
"686 247 CURVE SMOOTH",
"686 241 LINE",
"679 251 LINE",
"680 347 OFFCURVE",
"709 433 OFFCURVE",
"757 493 CURVE"
);
},
{
closed = 1;
nodes = (
"1049 492 LINE",
"1052 487 LINE SMOOTH",
"1053 486 OFFCURVE",
"1052 488 OFFCURVE",
"1051 488 CURVE",
"1049 492 LINE"
);
},
{
closed = 1;
nodes = (
"530 202 LINE",
"495 252 LINE",
"495 304 OFFCURVE",
"487 354 OFFCURVE",
"471 401 CURVE",
"507 344 OFFCURVE",
"526 278 OFFCURVE",
"530 202 CURVE"
);
},
{
closed = 1;
nodes = (
"1185 202 LINE",
"1151 252 LINE",
"1150 304 OFFCURVE",
"1142 354 OFFCURVE",
"1126 401 CURVE",
"1162 344 OFFCURVE",
"1181 278 OFFCURVE",
"1185 202 CURVE"
);
},
{
closed = 1;
nodes = (
"455 370 LINE",
"466 331 OFFCURVE",
"471 290 OFFCURVE",
"471 247 CURVE SMOOTH",
"471 242 LINE",
"464 251 LINE",
"464 301 OFFCURVE",
"456 348 OFFCURVE",
"441 393 CURVE",
"446 386 OFFCURVE",
"450 378 OFFCURVE",
"455 370 CURVE"
);
},
{
closed = 1;
nodes = (
"1110 370 LINE",
"1121 331 OFFCURVE",
"1126 290 OFFCURVE",
"1126 247 CURVE SMOOTH",
"1126 242 LINE",
"1119 252 LINE",
"1119 301 OFFCURVE",
"1111 348 OFFCURVE",
"1097 393 CURVE",
"1101 386 OFFCURVE",
"1106 378 OFFCURVE",
"1110 370 CURVE"
);
},
{
closed = 1;
nodes = (
"415 -116 LINE",
"380 -145 OFFCURVE",
"341 -160 OFFCURVE",
"300 -161 CURVE",
"264 -110 LINE",
"388 -98 OFFCURVE",
"487 45 OFFCURVE",
"495 224 CURVE",
"531 172 LINE",
"530 52 OFFCURVE",
"487 -57 OFFCURVE",
"415 -116 CURVE"
);
},
{
closed = 1;
nodes = (
"464 224 LINE",
"470 215 LINE",
"464 129 OFFCURVE",
"438 58 OFFCURVE",
"393 2 CURVE",
"437 65 OFFCURVE",
"460 139 OFFCURVE",
"464 224 CURVE"
);
},
{
closed = 1;
nodes = (
"1070 -116 LINE",
"1035 -145 OFFCURVE",
"996 -160 OFFCURVE",
"955 -161 CURVE",
"919 -110 LINE",
"1043 -98 OFFCURVE",
"1142 45 OFFCURVE",
"1150 224 CURVE",
"1186 173 LINE",
"1185 52 OFFCURVE",
"1142 -57 OFFCURVE",
"1070 -116 CURVE"
);
},
{
closed = 1;
nodes = (
"1119 224 LINE",
"1125 215 LINE",
"1119 129 OFFCURVE",
"1094 58 OFFCURVE",
"1048 2 CURVE",
"1092 65 OFFCURVE",
"1115 139 OFFCURVE",
"1119 224 CURVE"
);
},
{
closed = 1;
nodes = (
"25 222 LINE",
"32 211 LINE",
"37 150 OFFCURVE",
"52 95 OFFCURVE",
"77 44 CURVE",
"81 31 LINE",
"47 86 OFFCURVE",
"28 149 OFFCURVE",
"25 222 CURVE"
);
},
{
closed = 1;
nodes = (
"680 222 LINE",
"687 211 LINE",
"692 150 OFFCURVE",
"707 95 OFFCURVE",
"732 44 CURVE",
"736 31 LINE",
"703 86 OFFCURVE",
"683 149 OFFCURVE",
"680 222 CURVE"
);
},
{
closed = 1;
nodes = (
"141 -76 LINE",
"173 -99 OFFCURVE",
"208 -110 OFFCURVE",
"245 -111 CURVE",
"279 -160 LINE",
"227 -155 OFFCURVE",
"180 -127 OFFCURVE",
"141 -76 CURVE"
);
},
{
closed = 1;
nodes = (
"796 -76 LINE",
"829 -99 OFFCURVE",
"863 -110 OFFCURVE",
"900 -111 CURVE",
"934 -160 LINE",
"882 -155 OFFCURVE",
"835 -127 OFFCURVE",
"796 -76 CURVE"
);
}
);
width = 1200;
}
);
note = uniE0D0;
unicode = E0D0;
},
{
color = 2;
glyphname = uniE0D1;
lastChange = "2019-11-20 01:42:46 +0000";
layers = (
{
layerId = "F8C3375C-B372-4BAE-A3FB-5A8DC7FA7AB9";
paths = (
{
closed = 1;
nodes = (
"913 994 LINE",
"1167 994 LINE SMOOTH",
"1183 994 OFFCURVE",
"1200 1017 OFFCURVE",
"1200 1045 CURVE SMOOTH",
"1200 1679 LINE SMOOTH",
"1200 1704 OFFCURVE",
"1185 1730 OFFCURVE",
"1167 1730 CURVE SMOOTH",
"913 1730 LINE",
"913 2003 LINE",
"0 2003 LINE",
"0 -505 LINE",
"913 -505 LINE",
"913 -141 LINE",
"1165 -141 LINE SMOOTH",
"1180 -141 OFFCURVE",
"1197 -119 OFFCURVE",
"1197 -90 CURVE SMOOTH",
"1197 538 LINE SMOOTH",
"1197 562 OFFCURVE",
"1183 588 OFFCURVE",
"1165 588 CURVE SMOOTH",
"913 588 LINE",
"913 994 LINE"
);
},
{
closed = 1;
nodes = (
"917 1508 LINE",
"917 1641 LINE",
"1151 1641 LINE",
"1151 1508 LINE",
"917 1508 LINE"
);
},
{
closed = 1;
nodes = (
"917 354 LINE",
"917 487 LINE",
"1151 487 LINE",
"1151 354 LINE",
"917 354 LINE"
);
}
);
width = 1200;
}
);
note = uniE0D1;
unicode = E0D1;
},
{
color = 2;
glyphname = uniE0D2;
lastChange = "2019-11-20 01:42:46 +0000";
layers = (
{
layerId = "F8C3375C-B372-4BAE-A3FB-5A8DC7FA7AB9";
paths = (
{
closed = 1;
nodes = (
"0 2003 LINE",
"0 861 LINE",
"381 861 LINE",
"1172 1996 LINE",
"0 2003 LINE"
);
},
{
closed = 1;
nodes = (
"0 637 LINE",
"0 -505 LINE",
"1200 -505 LINE",
"371 637 LINE",
"0 637 LINE"
);
}
);
width = 1200;
}
);
note = uniE0D2;
unicode = E0D2;
},
{
color = 2;
glyphname = uniE0D4;
lastChange = "2019-11-20 01:42:46 +0000";
layers = (
{
layerId = "F8C3375C-B372-4BAE-A3FB-5A8DC7FA7AB9";
paths = (
{
closed = 1;
nodes = (
"28 1996 LINE",
"818 861 LINE",
"1200 861 LINE",
"1200 2003 LINE",
"28 1996 LINE"
);
},
{
closed = 1;
nodes = (
"829 637 LINE",
"0 -505 LINE",
"1200 -505 LINE",
"1200 637 LINE",
"829 637 LINE"
);
}
